<?xml version="1.0" encoding="utf-8"?>
<!-- Generator: Adobe Illustrator 16.0.3, SVG Export Plug-In . SVG Version: 6.00 Build 0)  -->
<!DOCTYPE svg PUBLIC "-//W3C//DTD SVG 1.1//EN" "http://www.w3.org/Graphics/SVG/1.1/DTD/svg11.dtd">
<svg version="1.1" id="Layer_1" xmlns="http://www.w3.org/2000/svg" xmlns:xlink="http://www.w3.org/1999/xlink" x="0px" y="0px"
	 width="48px" height="48px" viewBox="0 0 48 48" enable-background="new 0 0 48 48" xml:space="preserve">
<g>
	<g>
		<path fill="#734B28" d="M34,36c0,1.1-0.9,2-2,2h-3c-1.1,0-2-0.9-2-2v-2c0-1.1-0.9-2-2-2h-2c-1.1,0-2,0.9-2,2v2c0,1.1-0.9,2-2,2h-3
			c-1.1,0-2-0.9-2-2v-8c0-1.1,0.772-2.463,1.715-3.029l6.57-3.942c0.943-0.566,2.487-0.566,3.43,0l6.57,3.942
			C33.228,25.537,34,26.9,34,28V36z"/>
	</g>
	<g>
		<path fill="#734B28" d="M36.5,23.5c0-1.1-0.772-2.463-1.715-3.029l-9.07-5.442c-0.943-0.566-2.487-0.566-3.43,0l-9.07,5.442
			C12.272,21.037,11.5,22.4,11.5,23.5l0,0c0,1.1,0.772,1.537,1.715,0.971l9.07-5.442c0.943-0.566,2.487-0.566,3.43,0l9.07,5.442
			C35.728,25.037,36.5,24.6,36.5,23.5L36.5,23.5z"/>
	</g>
</g>
</svg>
