<?xml version="1.0" encoding="utf-8"?>
<!-- Generator: Adobe Illustrator 16.0.0, SVG Export Plug-In . SVG Version: 6.00 Build 0)  -->
<!DOCTYPE svg PUBLIC "-//W3C//DTD SVG 1.1//EN" "http://www.w3.org/Graphics/SVG/1.1/DTD/svg11.dtd">
<svg version="1.1" id="Layer_1" xmlns="http://www.w3.org/2000/svg" xmlns:xlink="http://www.w3.org/1999/xlink" x="0px" y="0px"
	 width="185px" height="60px" viewBox="0 0 185 60" enable-background="new 0 0 185 60" xml:space="preserve">
<g>
	<g>
		<path fill-rule="evenodd" clip-rule="evenodd" fill="#008AC0" d="M64.185,41.836c12-7.533,18.205-15.307,24.772-23.502
			c-0.103-5.723-1.251-8.816-4.287-8.272c-1.514,0.271-3.765,1.924-2.646,3.78c0.244,0.406,1.641,0.888,2.563-0.006
			c0.443-0.429,0.643-1.838-0.932-2.202c0.214-0.629,1.725-1.32,2.316-0.384c0.044,0.068,0.501,1.302,0.431,2.569
			c-0.243,4.32-3.727,9.638-5.25,11.293c-0.08-2.876-0.798-6.627-1.272-8.204c-0.313,4.782-6.545,16.739-6.575,15.781
			c-0.051-1.71-0.308-7.392-0.308-7.392C70.724,31.111,68.874,36.08,64.185,41.836z"/>
		<path fill-rule="evenodd" clip-rule="evenodd" fill="#F3C528" d="M61.542,45.085c12.625-8.511,20.845-16.056,29.365-25.53
			c3.029-0.338,6.994-0.736,10.537-2.733c-2.634,4.014-9.614,8.993-18.222,12.944c1.602,0.175,3.625,0.288,7.611-0.746
			c-4.164,3.142-9.957,6.401-16.654,9.603l4.67,1.174c1.624,0.536,1.507,2.545,0.544,3.523c-0.789,0.799-2.28,0.954-2.959-0.271
			c-0.419-1.057,0.127-1.709,0.694-1.852c0.537-0.135,1.623-0.279,1.199-0.722C76.925,39.313,67.501,43.776,61.542,45.085z"/>
	</g>
	<path fill-rule="evenodd" clip-rule="evenodd" fill="#2D5E90" d="M5.639,44.639c0.872,0.163,2.235,0.245,3.816,0.245
		c2.48,0,4.497-0.407,5.942-1.498c1.199-0.899,2.207-2.373,2.207-4.253c0.027-2.207-1.362-3.597-3.025-4.088V34.99
		c2.099-0.545,3.979-2.262,3.979-4.579c0-1.198-0.491-2.18-1.336-2.861c-0.98-0.872-2.344-1.281-4.225-1.281
		c-1.499,0-2.834,0.163-3.951,0.382L5.639,44.639L5.639,44.639z M11.007,28.258c0.355-0.108,1.038-0.19,1.882-0.19
		c1.989,0,3.325,0.765,3.325,2.534c0,2.235-2.046,3.599-4.662,3.599H9.862L11.007,28.258L11.007,28.258z M9.51,35.917h1.825
		c2.073,0,3.899,0.954,3.899,3.107c0,2.944-2.508,4.061-5.179,4.033c-0.626,0-1.308-0.026-1.881-0.108L9.51,35.917L9.51,35.917z
		 M30.523,44.775c-0.054-1.473,0.137-3.816,0.572-6.106l1.335-6.867c-0.898-0.3-2.289-0.518-3.542-0.518
		c-5.752,0-9.131,4.851-9.131,9.43c0,2.508,1.472,4.361,3.788,4.361c1.881,0,3.68-0.981,5.125-3.707h0.055
		c-0.164,1.363-0.3,2.616-0.3,3.407H30.523L30.523,44.775z M29.132,37.252c-0.654,3.517-2.888,5.97-4.769,5.97
		c-1.745,0-2.262-1.444-2.262-2.917c0.027-3.652,2.808-7.223,6.215-7.223c0.763,0,1.253,0.11,1.581,0.191L29.132,37.252
		L29.132,37.252z M36.165,44.775l1.2-6.405c0.599-3.271,2.888-5.206,4.497-5.206c1.553,0,2.07,0.982,2.07,2.316
		c0,0.546-0.081,1.172-0.19,1.691l-1.445,7.604h2.263l1.472-7.687c0.137-0.708,0.245-1.553,0.245-2.126
		c0-2.78-1.772-3.679-3.353-3.679c-1.935,0-3.706,1.035-4.878,2.89h-0.055l0.327-2.589H36.3c-0.163,1.089-0.327,2.37-0.625,3.841
		l-1.772,9.35H36.165L36.165,44.775z M50.719,44.775l0.955-5.015l1.663-1.5l3.162,6.515h2.507l-3.953-7.768l5.752-5.423h-2.781
		l-4.661,4.632c-0.327,0.381-0.818,0.872-1.226,1.337h-0.056l2.317-12.129h-2.261l-3.654,19.351H50.719z"/>
	<path fill-rule="evenodd" clip-rule="evenodd" fill="#2D5E90" d="M89.992,43.269c0.873,0.654,2.699,1.309,5.261,1.309
		c4.086,0,7.468-2.1,7.468-6.188c0-2.18-1.418-3.679-3.652-4.851c-1.555-0.873-2.671-1.527-2.671-2.589
		c0-1.01,0.954-1.937,2.78-1.937c1.526-0.026,2.834,0.491,3.434,0.818l1.226-3.271c-0.79-0.436-2.097-0.927-4.332-0.927
		c-4.007,0-7.25,2.261-7.25,5.97c0,2.397,1.853,3.814,3.815,4.877c1.689,0.873,2.479,1.555,2.479,2.59
		c0,1.443-1.391,2.153-2.916,2.153c-1.689,0-3.242-0.518-4.333-1.172L89.992,43.269L89.992,43.269z M114.79,30.977l-1.177,6.159
		c-0.518,2.671-1.881,4.279-3.212,4.279c-1.008,0-1.331-0.682-1.331-1.555c0-0.489,0.081-1.144,0.19-1.743l1.331-7.141h-3.919
		l-1.391,7.44c-0.19,0.926-0.272,1.717-0.272,2.453c0,2.535,1.28,3.734,3.407,3.734c1.604,0,3.24-0.736,4.597-2.48h0.054
		l-0.244,2.18h3.466c0.191-1.199,0.382-2.644,0.709-4.333l1.716-8.994H114.79L114.79,30.977z M123.434,44.304l3.708-19.35h-3.925
		l-3.707,19.35H123.434L123.434,44.304z M130.276,28.169l-0.546,2.808h-1.716l-0.545,2.971h1.69l-1.036,5.315
		c-0.19,1.007-0.272,1.743-0.272,2.48c0,1.662,1.117,2.861,3.462,2.861c0.845,0,1.826-0.108,2.316-0.301l0.462-3.079
		c-0.354,0.054-0.735,0.054-1.089,0.054c-0.845,0-1.118-0.462-1.118-1.116c0-0.464,0.11-1.145,0.219-1.69l0.899-4.524h2.834
		l0.571-2.971h-2.834l0.709-3.734L130.276,28.169L130.276,28.169z M146.957,40.707c-1.063,0.518-2.29,0.845-3.735,0.845
		c-1.145,0-2.043-0.354-2.561-1.037c-0.273-0.381-0.41-0.979-0.41-1.362c5.343,0.137,8.642-1.09,8.642-4.496
		c0-2.48-1.935-3.979-4.635-3.979c-4.824,0-7.766,4.224-7.766,8.284c0,3.462,1.962,5.615,5.778,5.615
		c1.471,0,3.407-0.245,4.959-1.036L146.957,40.707L146.957,40.707z M145.211,34.684c0,1.199-1.526,1.635-4.578,1.607
		c0.271-1.253,1.308-2.752,3.134-2.752C144.667,33.539,145.211,34.002,145.211,34.684L145.211,34.684z M153.661,44.304l1.117-5.914
		c0.546-2.944,2.045-4.552,3.327-4.552c0.98,0,1.306,0.654,1.306,1.581c0,0.49-0.054,1.036-0.134,1.5l-1.391,7.385h3.925l1.472-7.74
		c0.108-0.654,0.217-1.662,0.217-2.262c0-2.29-1.226-3.624-3.407-3.624c-1.771,0-3.434,0.763-4.688,2.506h-0.055l0.273-2.207h-3.489
		c-0.164,1.172-0.382,2.643-0.71,4.333l-1.688,8.994H153.661L153.661,44.304z M165.053,49.156c0.9,0.518,2.563,0.844,4.335,0.844
		c1.77,0,3.706-0.354,5.149-1.498c1.609-1.281,2.346-3.462,2.808-5.915l2.017-10.982c-1.389-0.601-3.052-0.927-4.932-0.927
		c-5.806,0-8.94,4.36-8.94,8.775c0.027,2.589,1.636,4.742,4.28,4.742c1.58,0,2.781-0.626,3.816-1.962h0.054l-0.217,1.116
		c-0.544,2.672-2.019,3.544-3.979,3.544c-1.118,0-2.754-0.3-3.489-0.735L165.053,49.156L165.053,49.156z M174.43,37.49
		c-0.41,2.262-1.719,3.679-2.998,3.679c-1.2,0-1.799-0.979-1.799-2.315c0-2.535,1.689-5.178,4.06-5.178
		c0.547,0,1.118,0.108,1.418,0.245L174.43,37.49z"/>
</g>
</svg>
