<?xml version="1.0" encoding="utf-8"?>
<!-- Generator: Adobe Illustrator 16.0.0, SVG Export Plug-In . SVG Version: 6.00 Build 0)  -->
<!DOCTYPE svg PUBLIC "-//W3C//DTD SVG 1.1//EN" "http://www.w3.org/Graphics/SVG/1.1/DTD/svg11.dtd">
<svg version="1.1" id="Layer_1" xmlns="http://www.w3.org/2000/svg" xmlns:xlink="http://www.w3.org/1999/xlink" x="0px" y="0px"
	 width="190px" height="60px" viewBox="0 0 190 60" enable-background="new 0 0 190 60" xml:space="preserve">
<g>
	
		<text transform="matrix(1 0 0 1 42.9219 29.4648)" fill="#03285D" font-family="'TimesNewRomanPS-BoldMT'" font-size="15.4687" letter-spacing="1">BANK LAMPUNG</text>
</g>
<g>
	<path fill="#EBC50C" stroke="#6D6E71" stroke-width="0.25" stroke-miterlimit="10" d="M4.686,48.059l2,2.896
		c0,0,22.21-13.713,21.147-24.432c-1.062-10.719-16.319-7.051-16.319-7.051s19.507-0.867,12.071,12.941
		C23.585,32.414,19.778,40.043,4.686,48.059z"/>
	<path fill="#EBC50C" stroke="#6D6E71" stroke-width="0.25" stroke-miterlimit="10" d="M24.646,7.5l2.028,3.67
		c0,0-7.051,6.084-7.822,15.449c-0.772,9.367,3.863,15.453,18.444,8.691c0,0-9.528,9.658-18.524,1.932
		C9.776,29.518,20.591,10.301,24.646,7.5z"/>
	<path fill="#EBC50C" stroke="#6D6E71" stroke-width="0.25" stroke-miterlimit="10" d="M9.39,33.186l2.028,3.572
		c0,0,10.682-7.199,16.452-3.572s-2.354,13.713-3.803,15.064c-1.449,1.352-5.022,4.25-5.022,4.25s14.59-5.398,13.328-17.189
		C31.214,24.494,14.699,29.518,9.39,33.186z"/>
</g>
<text transform="matrix(1 0 0 1 42.9214 39.9375)" fill="#ED1C24" font-family="'TimesNewRomanPSMT'" font-size="11.25">Banknya Masyarakat Lampung</text>
</svg>
