<?xml version="1.0" encoding="utf-8"?>
<!-- Generator: Adobe Illustrator 16.0.0, SVG Export Plug-In . SVG Version: 6.00 Build 0)  -->
<!DOCTYPE svg PUBLIC "-//W3C//DTD SVG 1.1//EN" "http://www.w3.org/Graphics/SVG/1.1/DTD/svg11.dtd">
<svg version="1.1" id="Layer_1" xmlns="http://www.w3.org/2000/svg" xmlns:xlink="http://www.w3.org/1999/xlink" x="0px" y="0px"
	 width="120px" height="60px" viewBox="0 0 120 60" enable-background="new 0 0 120 60" xml:space="preserve">
<path fill="#E77817" d="M27.873,28.997c0,0-14.072,2.054-8.893-7.722c5.179-9.773,16.614-11.631,21.012-8.112
	c0,0,0.881,0.029-1.074-1.647c-1.955-1.674-7.427-2.554-13.487,0.573c-6.06,3.126-10.75,9.869-10.262,13.682
	C15.656,29.582,20.347,31.734,27.873,28.997z"/>
<path fill="#28166F" d="M30.381,14.75c0,0,14.073-2.052,8.894,7.721c-5.179,9.774-16.614,11.632-21.012,8.113
	c0,0-0.88-0.028,1.075,1.647s7.427,2.554,13.487-0.573c6.06-3.126,10.75-9.87,10.262-13.681
	C42.599,14.166,37.907,12.013,30.381,14.75z"/>
<text transform="matrix(1 0 0 1 47.3975 43.8516)" fill="#28166F" font-family="'TimesNewRomanPS-BoldMT'" font-size="18.7649">SUMUT</text>
<text transform="matrix(1 0 0 1 2.8306 43.8506)" fill="#E77817" font-family="'TimesNewRomanPS-BoldMT'" font-size="18.7649">Bank</text>
</svg>
