<?xml version="1.0" encoding="utf-8"?>
<!-- Generator: Adobe Illustrator 16.0.3, SVG Export Plug-In . SVG Version: 6.00 Build 0)  -->
<!DOCTYPE svg PUBLIC "-//W3C//DTD SVG 1.1//EN" "http://www.w3.org/Graphics/SVG/1.1/DTD/svg11.dtd">
<svg version="1.1" id="Layer_1" xmlns="http://www.w3.org/2000/svg" xmlns:xlink="http://www.w3.org/1999/xlink" x="0px" y="0px"
	 width="120px" height="45px" viewBox="0 0 120 45" enable-background="new 0 0 120 45" xml:space="preserve">
<g>
	<g>
		<path fill="#787878" d="M4.134,4.81h8.423l5.58,15.586h0.072L23.68,4.81h8.279v25.701H25.84V15.177h-0.072l-5.219,15.334h-4.896
			l-5.327-15.334h-0.072v15.334H4.134V4.81z M4.962,29.719h4.463V10.425h0.108l6.695,19.293h3.743l6.624-19.293h0.072v19.293h4.463
			V5.602h-6.875L18.172,22.88L11.981,5.602H4.962V29.719z"/>
		<path fill="#787878" d="M36.786,4.81h8.423l5.58,15.586h0.072L56.332,4.81h8.279v25.701h-6.119V15.177h-0.072L53.2,30.511h-4.896
			l-5.327-15.334h-0.072v15.334h-6.119V4.81z M37.614,29.719h4.463V10.425h0.108l6.695,19.293h3.743l6.624-19.293h0.072v19.293
			h4.463V5.602h-6.875L50.824,22.88L44.633,5.602h-7.019V29.719z"/>
		<path fill="#787878" d="M69.294,4.81h11.771c3.312,0,8.927,0.756,8.927,6.479c0,2.448-1.512,4.463-2.844,5.255
			c1.583,0.648,3.887,2.484,3.887,6.263c0,5.436-4.067,7.703-9.323,7.703H69.294V4.81z M70.122,29.719h11.59
			c4.248,0,8.495-1.656,8.495-6.911c0-4.104-3.024-5.507-4.392-6.119c1.944-1.368,3.348-2.808,3.348-5.292
			c0-5.795-6.479-5.795-8.099-5.795H70.122V29.719z M74.585,9.129h5.543c1.8,0,4.715,0,4.715,3.348c0,3.312-2.916,3.312-4.715,3.312
			h-5.543V9.129z M74.585,18.668h6.047c1.979,0,5.255,0,5.255,3.779c0,3.744-3.276,3.744-5.255,3.744h-6.047V18.668z M75.413,14.997
			h4.716c1.691,0,3.887,0,3.887-2.52c0-2.556-2.196-2.556-3.887-2.556h-4.716V14.997z M75.413,25.399h5.22
			c1.835,0,4.427,0,4.427-2.952c0-2.988-2.592-2.988-4.427-2.988h-5.22V25.399z"/>
		<path fill="#787878" d="M99.245,21.476c0.072,1.26,0.252,4.715,5.184,4.715c3.131,0,4.391-1.116,4.391-3.096
			c0-1.44-1.26-1.98-2.987-2.484l-5.832-1.656c-1.476-0.432-5.939-1.691-5.939-6.695c0-4.716,3.852-8.027,10.115-8.027
			c5.831,0,9.575,2.808,9.863,8.711h-5.976c-0.144-1.224-0.396-3.815-4.355-3.815c-1.656,0-3.671,0.576-3.671,2.556
			c0,1.152,0.612,1.656,2.016,2.052l6.983,1.908c3.167,0.864,5.903,2.808,5.903,6.875c0,4.572-2.88,8.567-10.727,8.567
			c-6.515,0-10.762-2.808-11.086-9.611H99.245z M93.954,22.268c0.288,4.572,3.527,8.027,10.258,8.027
			c6.191,0,9.899-2.844,9.899-7.775c0-4.859-4.607-5.939-6.695-6.515l-4.139-1.116c-3.204-0.864-4.067-1.512-4.067-3.204
			c0-2.556,2.627-3.348,4.499-3.348c4.32,0,4.859,2.736,5.076,3.815h4.427c-0.432-4.715-4.031-7.127-9.035-7.127
			c-6.839,0-9.287,3.78-9.287,7.235c0,3.959,2.88,5.183,5.328,5.903l5.867,1.692c3.456,1.008,3.563,2.16,3.563,3.24
			c0,2.736-2.375,3.888-5.219,3.888c-5.184,0-5.795-3.564-5.976-4.716H93.954z"/>
	</g>
	<g>
		<path fill="#787878" d="M4.9,34.323h0.7l1.73,4.384l1.723-4.384h0.7v5H9.278v-4.321H9.264l-1.709,4.321H7.106l-1.716-4.321H5.376
			v4.321H4.9V34.323z"/>
		<path fill="#787878" d="M13.589,39.323h-0.406v-0.651h-0.014c-0.231,0.483-0.708,0.756-1.247,0.756
			c-0.91,0-1.268-0.532-1.268-1.373v-2.346h0.441v2.353c0.021,0.651,0.266,0.995,0.966,0.995c0.757,0,1.086-0.714,1.086-1.45v-1.898
			h0.441V39.323z"/>
		<path fill="#787878" d="M14.427,34.323h0.441v5h-0.441V34.323z"/>
		<path fill="#787878" d="M16.416,35.709h0.735v0.371h-0.735v2.437c0,0.288,0.042,0.456,0.357,0.477
			c0.126,0,0.252-0.007,0.378-0.021v0.378c-0.133,0-0.259,0.014-0.392,0.014c-0.588,0-0.792-0.196-0.785-0.813v-2.472h-0.63v-0.371
			h0.63v-1.086h0.441V35.709z"/>
		<path fill="#787878" d="M17.794,34.323h0.441v0.707h-0.441V34.323z M17.794,35.709h0.441v3.614h-0.441V35.709z"/>
		<path fill="#787878" d="M19.083,35.709h0.406v0.686h0.014c0.203-0.49,0.708-0.792,1.289-0.792c1.1,0,1.625,0.89,1.625,1.912
			c0,1.023-0.525,1.912-1.625,1.912c-0.539,0-1.064-0.273-1.253-0.792h-0.014v2.024h-0.441V35.709z M20.791,35.976
			c-0.973,0-1.268,0.721-1.268,1.541c0,0.75,0.329,1.541,1.268,1.541c0.841,0,1.184-0.792,1.184-1.541
			C21.975,36.767,21.632,35.976,20.791,35.976z"/>
		<path fill="#787878" d="M23.107,34.323h0.441v5h-0.441V34.323z"/>
		<path fill="#787878" d="M24.353,36.816c0.042-0.848,0.638-1.212,1.464-1.212c0.638,0,1.331,0.196,1.331,1.163v1.919
			c0,0.168,0.084,0.266,0.259,0.266c0.049,0,0.105-0.014,0.14-0.028v0.372c-0.098,0.021-0.168,0.028-0.287,0.028
			c-0.449,0-0.518-0.252-0.518-0.63h-0.015c-0.308,0.469-0.623,0.735-1.316,0.735c-0.665,0-1.211-0.329-1.211-1.058
			c0-1.016,0.987-1.05,1.94-1.163c0.364-0.042,0.567-0.091,0.567-0.49c0-0.595-0.427-0.742-0.945-0.742
			c-0.546,0-0.953,0.252-0.967,0.84H24.353z M26.706,37.348h-0.014c-0.056,0.105-0.252,0.14-0.371,0.161
			c-0.75,0.133-1.681,0.126-1.681,0.833c0,0.441,0.392,0.714,0.805,0.714c0.672,0,1.268-0.427,1.261-1.135V37.348z"/>
		<path fill="#787878" d="M28.729,35.709h0.735v0.371h-0.735v2.437c0,0.288,0.042,0.456,0.357,0.477
			c0.126,0,0.252-0.007,0.378-0.021v0.378c-0.133,0-0.259,0.014-0.392,0.014c-0.588,0-0.792-0.196-0.785-0.813v-2.472h-0.63v-0.371
			h0.63v-1.086h0.441V35.709z"/>
		<path fill="#787878" d="M31.494,36.081h-0.714v3.243h-0.441v-3.243h-0.616v-0.371h0.616v-0.33
			c-0.007-0.623,0.168-1.057,0.875-1.057c0.126,0,0.231,0.007,0.372,0.028v0.378c-0.119-0.021-0.217-0.035-0.322-0.035
			c-0.49,0-0.477,0.308-0.483,0.7v0.315h0.714V36.081z"/>
		<path fill="#787878" d="M35.148,37.516c0,1.037-0.602,1.912-1.708,1.912c-1.107,0-1.709-0.875-1.709-1.912
			s0.602-1.912,1.709-1.912C34.546,35.604,35.148,36.479,35.148,37.516z M32.172,37.516c0,0.771,0.42,1.541,1.268,1.541
			c0.847,0,1.268-0.771,1.268-1.541c0-0.77-0.42-1.541-1.268-1.541C32.592,35.976,32.172,36.746,32.172,37.516z"/>
		<path fill="#787878" d="M35.805,35.709h0.406v0.847h0.014c0.224-0.581,0.714-0.924,1.366-0.896v0.441
			c-0.798-0.042-1.345,0.546-1.345,1.295v1.926h-0.441V35.709z"/>
		<path fill="#787878" d="M38.01,35.709h0.406v0.609h0.021c0.231-0.435,0.609-0.715,1.184-0.715c0.476,0,0.903,0.231,1.037,0.708
			c0.217-0.476,0.672-0.708,1.148-0.708c0.792,0,1.198,0.414,1.198,1.268v2.451h-0.442v-2.43c0-0.595-0.224-0.917-0.854-0.917
			c-0.763,0-0.981,0.63-0.981,1.303v2.045h-0.441v-2.451c0.007-0.49-0.196-0.896-0.756-0.896c-0.763,0-1.071,0.574-1.079,1.331
			v2.017H38.01V35.709z"/>
		<path fill="#787878" d="M45.857,34.323h0.7l1.73,4.384l1.723-4.384h0.7v5h-0.476v-4.321H50.22l-1.709,4.321h-0.448l-1.716-4.321
			h-0.014v4.321h-0.476V34.323z"/>
		<path fill="#787878" d="M54.853,37.516c0,1.037-0.602,1.912-1.708,1.912c-1.107,0-1.709-0.875-1.709-1.912
			s0.602-1.912,1.709-1.912C54.251,35.604,54.853,36.479,54.853,37.516z M51.876,37.516c0,0.771,0.42,1.541,1.268,1.541
			c0.847,0,1.268-0.771,1.268-1.541c0-0.77-0.42-1.541-1.268-1.541C52.297,35.976,51.876,36.746,51.876,37.516z"/>
		<path fill="#787878" d="M55.51,34.323h0.441v2.073h0.014c0.189-0.518,0.714-0.792,1.254-0.792c1.099,0,1.625,0.89,1.625,1.912
			c0,1.023-0.525,1.912-1.625,1.912c-0.582,0-1.086-0.301-1.289-0.792h-0.014v0.687H55.51V34.323z M57.219,35.976
			c-0.939,0-1.268,0.792-1.268,1.541c0,0.75,0.329,1.541,1.268,1.541c0.84,0,1.184-0.792,1.184-1.541
			C58.402,36.767,58.059,35.976,57.219,35.976z"/>
		<path fill="#787878" d="M59.535,34.323h0.441v0.707h-0.441V34.323z M59.535,35.709h0.441v3.614h-0.441V35.709z"/>
		<path fill="#787878" d="M60.83,34.323h0.441v5H60.83V34.323z"/>
		<path fill="#787878" d="M62.376,37.635c0.007,0.645,0.343,1.422,1.191,1.422c0.644,0,0.994-0.378,1.134-0.924h0.441
			c-0.189,0.819-0.666,1.295-1.576,1.295c-1.149,0-1.632-0.882-1.632-1.912c0-0.952,0.483-1.912,1.632-1.912
			c1.163,0,1.625,1.016,1.59,2.031H62.376z M64.716,37.264c-0.021-0.666-0.434-1.289-1.148-1.289c-0.722,0-1.121,0.63-1.191,1.289
			H64.716z"/>
		<path fill="#787878" d="M67.781,34.323h2.115c0.84,0,1.604,0.294,1.604,1.226c0,0.525-0.35,1.008-0.868,1.121v0.014
			c0.644,0.084,1.058,0.567,1.058,1.219c0,0.477-0.168,1.422-1.793,1.422h-2.115V34.323z M68.257,36.515h1.639
			c0.763,0,1.127-0.378,1.127-0.847c0-0.624-0.385-0.939-1.127-0.939h-1.639V36.515z M68.257,38.917h1.639
			c0.707,0.007,1.316-0.231,1.316-1.029c0-0.638-0.483-0.967-1.316-0.967h-1.639V38.917z"/>
		<path fill="#787878" d="M72.324,36.816c0.042-0.848,0.637-1.212,1.463-1.212c0.638,0,1.331,0.196,1.331,1.163v1.919
			c0,0.168,0.084,0.266,0.259,0.266c0.049,0,0.105-0.014,0.14-0.028v0.372c-0.098,0.021-0.168,0.028-0.287,0.028
			c-0.448,0-0.518-0.252-0.518-0.63h-0.014c-0.308,0.469-0.624,0.735-1.317,0.735c-0.665,0-1.211-0.329-1.211-1.058
			c0-1.016,0.987-1.05,1.94-1.163c0.364-0.042,0.567-0.091,0.567-0.49c0-0.595-0.427-0.742-0.945-0.742
			c-0.546,0-0.953,0.252-0.967,0.84H72.324z M74.677,37.348h-0.014c-0.056,0.105-0.252,0.14-0.371,0.161
			c-0.75,0.133-1.681,0.126-1.681,0.833c0,0.441,0.392,0.714,0.805,0.714c0.672,0,1.268-0.427,1.261-1.135V37.348z"/>
		<path fill="#787878" d="M75.991,35.709h0.441v0.623h0.014c0.161-0.434,0.644-0.729,1.155-0.729c1.016,0,1.324,0.533,1.324,1.394
			v2.325h-0.441v-2.255c0-0.623-0.203-1.092-0.917-1.092c-0.701,0-1.121,0.532-1.135,1.24v2.108h-0.441V35.709z"/>
		<path fill="#787878" d="M79.757,34.323h0.441v3.138l2.003-1.751h0.588l-1.541,1.337l1.646,2.276h-0.553l-1.429-1.968l-0.714,0.596
			v1.373h-0.441V34.323z"/>
		<path fill="#787878" d="M83.264,34.323h0.441v0.707h-0.441V34.323z M83.264,35.709h0.441v3.614h-0.441V35.709z"/>
		<path fill="#787878" d="M84.545,35.709h0.441v0.623h0.014c0.161-0.434,0.644-0.729,1.155-0.729c1.016,0,1.324,0.533,1.324,1.394
			v2.325h-0.441v-2.255c0-0.623-0.203-1.092-0.917-1.092c-0.701,0-1.121,0.532-1.135,1.24v2.108h-0.441V35.709z"/>
		<path fill="#787878" d="M91.365,39.029c-0.007,1.078-0.42,1.737-1.604,1.737c-0.722,0-1.436-0.322-1.499-1.093h0.441
			c0.098,0.532,0.567,0.722,1.058,0.722c0.813,0,1.163-0.483,1.163-1.366v-0.49H90.91c-0.203,0.441-0.63,0.742-1.148,0.742
			c-1.156,0-1.632-0.827-1.632-1.856c0-0.995,0.588-1.821,1.632-1.821c0.525,0,0.974,0.33,1.148,0.729h0.014v-0.623h0.441V39.029z
			 M90.924,37.474c0-0.707-0.329-1.499-1.163-1.499c-0.84,0-1.191,0.749-1.191,1.499c0,0.729,0.378,1.436,1.191,1.436
			C90.524,38.91,90.924,38.209,90.924,37.474z"/>
		<path fill="#787878" d="M94.458,37.677c-0.021,1.03,0.721,1.345,1.632,1.345c0.525,0,1.324-0.287,1.324-1.016
			c0-0.567-0.567-0.791-1.03-0.903L95.27,36.83c-0.588-0.147-1.128-0.427-1.128-1.205c0-0.49,0.315-1.408,1.723-1.408
			c0.987,0,1.856,0.533,1.849,1.555h-0.477c-0.028-0.764-0.658-1.149-1.366-1.149c-0.651,0-1.253,0.252-1.253,0.995
			c0,0.469,0.35,0.666,0.756,0.764l1.219,0.301c0.707,0.189,1.295,0.498,1.295,1.317c0,0.343-0.14,1.429-1.913,1.429
			c-1.183,0-2.051-0.532-1.996-1.751H94.458z"/>
		<path fill="#787878" d="M98.153,35.709h0.469l1.19,3.082l1.114-3.082h0.441l-1.569,4.167c-0.252,0.609-0.399,0.785-0.952,0.785
			c-0.175-0.007-0.266-0.007-0.336-0.035v-0.371c0.105,0.021,0.203,0.035,0.301,0.035c0.392,0,0.483-0.231,0.63-0.567l0.154-0.414
			L98.153,35.709z"/>
		<path fill="#787878" d="M103.964,36.767c-0.021-0.546-0.441-0.792-0.946-0.792c-0.392,0-0.854,0.154-0.854,0.623
			c0,0.393,0.448,0.532,0.75,0.609l0.588,0.133c0.504,0.077,1.03,0.371,1.03,1.001c0,0.784-0.777,1.085-1.45,1.085
			c-0.841,0-1.415-0.392-1.485-1.274h0.441c0.035,0.595,0.477,0.903,1.064,0.903c0.414,0,0.988-0.182,0.988-0.687
			c0-0.42-0.392-0.56-0.792-0.658l-0.567-0.126c-0.574-0.154-1.008-0.35-1.008-0.967c0-0.735,0.721-1.016,1.359-1.016
			c0.721,0,1.295,0.378,1.323,1.163H103.964z"/>
		<path fill="#787878" d="M105.868,35.709h0.735v0.371h-0.735v2.437c0,0.288,0.042,0.456,0.357,0.477
			c0.126,0,0.251-0.007,0.377-0.021v0.378c-0.132,0-0.259,0.014-0.392,0.014c-0.588,0-0.792-0.196-0.785-0.813v-2.472h-0.63v-0.371
			h0.63v-1.086h0.441V35.709z"/>
		<path fill="#787878" d="M107.498,37.635c0.007,0.645,0.343,1.422,1.191,1.422c0.644,0,0.995-0.378,1.134-0.924h0.441
			c-0.189,0.819-0.666,1.295-1.576,1.295c-1.149,0-1.632-0.882-1.632-1.912c0-0.952,0.483-1.912,1.632-1.912
			c1.163,0,1.625,1.016,1.59,2.031H107.498z M109.837,37.264c-0.021-0.666-0.434-1.289-1.148-1.289c-0.722,0-1.121,0.63-1.191,1.289
			H109.837z"/>
		<path fill="#787878" d="M110.872,35.709h0.406v0.609h0.021c0.231-0.435,0.609-0.715,1.184-0.715c0.476,0,0.903,0.231,1.037,0.708
			c0.217-0.476,0.672-0.708,1.148-0.708c0.792,0,1.198,0.414,1.198,1.268v2.451h-0.441v-2.43c0-0.595-0.224-0.917-0.854-0.917
			c-0.763,0-0.98,0.63-0.98,1.303v2.045h-0.441v-2.451c0.007-0.49-0.196-0.896-0.756-0.896c-0.763,0-1.071,0.574-1.079,1.331v2.017
			h-0.441V35.709z"/>
	</g>
</g>
</svg>
