<?xml version="1.0" standalone="no"?>
<!DOCTYPE svg PUBLIC "-//W3C//DTD SVG 1.1//EN" "http://www.w3.org/Graphics/SVG/1.1/DTD/svg11.dtd" >
<svg>
<metadata>
Created by FontForge 20110222 at Mon Sep  2 10:12:15 2013
 By Orthosie Webhosting
Copyright (c) 2001, Modular Infotech, Pune, INDIA. - Licenced to Microsoft
</metadata>
<defs>
<font id="Utsaah-Italic" horiz-adv-x="816" >
  <font-face 
    font-family="Utsaah"
    font-weight="400"
    font-style="italic"
    font-stretch="normal"
    units-per-em="2048"
    panose-1="2 11 6 4 2 2 2 2 2 4"
    ascent="1638"
    descent="-410"
    x-height="760"
    cap-height="1050"
    bbox="-1000 -774 2000 1500"
    underline-thickness="102"
    underline-position="-117"
    slope="-10.9999"
    unicode-range="U+0020-25CC"
  />
<missing-glyph horiz-adv-x="1600" 
d="M200 1400h1200v-1400h-1200v1400zM1300 100v1200h-1000v-1200h1000z" />
    <glyph glyph-name=".notdef" horiz-adv-x="1600" 
d="M200 1400h1200v-1400h-1200v1400zM1300 100v1200h-1000v-1200h1000z" />
    <glyph glyph-name=".null" horiz-adv-x="0" 
 />
    <glyph glyph-name="nonmarkingreturn" horiz-adv-x="0" 
 />
    <glyph glyph-name="space" unicode=" " horiz-adv-x="407" 
 />
    <glyph glyph-name="exclam" unicode="!" horiz-adv-x="407" 
d="M164 265l79 570l46 215h156l-48 -233l-152 -552h-81zM82 0l31 147h146l-31 -147h-146z" />
    <glyph glyph-name="quotedbl" unicode="&#x22;" horiz-adv-x="521" 
d="M198 678l9 196l37 176h147l-37 -176l-76 -196h-80zM435 678l9 196l37 176h147l-37 -176l-76 -196h-80z" />
    <glyph glyph-name="numbersign" unicode="#" 
d="M127 -18l62 305h-121v107h143l52 260h-195v106h217l62 308h108l-63 -308h226l62 308h108l-62 -308h124v-106h-145l-54 -260h199v-107h-221l-62 -305h-107l61 305h-225l-62 -305h-107zM318 394h225l53 260h-225z" />
    <glyph glyph-name="dollar" unicode="$" 
d="M325 -9q-104 21 -173.5 105.5t-76.5 207.5l130 7q7 -85 45.5 -139t96.5 -75l83 396q-84 37 -122 68q-53 42 -81 99t-28 118q0 113 92.5 200t229.5 87q4 0 28 -1l12 56h71l-13 -65q97 -25 153 -89t68 -170l-124 -6q-10 63 -38 101t-82 57l-75 -360q145 -60 199 -130
t54 -156q0 -81 -48.5 -163t-128 -120t-182.5 -38q-8 0 -20 1l-26 -122h-71zM455 616l73 344q-55 2 -102.5 -19.5t-73.5 -63t-26 -91.5q0 -54 27 -93.5t102 -76.5zM495 465l-79 -380q97 -3 162.5 58t65.5 146q0 55 -30 96t-119 80z" />
    <glyph glyph-name="percent" unicode="%" horiz-adv-x="1304" 
d="M205 -39l867 1107h117l-863 -1107h-121zM142 727q0 29 13.5 90t39.5 109t57.5 76.5t68.5 42t84 13.5q101 0 153 -51t52 -150q0 -82 -34.5 -174t-95 -134.5t-145.5 -42.5q-94 0 -143.5 53.5t-49.5 167.5zM253 703q0 -60 22.5 -85t60.5 -25q45 0 82 34.5t58 112t21 132.5
q0 48 -24.5 74t-63.5 26q-42 0 -77 -33.5t-57 -106t-22 -129.5zM783 182q0 29 13 90t39 109t57.5 76.5t68.5 42t84 13.5q101 0 153 -51t52 -150q0 -82 -34.5 -173.5t-95 -134.5t-145.5 -43q-94 0 -143 53t-49 168zM893 158q0 -60 22.5 -85.5t60.5 -25.5q45 0 81.5 35t58 112
t21.5 132q0 49 -24.5 75t-63.5 26q-42 0 -77 -33.5t-57 -105.5t-22 -130z" />
    <glyph glyph-name="ampersand" unicode="&#x26;" horiz-adv-x="978" 
d="M727 102q-89 -73 -152.5 -99t-141.5 -26q-143 0 -230.5 84t-87.5 212q0 83 32.5 146.5t97.5 115.5q49 39 146 82q-37 83 -45 110q-10 41 -10 86q0 61 33.5 122.5t95 97t134.5 35.5q101 0 162.5 -59t61.5 -143q0 -71 -53 -140.5t-208 -147.5q94 -170 180 -279
q53 64 100 150l113 -58q-47 -100 -131 -195q47 -59 121 -143l-97 -78q-73 62 -121 127zM515 674q105 54 150 111q32 38 32 78q0 43 -29 72t-71 29q-50 0 -88.5 -40.5t-38.5 -96.5q0 -68 45 -153zM652 202q-134 175 -208 314q-97 -46 -139 -89q-58 -60 -58 -139
q0 -82 55.5 -138t135.5 -56q108 0 214 108z" />
    <glyph glyph-name="quotesingle" unicode="'" horiz-adv-x="280" 
d="M186 678l9 196l37 176h147l-37 -176l-76 -196h-80z" />
    <glyph glyph-name="parenleft" unicode="(" horiz-adv-x="488" 
d="M236 -309q-112 247 -112 507q0 173 45.5 322t138.5 296q61 97 197 252h101q-84 -90 -177.5 -252.5t-135.5 -319.5t-42 -315q0 -236 82 -490h-97z" />
    <glyph glyph-name="parenright" unicode=")" horiz-adv-x="488" 
d="M291 1068q113 -247 113 -506q0 -174 -45.5 -323t-138.5 -296q-62 -97 -197 -252h-101q83 91 177 253.5t135.5 319t41.5 315.5q0 236 -82 489h97z" />
    <glyph glyph-name="asterisk" unicode="*" horiz-adv-x="571" 
d="M169 857l33 102q114 -40 165 -70q-13 130 -14 179h104q-2 -71 -17 -178q74 37 169 69l33 -102q-91 -30 -178 -40q44 -38 123 -135l-86 -61q-41 56 -98 154q-53 -101 -93 -154l-84 61q83 102 118 135q-92 18 -175 40z" />
    <glyph glyph-name="plus" unicode="+" horiz-adv-x="856" 
d="M417 170v288h-285v120h285v285h122v-285h286v-120h-286v-288h-122z" />
    <glyph glyph-name="comma" unicode="," horiz-adv-x="407" 
d="M79 0l31 147h148l-27 -128q-24 -116 -75 -169.5t-121 -61.5l12 57q85 23 113 155h-81z" />
    <glyph glyph-name="hyphen" unicode="-" horiz-adv-x="488" 
d="M68 315l27 130h395l-26 -130h-396z" />
    <glyph glyph-name="period" unicode="." horiz-adv-x="407" 
d="M84 0l31 147h147l-31 -147h-147z" />
    <glyph glyph-name="slash" unicode="/" horiz-adv-x="407" 
d="M-74 -17l564 1085h112l-564 -1085h-112z" />
    <glyph glyph-name="zero" unicode="0" 
d="M104 344q0 134 39.5 271.5t88.5 219.5t101 128.5t102.5 68.5t112.5 22q120 0 200.5 -89.5t80.5 -258.5q0 -174 -56 -344q-66 -202 -183 -303q-90 -77 -206 -77q-118 0 -199 93t-81 269zM229 311q0 -96 32 -151q44 -75 130 -75q75 0 137 68q88 96 133 281t45 303
q0 113 -43.5 163t-114.5 50q-51 0 -96 -26.5t-85 -90.5q-58 -91 -101 -272q-37 -155 -37 -250z" />
    <glyph glyph-name="one" unicode="1" 
d="M353 0l166 793q-107 -85 -302 -136l24 118q97 38 191 100.5t142 109.5q28 28 54 69h75l-220 -1054h-130z" />
    <glyph glyph-name="two" unicode="2" 
d="M86 0q20 94 55.5 157.5t94 120t226.5 190.5q101 81 139 120q53 56 78 109q16 37 16 80q0 72 -51 122.5t-126 50.5q-73 0 -128.5 -51t-78.5 -164l-127 18q19 140 108.5 220.5t223.5 80.5q90 0 162.5 -37.5t109 -104.5t36.5 -139q0 -104 -74 -201q-46 -60 -270 -237
q-96 -76 -142.5 -124.5t-70.5 -91.5h470l-25 -119h-626z" />
    <glyph glyph-name="three" unicode="3" 
d="M80 275l126 16q15 -111 64 -158.5t128 -47.5q96 0 166 69t70 157q0 78 -52.5 128.5t-140.5 50.5q-10 0 -41 -3l22 108q18 -3 36 -3q111 0 170.5 54t59.5 133q0 72 -49 121.5t-120 49.5q-69 0 -124.5 -50.5t-71.5 -142.5l-128 26q32 129 121.5 200t211.5 71q129 0 209 -78
t80 -192q0 -83 -43.5 -145t-129.5 -103q61 -36 91.5 -87.5t30.5 -118.5q0 -141 -105.5 -244.5t-252.5 -103.5q-142 0 -230 80t-98 213z" />
    <glyph glyph-name="four" unicode="4" 
d="M438 0l57 268h-428l27 128l588 654h106l-140 -668h147l-23 -114h-148l-56 -268h-130zM518 382l92 439l-391 -439h299z" />
    <glyph glyph-name="five" unicode="5" 
d="M102 300l132 13q-1 -28 -1 -34q0 -47 24 -95t65 -73.5t87 -25.5q60 0 122.5 41.5t101 121t38.5 157.5q0 88 -52 141t-136 53q-57 0 -107.5 -27t-94.5 -82l-113 8l158 537h513l-25 -119h-399l-78 -267q44 33 91 49t96 16q120 0 197.5 -79.5t77.5 -217.5q0 -121 -53 -223
t-145.5 -157t-200.5 -55q-90 0 -159.5 41t-104 112.5t-34.5 143.5v21z" />
    <glyph glyph-name="six" unicode="6" 
d="M295 609q54 45 108.5 67.5t107.5 22.5q119 0 197 -81.5t78 -220.5q0 -178 -116 -305q-100 -110 -243 -110q-131 0 -218 95.5t-87 272.5q0 158 56 327q43 130 106.5 214t134.5 123.5t161 39.5q107 0 175 -67t78 -192l-121 -11q-10 85 -48 123t-93 38q-58 0 -117 -45
t-101 -133.5t-58 -157.5zM250 295q0 -89 55 -149.5t125 -60.5q48 0 102.5 37t92.5 112t38 150q0 96 -52.5 153.5t-127.5 57.5q-86 0 -159.5 -84t-73.5 -216z" />
    <glyph glyph-name="seven" unicode="7" 
d="M213 0q17 106 73 255q66 180 174.5 357t240.5 304h-523l25 119h670l-25 -119q-170 -149 -297 -385q-149 -273 -203 -531h-135z" />
    <glyph glyph-name="eight" unicode="8" 
d="M331 577q-59 32 -88.5 82.5t-29.5 108.5q0 95 69 176q92 110 249 110q138 0 217.5 -74t79.5 -182q0 -76 -43 -137.5t-135 -98.5q63 -39 90 -84q35 -58 35 -135q0 -141 -99.5 -251.5t-265.5 -110.5q-133 0 -216.5 82t-83.5 204q0 115 59 198t162 112zM341 763
q0 -68 43 -109t119 -41q89 0 144.5 54t55.5 133q0 66 -43.5 108t-118.5 42q-58 0 -106 -26.5t-71 -72t-23 -88.5zM240 256q0 -43 21 -83.5t64 -64t98 -23.5q105 0 171 99q51 77 51 167q0 73 -47.5 119.5t-124.5 46.5q-98 0 -165.5 -72.5t-67.5 -188.5z" />
    <glyph glyph-name="nine" unicode="9" 
d="M99 241l122 12q12 -88 50 -125.5t90 -37.5q74 0 138 65q94 94 138 271q-65 -49 -115.5 -69.5t-103.5 -20.5q-96 0 -172 64q-100 84 -100 241q0 177 116 304q100 109 244 109q131 0 216.5 -96.5t85.5 -272.5q0 -171 -57 -338q-68 -196 -184 -289q-94 -76 -213 -76
q-108 0 -177.5 67.5t-77.5 191.5zM271 656q0 -99 53 -157.5t125 -58.5q54 0 107 36.5t90.5 109t37.5 149.5q0 60 -25 111.5t-68 77.5t-88 26q-43 0 -84.5 -23t-77 -67t-53 -102t-17.5 -102z" />
    <glyph glyph-name="colon" unicode=":" horiz-adv-x="407" 
d="M212 614l31 146h146l-30 -146h-147zM84 0l31 147h146l-31 -147h-146z" />
    <glyph glyph-name="semicolon" unicode=";" horiz-adv-x="407" 
d="M208 614l30 146h146l-30 -146h-146zM79 0l31 147h148l-27 -128q-24 -116 -75 -169.5t-121 -61.5l12 57q85 23 113 155h-81z" />
    <glyph glyph-name="less" unicode="&#x3c;" horiz-adv-x="856" 
d="M132 459v120l695 294v-128l-551 -227l551 -228v-128z" />
    <glyph glyph-name="equal" unicode="=" horiz-adv-x="856" 
d="M825 617h-693v120h693v-120zM825 299h-693v120h693v-120z" />
    <glyph glyph-name="greater" unicode="&#x3e;" horiz-adv-x="856" 
d="M827 459l-695 -297v128l550 228l-550 227v128l695 -294v-120z" />
    <glyph glyph-name="question" unicode="?" 
d="M307 263q7 65 29.5 115.5t68.5 103.5q27 30 128 112t131 132.5t30 93.5q0 57 -47.5 100.5t-123.5 43.5q-81 0 -135 -51.5t-72 -171.5l-130 22q31 153 119.5 229t214.5 76q86 0 157.5 -35.5t108 -96t36.5 -125.5q0 -80 -53 -152q-39 -55 -177 -164q-94 -76 -122.5 -119
t-39.5 -113h-123zM243 0l31 147h147l-31 -147h-147z" />
    <glyph glyph-name="at" unicode="@" horiz-adv-x="1489" 
d="M831 117q-46 -54 -104 -86.5t-116 -32.5q-63 0 -123.5 37t-98 114.5t-37.5 169.5q0 114 58.5 228.5t145 171.5t168.5 57q62 0 118.5 -32.5t97.5 -99.5l24 111h129l-103 -480q-22 -100 -22 -111q0 -19 14.5 -33t35.5 -14q38 0 100 43q81 58 129 154t48 199
q0 119 -61.5 223t-183 166t-267.5 62q-168 0 -306.5 -78t-215 -224.5t-76.5 -314.5q0 -175 76.5 -302t221 -187.5t319.5 -60.5q188 0 314.5 63t189.5 154h130q-37 -76 -126 -154t-211 -123.5t-295 -45.5q-159 0 -293 41t-228.5 123t-142.5 189q-61 135 -61 292q0 175 72 333
q87 194 248 297t390 103q178 0 319 -72.5t223 -216.5q69 -124 69 -269q0 -208 -146 -369q-130 -145 -285 -145q-49 0 -79.5 15t-44.5 43q-9 18 -14 62zM485 311q0 -98 46.5 -152.5t106.5 -54.5q40 0 84.5 24t85 71t66 120t25.5 146q0 97 -48 150.5t-118 53.5
q-46 0 -86.5 -23t-78 -74.5t-60.5 -125.5t-23 -135z" />
    <glyph glyph-name="bracketleft" unicode="[" horiz-adv-x="407" 
d="M9 -287l276 1337h289l-21 -100h-157l-238 -1138h158l-20 -99h-287z" />
    <glyph glyph-name="backslash" unicode="\" horiz-adv-x="407" 
d="M301 -17l-176 1085h100l176 -1085h-100z" />
    <glyph glyph-name="bracketright" unicode="]" horiz-adv-x="407" 
d="M200 -287h-286l21 99h158l238 1138h-158l21 100h289z" />
    <glyph glyph-name="asciicircum" unicode="^" horiz-adv-x="688" 
d="M236 494h-133l253 574h104l254 -574h-130l-177 427z" />
    <glyph glyph-name="underscore" unicode="_" 
d="M-93 -291v93h854v-93h-854z" />
    <glyph glyph-name="grave" unicode="`" horiz-adv-x="488" 
d="M353 853l-140 197h158l83 -197h-101z" />
    <glyph glyph-name="braceleft" unicode="{" horiz-adv-x="490" 
d="M102 438q55 2 95.5 29.5t66.5 85.5q20 43 46.5 162.5t40.5 162.5q19 59 46 96t57.5 57t75.5 31q25 6 83 6h40l-24 -113h-23q-60 0 -87 -14.5t-41.5 -46.5t-37.5 -139q-30 -141 -56 -204t-65 -102t-111 -70q52 -23 76.5 -63.5t24.5 -107.5q0 -55 -32 -204
q-23 -104 -23 -131q0 -28 11 -43q8 -13 27.5 -19.5t86.5 -6.5l-25 -113h-39q-67 0 -94 10q-42 14 -65.5 48t-23.5 90q0 49 33 205q25 118 25 159q0 58 -29 87.5t-84 30.5z" />
    <glyph glyph-name="bar" unicode="|" horiz-adv-x="381" 
d="M135 -309v1377h112v-1377h-112z" />
    <glyph glyph-name="braceright" unicode="}" horiz-adv-x="490" 
d="M453 438l-25 -117q-54 -1 -95.5 -29t-64 -78t-49 -170t-39.5 -160q-20 -61 -47 -98t-58 -57.5t-76 -31.5q-24 -6 -82 -6h-40l24 113h22q61 0 88 15t43 51q13 26 36 134q29 136 50 188q28 73 71.5 117.5t109.5 69.5q-55 30 -77.5 67.5t-22.5 105.5q0 55 32 203
q23 104 23 132q0 37 -20 52.5t-83 15.5h-22l24 113h40q67 0 94 -10q43 -14 66 -47.5t23 -90.5q0 -47 -24 -159q-34 -165 -34 -205q0 -58 28.5 -87t84.5 -31z" />
    <glyph glyph-name="asciitilde" unicode="~" horiz-adv-x="856" 
d="M117 399v147q76 86 199 86q43 0 90.5 -13t134.5 -50q50 -21 74.5 -27t49.5 -6q47 0 96.5 27.5t88.5 70.5v-152q-46 -43 -93 -62.5t-105 -19.5q-43 0 -82 10t-124 48t-142 38q-46 0 -86 -19.5t-101 -77.5z" />
    <glyph glyph-name="cent" unicode="&#xa2;" 
d="M242 19q-132 78 -132 268q0 125 49.5 245t142 183t209.5 63q22 0 44 -3l120 289l76 -32l-115 -279q69 -29 105 -86.5t36 -140.5l-128 -9q0 46 -14 75.5t-44 51.5l-231 -558q17 -3 30 -3q63 0 121 48t90 146l130 -14q-49 -142 -138.5 -211t-204.5 -69q-34 0 -67 7
l-117 -281l-77 33zM287 129l225 542h-12q-80 0 -137 -50t-89.5 -151t-32.5 -190q0 -101 46 -151z" />
    <glyph glyph-name="multiply" unicode="&#xd7;" horiz-adv-x="856" 
d="M187 293l225 225l-224 225l87 88l225 -225l224 224l86 -87l-224 -224l225 -225l-87 -87l-225 225l-225 -226z" />
    <glyph glyph-name="divide" unicode="&#xf7;" horiz-adv-x="805" 
d="M364 660v147h147v-147h-147zM785 458h-693v120h693v-120zM364 228v147h147v-147h-147z" />
    <glyph glyph-name="u0901" unicode="&#x901;" horiz-adv-x="0" 
d="M-82 1405q0 36 20 60.5t60 24.5q54 0 54 -45q0 -34 -19.5 -59.5t-60.5 -25.5q-54 0 -54 45zM287 1410q-44 -117 -142.5 -193.5t-212.5 -76.5q-115 0 -180 75t-65 195h100q0 -84 41.5 -137t119.5 -53q75 0 141 54t98 136h100z" />
    <glyph glyph-name="u0902" unicode="&#x902;" horiz-adv-x="0" 
d="M-99 1299q0 36 20.5 60.5t60.5 24.5q54 0 54 -45q0 -34 -19.5 -59.5t-61.5 -25.5q-54 0 -54 45z" />
    <glyph glyph-name="u0903" unicode="&#x903;" horiz-adv-x="510" 
d="M184 685q0 50 36.5 92.5t88.5 42.5q42 0 66 -24.5t24 -60.5q0 -54 -40.5 -94.5t-94.5 -40.5q-38 0 -59 25t-21 60zM94 245q0 50 37 92.5t89 42.5q41 0 65.5 -24.5t24.5 -60.5q0 -54 -40.5 -94.5t-94.5 -40.5q-39 0 -60 25t-21 60z" />
    <glyph glyph-name="u0905" unicode="&#x905;" horiz-adv-x="1154" 
d="M1224 910h-143l-185 -910h-100l92 450q-56 -40 -114 -40q-75 0 -118 30q22 -21 22 -64q0 -110 -91.5 -208t-216.5 -98q-252 0 -352 380l82 42q88 -322 291 -322q72 0 129.5 59.5t57.5 143.5q0 59 -35.5 103t-100.5 44q-46 0 -104 -20l-22 90q94 9 181 68t87 146
q0 42 -24.5 74t-68.5 32q-121 0 -268 -140l-56 70q143 160 343 160q82 0 130 -52t48 -126q0 -136 -132 -232q117 -90 212 -90q71 0 140 50l73 360h-180l19 90h423z" />
    <glyph glyph-name="u0906" unicode="&#x906;" horiz-adv-x="1566" 
d="M1636 910h-143l-185 -910h-100l185 910h-310l-185 -910h-100l92 450q-56 -40 -116 -40q-75 0 -118 30q22 -21 22 -64q0 -110 -91.5 -208t-216.5 -98q-252 0 -352 380l82 42q88 -322 291 -322q72 0 129.5 59.5t57.5 143.5q0 59 -35.5 103t-100.5 44q-46 0 -104 -20l-22 90
q94 9 181 68t87 146q0 42 -24.5 74t-68.5 32q-121 0 -268 -140l-56 70q143 160 343 160q82 0 130 -52t48 -126q0 -136 -132 -232q117 -90 212 -90q73 0 142 50l73 360h-180l19 90h833zM1154 0z" />
    <glyph glyph-name="u0907" unicode="&#x907;" horiz-adv-x="756" 
d="M827 910h-147l-53 -260h-360q-68 0 -68 -48q-1 -34 47.5 -93t80.5 -59q36 0 105 25t105 25q52 0 81 -37.5t29 -90.5q0 -60 -38.5 -140.5t-116 -141t-171.5 -60.5q55 -109 212 -190l-67 -80q-189 124 -265 270q-82 0 -148.5 30.5t-66.5 82.5q0 45 36.5 81t85.5 36
q125 0 180 -150q105 0 181.5 84t76.5 168q0 38 -29 38q-36 0 -106 -25q-69 -25 -105 -25q-63 0 -137 88.5t-74 151.5q0 65 61 112.5t134 47.5h248l32 160h-578l19 90h835zM705 999z" />
    <glyph glyph-name="u0908" unicode="&#x908;" horiz-adv-x="756" 
d="M827 910h-147l-53 -260h-360q-68 0 -68 -48q-1 -34 47.5 -93t80.5 -59q36 0 105 25t105 25q52 0 81 -37.5t29 -90.5q0 -60 -38.5 -140.5t-116 -141t-171.5 -60.5q55 -109 212 -190l-67 -80q-189 124 -265 270q-82 0 -148.5 30.5t-66.5 82.5q0 45 36.5 81t85.5 36
q125 0 180 -150q105 0 181.5 84t76.5 168q0 38 -29 38q-36 0 -106 -25q-69 -25 -105 -25q-63 0 -137 88.5t-74 151.5q0 65 61 112.5t134 47.5h248l32 160h-578l19 90h835zM705 999zM878 1310q-76 30 -104 30q-67 0 -120 -51t-52 -126q0 -93 103 -163h-130q-74 75 -74 159
q0 103 87 182t202 79q54 0 106 -20z" />
    <glyph glyph-name="u0909" unicode="&#x909;" horiz-adv-x="948" 
d="M1018 910h-187q33 -48 33 -109q0 -63 -34 -136.5t-112 -114.5q99 -38 99 -171q0 -142 -102 -245.5t-233 -103.5q-158 0 -266.5 165.5t-157.5 454.5l90 36q42 -260 133.5 -408t221.5 -148q81 0 146.5 67.5t65.5 162.5q0 59 -32.5 104.5t-92.5 45.5h-200l-22 90h220
q68 0 121 56.5t53 126.5q0 68 -61 127h-710l19 90h1027z" />
    <glyph glyph-name="u090A" unicode="&#x90a;" horiz-adv-x="1384" 
d="M1454 910h-623q33 -48 33 -109q0 -63 -34 -136.5t-112 -114.5q62 -22 84 -88l2 -4q112 172 276 172q96 0 156 -55.5t61 -134.5q0 -83 -57 -191.5t-186 -188.5l-50 74q100 52 145 139.5t46 147.5q0 50 -37.5 84.5t-95.5 34.5q-68 0 -137 -66.5t-115 -160.5l-1 -3
q-18 -105 -112 -192.5t-215 -87.5q-158 0 -266.5 165.5t-157.5 454.5l90 36q42 -260 133.5 -408t221.5 -148q81 0 146.5 67.5t65.5 162.5q0 59 -32.5 104.5t-92.5 45.5h-200l-22 90h220q68 0 121 56.5t53 126.5q0 68 -61 127h-710l19 90h1463zM948 0z" />
    <glyph glyph-name="u090B" unicode="&#x90b;" horiz-adv-x="1298" 
d="M1368 910h-543l-73 -360q40 -20 106 -20q52 0 72 10q-15 30 -15 61q0 56 40.5 82.5t89.5 26.5q40 0 65.5 -23t26.5 -56q-1 -29 -20 -70.5t-65 -60.5q118 -148 118 -276q0 -104 -72.5 -174t-161.5 -70q-63 0 -104 42t-45 108l98 40v-9q0 -81 72 -81q43 0 77.5 33.5
t34.5 101.5q0 119 -125 245q-48 -20 -104 -20q-74 0 -106 20l-94 -460h-100l78 380l-449 -190l-44 80l427 180l-88 110q-72 90 -132 90q-84 0 -250 -100l-46 70q199 120 315 120q90 0 161 -90l128 -160l85 420h-734l19 90h1377z" />
    <glyph glyph-name="u090C" unicode="&#x90c;" horiz-adv-x="1056" 
d="M863 910l-44 -220q76 -25 114.5 -90t38.5 -148q0 -140 -92.5 -252t-209.5 -140q-77 -18 -131 -71t-54 -114q0 -45 35.5 -75t90.5 -30q119 0 201 50l11 -90q-96 -60 -232 -60q-92 0 -150.5 52.5t-57.5 130.5q0 99 76 183.5t190 103.5q84 14 152 100t68 187q0 66 -33 114.5
t-98 48.5t-135 -79t-120 -191l-94 30q31 72 79 140q-41 100 -140 100q-77 0 -135.5 -76t-58.5 -169q0 -81 50.5 -152.5t140.5 -112.5l-57 -80q-109 51 -172.5 140.5t-63.5 190.5q0 133 94.5 246t222.5 113q125 0 185 -120q82 99 185 120l44 220h-772l19 90h1135l-19 -90
h-263z" />
    <glyph glyph-name="u090D" unicode="&#x90d;" horiz-adv-x="730" 
d="M800 910h-93l-59 -292q-39 -187 -164 -218l-46 70q84 22 110 150l59 290h-340l-77 -380q-5 -25 -5 -45q0 -51 29 -85l282 -330q34 -40 45.5 -62t11.5 -44q0 -40 -35 -83t-114 -71l-66 70q105 16 105 82q0 28 -27 58l-301 340q-32 36 -32 109q0 28 6 57l78 384h-176l19 90
h809zM857 1400q-43 -116 -142 -193t-213 -77q-115 0 -180 76t-65 194h100q-2 -73 40.5 -131.5t120.5 -58.5q75 0 141 54t98 136h100z" />
    <glyph glyph-name="u090E" unicode="&#x90e;" horiz-adv-x="730" 
d="M800 910h-93l-59 -292q-39 -187 -164 -218l-46 70q84 22 110 150l59 290h-340l-77 -380q-5 -25 -5 -45q0 -51 29 -85l282 -330q34 -40 45.5 -62t11.5 -44q0 -40 -35 -83t-114 -71l-66 70q105 16 105 82q0 28 -27 58l-301 340q-32 36 -32 109q0 28 6 57l78 384h-176l19 90
h809zM727 1000h-100q5 24 5 46q0 66 -44.5 115t-118.5 49q-109 0 -177 72.5t-68 185.5v12h100v-8q0 -79 44.5 -130.5t117.5 -51.5q110 0 178.5 -67t68.5 -162q0 -29 -6 -61z" />
    <glyph glyph-name="u090F" unicode="&#x90f;" horiz-adv-x="730" 
d="M800 910h-93l-59 -292q-39 -187 -164 -218l-46 70q84 22 110 150l59 290h-340l-77 -380q-5 -25 -5 -45q0 -51 29 -85l282 -330q34 -40 45.5 -62t11.5 -44q0 -40 -35 -83t-114 -71l-66 70q105 16 105 82q0 28 -27 58l-301 340q-32 36 -32 109q0 28 6 57l78 384h-176l19 90
h809z" />
    <glyph glyph-name="u0910" unicode="&#x910;" horiz-adv-x="730" 
d="M800 910h-93l-59 -292q-39 -187 -164 -218l-46 70q84 22 110 150l59 290h-340l-77 -380q-5 -25 -5 -45q0 -51 29 -85l282 -330q34 -40 45.5 -62t11.5 -44q0 -40 -35 -83t-114 -71l-66 70q105 16 105 82q0 28 -27 58l-301 340q-32 36 -32 109q0 28 6 57l78 384h-176l19 90
h809zM719 1000h-100l-281 440l82 60z" />
    <glyph glyph-name="u0911" unicode="&#x911;" horiz-adv-x="1566" 
d="M1636 910h-143l-185 -910h-100l185 910h-310l-185 -910h-100l92 450q-56 -40 -116 -40q-75 0 -118 30q22 -21 22 -64q0 -110 -91.5 -208t-216.5 -98q-252 0 -352 380l82 42q88 -322 291 -322q72 0 129.5 59.5t57.5 143.5q0 59 -35.5 103t-100.5 44q-46 0 -104 -20l-22 90
q94 9 181 68t87 146q0 42 -24.5 74t-68.5 32q-121 0 -268 -140l-56 70q143 160 343 160q82 0 130 -52t48 -126q0 -136 -132 -232q117 -90 212 -90q73 0 142 50l73 360h-180l19 90h833zM1154 0zM1574 1400q-43 -116 -142 -193t-213 -77q-115 0 -180 76t-65 194h100
q-2 -73 40.5 -131.5t120.5 -58.5q75 0 141 54t98 136h100z" />
    <glyph glyph-name="u0912" unicode="&#x912;" horiz-adv-x="1566" 
d="M1636 910h-143l-185 -910h-100l185 910h-310l-185 -910h-100l92 450q-56 -40 -116 -40q-75 0 -118 30q22 -21 22 -64q0 -110 -91.5 -208t-216.5 -98q-252 0 -352 380l82 42q88 -322 291 -322q72 0 129.5 59.5t57.5 143.5q0 59 -35.5 103t-100.5 44q-46 0 -104 -20l-22 90
q94 9 181 68t87 146q0 42 -24.5 74t-68.5 32q-121 0 -268 -140l-56 70q143 160 343 160q82 0 130 -52t48 -126q0 -136 -132 -232q117 -90 212 -90q73 0 142 50l73 360h-180l19 90h833zM1154 0zM1513 1000h-100q5 24 5 46q0 66 -44.5 115t-118.5 49q-109 0 -177 72.5
t-68 185.5v12h100v-8q0 -79 44.5 -130.5t117.5 -51.5q110 0 178.5 -67t68.5 -162q0 -29 -6 -61z" />
    <glyph glyph-name="u0913" unicode="&#x913;" horiz-adv-x="1566" 
d="M1636 910h-143l-185 -910h-100l185 910h-310l-185 -910h-100l92 450q-56 -40 -116 -40q-75 0 -118 30q22 -21 22 -64q0 -110 -91.5 -208t-216.5 -98q-252 0 -352 380l82 42q88 -322 291 -322q72 0 129.5 59.5t57.5 143.5q0 59 -35.5 103t-100.5 44q-46 0 -104 -20l-22 90
q94 9 181 68t87 146q0 42 -24.5 74t-68.5 32q-121 0 -268 -140l-56 70q143 160 343 160q82 0 130 -52t48 -126q0 -136 -132 -232q117 -90 212 -90q73 0 142 50l73 360h-180l19 90h833zM1154 0zM1513 1000h-100l-281 440l82 60z" />
    <glyph glyph-name="u0914" unicode="&#x914;" horiz-adv-x="1566" 
d="M1636 910h-143l-185 -910h-100l185 910h-310l-185 -910h-100l92 450q-56 -40 -116 -40q-75 0 -118 30q22 -21 22 -64q0 -110 -91.5 -208t-216.5 -98q-252 0 -352 380l82 42q88 -322 291 -322q72 0 129.5 59.5t57.5 143.5q0 59 -35.5 103t-100.5 44q-46 0 -104 -20l-22 90
q94 9 181 68t87 146q0 42 -24.5 74t-68.5 32q-121 0 -268 -140l-56 70q143 160 343 160q82 0 130 -52t48 -126q0 -136 -132 -232q117 -90 212 -90q73 0 142 50l73 360h-180l19 90h833zM1154 0zM1512 1000h-130l-375 270l78 90l369 -350l-123 430l112 60z" />
    <glyph glyph-name="u0915" unicode="&#x915;" horiz-adv-x="1126" 
d="M1196 910h-501l-55 -270q94 120 235 120q87 0 134.5 -61t47.5 -143q-1 -98 -63.5 -209t-206.5 -217l-78 60q136 86 191 178t55 166q-1 51 -26 88.5t-74 37.5q-74 0 -143 -54.5t-106 -135.5l-96 -470h-100l61 300q-95 -90 -218 -90q-97 0 -155 60.5t-58 144.5
q0 133 110 239t255 106q76 0 96 -20l-41 -100q-31 20 -75 20q-96 0 -169.5 -69.5t-73.5 -154.5q0 -52 35.5 -89t95.5 -37q127 0 227 130l95 470h-604l19 90h1205z" />
    <glyph glyph-name="u0916" unicode="&#x916;" horiz-adv-x="1240" 
d="M1310 910h-143l-185 -910h-100l41 200q-181 -200 -421 -200q-185 0 -300.5 190t-134.5 470l88 40q19 -140 111 -140q37 0 66.5 39.5t40.5 90.5l44 220h-426l19 90h1319zM949 330l17 80q-97 -70 -175 -70q-88 0 -144.5 50t-56.5 122q0 102 87 180t202 78q75 0 124 -30
l-21 -100q-75 30 -123 30q-65 0 -115.5 -40t-50.5 -97q0 -40 34 -66.5t85 -26.5q63 0 176 80l79 390h-550l-44 -220q-19 -90 -83.5 -160t-143.5 -70q-25 0 -48 10q26 -166 112 -273t211 -107q243 0 428 240z" />
    <glyph glyph-name="u0917" unicode="&#x917;" horiz-adv-x="778" 
d="M848 910h-143l-185 -910h-100l185 910h-250l-99 -490q-13 -60 -63 -60q-39 0 -96.5 87.5t-57.5 131.5q0 51 49 51h70q40 0 51 50l46 230h-264l19 90h857z" />
    <glyph glyph-name="u0918" unicode="&#x918;" horiz-adv-x="956" 
d="M1026 910h-143l-185 -910h-100l65 320q-180 -150 -340 -150q-106 0 -175.5 58t-68.5 144q0 150 151 228q-50 19 -77.5 60t-27.5 91q0 85 78 159h-212l19 90h1035zM690 450l93 460h-460q-49 -25 -72.5 -64.5t-23.5 -78.5q0 -46 42 -76.5t104 -30.5h130l11 -90h-90
q-95 0 -169 -51t-74 -125q-1 -53 46.5 -88.5t115.5 -35.5q160 0 347 180z" />
    <glyph glyph-name="u0919" unicode="&#x919;" horiz-adv-x="1078" 
d="M1148 910h-283l-53 -260h-370q-37 0 -37 -43q0 -42 43 -99.5t84 -57.5q32 0 94 20t94 20q56 0 88.5 -37t32.5 -87q0 -56 -39 -136t-129 -145t-199 -65q-164 0 -286 120.5t-174 319.5l90 50q47 -175 150.5 -282.5t240.5 -107.5q100 0 172 79.5t73 151.5q0 39 -40 39
q-33 0 -95 -20q-61 -20 -94 -20q-73 0 -140.5 84t-67.5 157q0 66 49.5 112.5t110.5 46.5h270l32 160h-774l19 90h1157zM920 545q0 36 20 60.5t60 24.5q54 0 54 -45q0 -34 -19.5 -59.5t-60.5 -25.5q-54 0 -54 45zM950 0z" />
    <glyph glyph-name="u091A" unicode="&#x91a;" horiz-adv-x="958" 
d="M1028 910h-143l-185 -910h-100l73 360q-164 -180 -306 -180q-90 0 -143.5 56t-53.5 133q0 66 37.5 146t122.5 125h-290l21 100h590l-21 -100h-140q-119 -42 -168 -114.5t-49 -134.5q0 -46 31 -78.5t83 -32.5q136 0 317 230l81 400h-794l19 90h1037z" />
    <glyph glyph-name="u091B" unicode="&#x91b;" horiz-adv-x="1066" 
d="M1136 910h-223l-30 -150q64 -13 97.5 -59t34.5 -105q-1 -96 -78.5 -213t-243 -225t-325.5 -108q-123 0 -205.5 66t-82.5 163q0 66 38 147t124 134q-123 63 -123 164q0 46 24 101.5t70 84.5h-222l19 90h1145zM783 760l30 150h-480q-113 -81 -113 -175q0 -49 44.5 -82
t109.5 -33h110l-20 -100h-80q-81 0 -141.5 -73t-60.5 -148q0 -63 60.5 -106t146.5 -43q129 0 270 100q-87 110 -87 226q0 103 60 185t151 99zM910 550q3 12 3 23q-1 37 -29 62t-71 25q-56 0 -98.5 -47t-42.5 -130q0 -94 73 -153q137 86 165 220z" />
    <glyph glyph-name="u091C" unicode="&#x91c;" horiz-adv-x="1094" 
d="M1164 910h-143l-185 -910h-100l122 600h-240q39 -75 39 -162q0 -143 -84 -230.5t-192 -87.5q-114 0 -199 148.5t-124 381.5l99 40q34 -205 98 -337.5t146 -132.5q59 0 106.5 51.5t47.5 154.5q0 140 -106 274h430l42 210h-930l19 90h1173z" />
    <glyph glyph-name="u091D" unicode="&#x91d;" horiz-adv-x="1098" 
d="M1168 910h-143l-185 -910h-100l82 400q-74 -30 -136 -30q-54 0 -106 20q-49 -237 -307 -280q85 -84 147 -110l-64 -70q-120 62 -189 150q-66 0 -117 28.5t-51 73.5q0 38 24 68t74 30q94 0 140 -100q110 21 175.5 84t65.5 127q0 39 -40 39q-31 0 -89 -20q-59 -20 -89 -20
q-56 0 -114 84.5t-58 144.5q0 62 56 106.5t123 44.5h250l28 140h-554l19 90h1177zM842 500l83 410h-280l-48 -240h-350q-58 0 -58 -44q0 -35 29.5 -85.5t61.5 -50.5q31 0 89 20t89 20q58 0 94 -30q48 -40 152 -40q44 0 138 40z" />
    <glyph glyph-name="u091E" unicode="&#x91e;" horiz-adv-x="1108" 
d="M1178 910h-143l-185 -910h-100l90 440q-88 -30 -146 -30q-44 0 -94 30q-43 -112 -139 -186t-204 -74q-169 0 -261 190l84 70q58 -160 197 -160q89 0 162 73t73 165q0 53 -34.5 92.5t-95.5 39.5q-102 0 -186 -80l-54 80q121 100 261 100q91 0 151 -59t66 -151
q20 -30 94 -30q92 0 148 40l73 360h-944l19 90h1187z" />
    <glyph glyph-name="u091F" unicode="&#x91f;" horiz-adv-x="850" 
d="M920 910h-165l-61 -300h-370q-71 0 -126.5 -68t-54.5 -170q-1 -104 71 -178t191 -74q177 0 288 140l66 -70q-135 -170 -375 -170q-157 0 -250.5 97.5t-93.5 232.5q0 153 93 256.5t212 103.5h270l40 200h-664l19 90h929zM763 399z" />
    <glyph glyph-name="u0920" unicode="&#x920;" horiz-adv-x="872" 
d="M942 910h-189l-59 -290h-350q-79 0 -141 -69.5t-61 -167.5q0 -101 74.5 -187t184.5 -86q103 0 181 82.5t78 184.5q0 94 -80 173l92 60q91 -93 91 -211q-1 -149 -116 -269t-267 -120q-146 0 -243.5 111.5t-96.5 243.5q0 145 99 250t226 105h250l38 190h-662l19 90h951z
" />
    <glyph glyph-name="u0921" unicode="&#x921;" horiz-adv-x="950" 
d="M1020 910h-155l-53 -260h-370q-37 0 -37 -43q0 -42 43 -99.5t84 -57.5q32 0 94 20t94 20q56 0 88.5 -37t32.5 -87q0 -56 -39 -136t-129 -145t-199 -65q-164 0 -286 120.5t-174 319.5l90 50q47 -175 150.5 -282.5t240.5 -107.5q100 0 172 79.5t73 151.5q0 39 -40 39
q-33 0 -95 -20q-61 -20 -94 -20q-73 0 -140.5 84t-67.5 157q0 66 49.5 112.5t110.5 46.5h270l32 160h-774l19 90h1029z" />
    <glyph glyph-name="u0922" unicode="&#x922;" horiz-adv-x="870" 
d="M940 910h-179l-61 -300h-390q-65 0 -116.5 -63.5t-51.5 -149.5q0 -99 78 -188.5t189 -98.5q-42 42 -42 112q0 105 71.5 176.5t163.5 71.5q74 0 118.5 -47t45.5 -110q0 -120 -114.5 -206.5t-261.5 -86.5q-148 0 -249 111.5t-101 243.5q0 136 88.5 235.5t202.5 99.5h290
l40 200h-670l19 90h949zM511 120q83 17 117.5 72t35.5 101q-1 32 -22.5 54.5t-59.5 22.5q-45 0 -79.5 -34.5t-34.5 -105.5q0 -67 43 -110z" />
    <glyph glyph-name="u0923" unicode="&#x923;" horiz-adv-x="1006" 
d="M1076 910h-143l-185 -910h-100l185 910h-190l-85 -420q-22 -103 -102.5 -176.5t-178.5 -73.5q-90 0 -142.5 57t-52.5 138q0 26 6 55l85 420h-182l19 90h1085zM458 490l85 420h-270l-85 -420q-4 -17 -4 -33q0 -47 30.5 -82t82.5 -35q57 0 102.5 44.5t58.5 105.5zM682 -1z
" />
    <glyph glyph-name="u0924" unicode="&#x924;" horiz-adv-x="914" 
d="M984 910h-143l-185 -910h-100l126 620h-390q-55 0 -99 -52t-44 -143q0 -172 181 -355l-74 -70q-208 213 -208 413q0 133 81.5 220t183.5 87h390l38 190h-750l19 90h993z" />
    <glyph glyph-name="u0925" unicode="&#x925;" horiz-adv-x="1030" 
d="M1107 910h-143l-185 -910h-100l73 360q-192 -160 -362 -160q-148 0 -233.5 99.5t-85.5 250.5q25 -10 148 -10q119 0 213 73.5t94 178.5q0 56 -34 97t-94 41q-67 0 -115.5 -39t-48.5 -87q0 -32 30 -53t74 -21l-21 -100q-87 0 -136.5 40t-49.5 107q0 102 86.5 177.5
t201.5 75.5q97 0 153.5 -64t56.5 -152q0 -154 -133.5 -264t-306.5 -110q37 -140 221 -140q170 0 369 190l85 420h-100l19 90h343z" />
    <glyph glyph-name="u0926" unicode="&#x926;" horiz-adv-x="826" 
d="M896 910h-133l-53 -260h-390q-68 0 -120 -52t-52 -129q-1 -96 101 -157.5t240 -61.5q13 64 53.5 117t91.5 53q65 0 65 -62q0 -40 -30.5 -85t-91.5 -83l71 -190l-98 -40l-69 200q-178 0 -306.5 82.5t-128.5 210.5q0 120 89 208.5t206 88.5h290l32 160h-672l19 90h905z" />
    <glyph glyph-name="u0927" unicode="&#x927;" horiz-adv-x="974" 
d="M1044 910h-143l-185 -910h-100l67 330q-166 -160 -342 -160q-97 0 -164 49.5t-67 123.5q-1 48 27 108.5t91 98.5q-120 99 -120 219q0 105 76 183t172 78q75 0 117.5 -35t42.5 -94q-1 -86 -67 -143.5t-150 -57.5l20 100q51 0 72.5 22.5t21.5 50.5q0 57 -78 57
q-49 0 -87.5 -42t-38.5 -106q0 -100 111 -172q75 30 156 30h60l40 -100h-110q-104 0 -179.5 -55t-74.5 -122q0 -42 45 -67.5t104 -25.5q170 0 351 200l89 440h-220l19 90h463z" />
    <glyph glyph-name="u0928" unicode="&#x928;" horiz-adv-x="880" 
d="M950 910h-143l-185 -910h-100l112 550h-290q-60 0 -68 -40l-20 -100q-13 -60 -63 -60q-36 0 -93 97.5t-57 141.5q0 61 81 61h530l53 260h-716l19 90h959z" />
    <glyph glyph-name="u0929" unicode="&#x929;" horiz-adv-x="880" 
d="M950 910h-143l-185 -910h-100l112 550h-290q-60 0 -68 -40l-20 -100q-13 -60 -63 -60q-36 0 -93 97.5t-57 141.5q0 61 81 61h530l53 260h-716l19 90h959zM179 56q0 36 20.5 60.5t60.5 24.5q54 0 54 -45q0 -34 -19.5 -59.5t-61.5 -25.5q-54 0 -54 45z" />
    <glyph glyph-name="u092A" unicode="&#x92a;" horiz-adv-x="806" 
d="M876 910h-143l-185 -910h-100l78 380q-109 -90 -219 -90q-99 0 -161 59.5t-62 145.5q0 26 6 55l73 360h-172l19 90h885zM556 530l77 380h-370l-73 -360q-3 -17 -3 -32q-1 -52 38.5 -90t102.5 -38q135 0 228 140z" />
    <glyph glyph-name="u092B" unicode="&#x92b;" horiz-adv-x="1164" 
d="M1234 910h-525l-57 -280q105 100 231 100q94 0 147 -64t53 -151q-1 -82 -49.5 -189.5t-156.5 -215.5l-80 50q95 80 139 174t44 160q0 55 -30.5 95.5t-87.5 40.5q-110 0 -234 -120l-104 -510h-100l82 400q-97 -80 -217 -80q-93 0 -150 55.5t-56 134.5q0 24 5 50l71 350
h-168l19 90h1243zM532 530l77 380h-350l-71 -350q-3 -15 -3 -28q0 -47 35 -79.5t90 -32.5q124 0 222 110zM730 0z" />
    <glyph glyph-name="u092C" unicode="&#x92c;" horiz-adv-x="808" 
d="M878 910h-143l-185 -910h-100l65 320q-120 -100 -240 -100q-104 0 -168.5 60.5t-64.5 146.5q0 130 109.5 236.5t255.5 106.5q75 0 124 -30l-46 -80q-40 20 -96 20q-89 0 -129 -40l246 -220l38 40l91 450h-644l19 90h887zM423 360l-225 220q-53 -55 -53 -131
q-1 -54 41.5 -91.5t108.5 -37.5q72 0 128 40z" />
    <glyph glyph-name="u092D" unicode="&#x92d;" horiz-adv-x="988" 
d="M1058 910h-143l-185 -910h-100l88 430h-330l-17 -80q-8 -40 -58 -40q-30 0 -87 70.5t-57 103.5q0 46 59 46h80l59 290q3 12 3 24q0 31 -19 53.5t-54 22.5q-58 0 -82 -26.5t-24 -59.5q0 -64 76 -64l-20 -100q-71 0 -114.5 42.5t-43.5 101.5q0 83 69.5 144.5t159.5 61.5
q70 0 112 -46.5t42 -109.5q0 -21 -5 -44l-59 -290h330l77 380h-260l19 90h503z" />
    <glyph glyph-name="u092E" unicode="&#x92e;" horiz-adv-x="870" 
d="M940 910h-143l-185 -910h-100l98 480h-360l-14 -70q-12 -60 -43 -60q-33 0 -98 70.5t-65 103.5q0 56 60 56h80l67 330h-246l19 90h949zM630 580l67 330h-360l-67 -330h360z" />
    <glyph glyph-name="u092F" unicode="&#x92f;" horiz-adv-x="896" 
d="M966 910h-143l-185 -910h-100l63 310q-144 -120 -284 -120q-132 0 -208.5 83.5t-76.5 198.5q0 38 8 78q122 0 204.5 51.5t82.5 149.5q0 80 -64 159h-272l19 90h975zM630 450l93 460h-340q45 -72 45 -147q0 -110 -85.5 -191t-208.5 -102v-6q-1 -78 57.5 -126t145.5 -48
q169 0 293 160z" />
    <glyph glyph-name="u0930" unicode="&#x930;" horiz-adv-x="664" 
d="M734 910h-115l-46 -230q-19 -90 -92.5 -155t-162.5 -65q-26 0 -76 20q83 -224 266 -410l-74 -70q-267 270 -373 670l100 50q11 -72 59.5 -116t117.5 -44q47 0 85.5 35.5t49.5 84.5l46 230h-528l19 90h743z" />
    <glyph glyph-name="u0931" unicode="&#x931;" horiz-adv-x="664" 
d="M734 910h-115l-46 -230q-19 -90 -92.5 -155t-162.5 -65q-26 0 -76 20q83 -224 266 -410l-74 -70q-267 270 -373 670l100 50q11 -72 59.5 -116t117.5 -44q47 0 85.5 35.5t49.5 84.5l46 230h-528l19 90h743zM24 43q0 36 20.5 60.5t60.5 24.5q54 0 54 -45q0 -34 -19.5 -59.5
t-61.5 -25.5q-54 0 -54 45z" />
    <glyph glyph-name="u0932" unicode="&#x932;" horiz-adv-x="1092" 
d="M1162 910h-143l-185 -910h-100l122 600q-91 0 -180.5 -80t-146.5 -200l-84 30q36 98 91 150q-46 100 -160 100q-96 0 -170.5 -74t-73.5 -164q-1 -82 75 -159t194 -123l-59 -90q-139 54 -225.5 150t-86.5 204q0 133 109.5 244.5t257.5 111.5q157 0 227 -110
q116 110 253 110l42 210h-928l19 90h1171z" />
    <glyph glyph-name="u0933" unicode="&#x933;" horiz-adv-x="1104" 
d="M1174 910h-271l-38 -190q78 -14 117.5 -77t39.5 -145q-1 -143 -97.5 -265.5t-223.5 -122.5q-138 0 -190 200q-131 -200 -260 -200q-102 0 -159.5 68.5t-56.5 162.5q0 142 101.5 260.5t238.5 118.5q72 0 121 -50.5t62 -129.5q92 159 207 180l38 190h-812l19 90h1183z
M482 410q-16 220 -126 220q-88 0 -154 -87.5t-65 -178.5q-1 -62 34 -108t100 -46q99 0 211 200zM584 420q34 -220 135 -220q79 0 139.5 91t61.5 187q-1 60 -29 106t-85 46q-59 0 -120 -60.5t-102 -149.5z" />
    <glyph glyph-name="u0934" unicode="&#x934;" horiz-adv-x="1104" 
d="M1174 910h-271l-38 -190q78 -14 117.5 -77t39.5 -145q-1 -143 -97.5 -265.5t-223.5 -122.5q-138 0 -190 200q-131 -200 -260 -200q-102 0 -159.5 68.5t-56.5 162.5q0 142 101.5 260.5t238.5 118.5q72 0 121 -50.5t62 -129.5q92 159 207 180l38 190h-812l19 90h1183z
M482 410q-16 220 -126 220q-88 0 -154 -87.5t-65 -178.5q-1 -62 34 -108t100 -46q99 0 211 200zM584 420q34 -220 135 -220q79 0 139.5 91t61.5 187q-1 60 -29 106t-85 46q-59 0 -120 -60.5t-102 -149.5zM394 44q0 36 20.5 60.5t60.5 24.5q54 0 54 -45q0 -34 -19.5 -59.5
t-61.5 -25.5q-54 0 -54 45z" />
    <glyph glyph-name="u0935" unicode="&#x935;" 
d="M886 910h-143l-185 -910h-100l65 320q-103 -100 -230 -100q-111 0 -181 63t-70 153q0 130 109 227t252 97q74 0 122 -40l-67 -80q-31 30 -73 30q-94 0 -167 -64.5t-73 -147.5q0 -58 47.5 -98t120.5 -40q125 0 241 150l89 440h-652l19 90h895z" />
    <glyph glyph-name="u0936" unicode="&#x936;" horiz-adv-x="1016" 
d="M221 310l241 -240l-74 -70l-372 380l64 70q70 -70 96 -70q115 0 210.5 89t120.5 211q-77 -100 -201 -100q-74 0 -118 48.5t-44 116.5q0 103 81 189t191 86q98 0 149 -75.5t51 -176.5q0 -169 -119 -313.5t-276 -144.5zM509 790q-23 130 -114 130q-60 0 -104.5 -49
t-44.5 -106q0 -35 21 -60t60 -25q107 0 182 110zM1086 910h-143l-185 -910h-100l185 910h-200l19 90h443zM668 -1z" />
    <glyph glyph-name="u0937" unicode="&#x937;" horiz-adv-x="804" 
d="M874 910h-143l-185 -910h-100l73 360q-96 -60 -222 -60q-97 0 -155 60.5t-58 144.5q0 26 6 55l71 350h-170l19 90h883zM564 580l67 330h-350zM542 470l-301 340l-51 -250q-3 -17 -3 -34q-1 -52 35 -89t96 -37q128 0 224 70z" />
    <glyph glyph-name="u0938" unicode="&#x938;" horiz-adv-x="1066" 
d="M1136 910h-143l-185 -910h-100l98 480h-270l-30 100h320l67 330h-340l-55 -270q-16 -78 -76 -134t-132 -56q-46 0 -65 18q92 -219 269 -398l-74 -70q-267 270 -373 670l100 50q37 -180 131 -180q43 0 77 28.5t43 71.5l55 270h-462l19 90h1145z" />
    <glyph glyph-name="u0939" unicode="&#x939;" horiz-adv-x="792" 
d="M862 910h-133l-48 -240h-410q-32 0 -45.5 -11.5t-13.5 -43.5q0 -70 84 -115q75 30 156 30q98 0 164 -51.5t66 -127.5q0 -58 -30.5 -114.5t-86.5 -86.5l-66 70q80 42 80 110q0 44 -44 72t-103 28q-115 0 -206.5 -56t-91.5 -142q0 -87 123.5 -139.5t274.5 -52.5l-38 -90
q-180 0 -321 73t-141 192q0 67 38 131t116 104q-75 77 -75 156q0 72 55.5 118t124.5 46h310l28 140h-638l19 90h871z" />
    <glyph glyph-name="u093C" unicode="&#x93c;" horiz-adv-x="0" 
d="M-954 35q0 34 19.5 59.5t61.5 25.5q54 0 54 -45q0 -36 -20.5 -60.5t-60.5 -24.5q-54 0 -54 45z" />
    <glyph glyph-name="u093D" unicode="&#x93d;" horiz-adv-x="664" 
d="M-4 322l100 48q10 -110 60 -182t128 -72q67 0 118 69t51 141q0 121 -158 238q-98 73 -98 181q0 107 78 171t175 64h240l-21 -102h-240q-49 0 -89.5 -27.5t-39.5 -77.5q0 -95 146 -205q110 -83 110 -211t-88 -238.5t-206 -110.5q-110 0 -181.5 88t-84.5 226z" />
    <glyph glyph-name="u093E" unicode="&#x93e;" horiz-adv-x="400" 
d="M470 910h-143l-185 -910h-100l185 910h-236l19 90h479z" />
    <glyph glyph-name="u093F" unicode="&#x93f;" horiz-adv-x="400" 
d="M470 910h-143l-185 -910h-100l185 910h-236l19 90h236q-12 21 -12 58q0 149 116.5 255.5t270.5 106.5q162 0 291 -108.5t198 -291.5h-110q-54 142 -159 226t-238 84q-106 0 -188 -74t-81 -198q0 -37 12 -58h143z" />
    <glyph glyph-name="u0940" unicode="&#x940;" horiz-adv-x="400" 
d="M470 910h-143l-185 -910h-100l185 910h-236l19 90h236q-11 140 -61.5 235t-131.5 95q-60 0 -104 -48.5t-44 -108.5q0 -70 66 -153h-110q-57 72 -57 144q0 98 81 177t186 79q117 0 190 -121.5t85 -298.5h143z" />
    <glyph glyph-name="u0941" unicode="&#x941;" horiz-adv-x="0" 
d="M-910 -210l88 90q188 -190 351 -190q95 0 169 51t75 127q0 37 -23 64.5t-66 27.5q-102 0 -174 -70l-56 70q104 100 250 100q78 0 124.5 -50.5t46.5 -120.5q-1 -125 -112.5 -212t-253.5 -87q-218 0 -419 200z" />
    <glyph glyph-name="u0942" unicode="&#x942;" horiz-adv-x="0" 
d="M73 -340l-98 -40q-27 155 -100.5 252.5t-178.5 97.5q-72 0 -126.5 -51t-54.5 -112q0 -36 24.5 -61.5t65.5 -25.5q52 0 120 50l32 -90q-96 -60 -172 -60q-78 0 -125 50t-47 117q0 108 91 195.5t212 87.5q136 0 231 -114.5t126 -295.5z" />
    <glyph glyph-name="u0943" unicode="&#x943;" horiz-adv-x="0" 
d="M-187 -330q-113 -80 -256 -80q-93 0 -150.5 52.5t-57.5 130.5q0 114 97 190.5t222 76.5h90l-18 -90h-90q-78 0 -138.5 -45t-60.5 -110q0 -44 35.5 -74.5t90.5 -30.5q120 0 204 70z" />
    <glyph glyph-name="u0944" unicode="&#x944;" horiz-adv-x="0" 
d="M-213 -350q-81 -50 -220 -50q-88 0 -156 33.5t-68 87.5q0 85 135 129q-72 20 -72 78q-1 58 53 100t123 42h180l-14 -70h-160q-91 0 -91 -57q0 -24 34 -38.5t75 -14.5h70l-16 -80h-90q-48 0 -92 -21.5t-43 -54.5q-1 -25 40.5 -39.5t87.5 -14.5q144 0 208 40z" />
    <glyph glyph-name="u0945" unicode="&#x945;" horiz-adv-x="0" 
d="M293 1400q-43 -116 -142 -193t-213 -77q-115 0 -180 76t-65 194h100q-2 -73 40.5 -131.5t120.5 -58.5q75 0 141 54t98 136h100z" />
    <glyph glyph-name="u0946" unicode="&#x946;" horiz-adv-x="0" 
d="M-48 1000h-100q5 24 5 46q0 66 -44.5 115t-118.5 49q-109 0 -177 72.5t-68 185.5v12h100v-8q0 -79 44.5 -130.5t117.5 -51.5q110 0 178.5 -67t68.5 -162q0 -29 -6 -61z" />
    <glyph glyph-name="u0947" unicode="&#x947;" horiz-adv-x="0" 
d="M-58 1000h-100l-281 440l82 60z" />
    <glyph glyph-name="u0948" unicode="&#x948;" horiz-adv-x="0" 
d="M-62 1000h-130l-375 270l78 90l369 -350l-123 430l112 60z" />
    <glyph glyph-name="u0949" unicode="&#x949;" horiz-adv-x="400" 
d="M470 910h-143l-185 -910h-100l185 910h-236l19 90h479zM484 1400q-43 -116 -142 -193t-213 -77q-115 0 -180 76t-65 194h100q-2 -73 40.5 -131.5t120.5 -58.5q75 0 141 54t98 136h100z" />
    <glyph glyph-name="u094A" unicode="&#x94a;" horiz-adv-x="400" 
d="M470 910h-143l-185 -910h-100l185 910h-236l19 90h479zM347 1000h-100q5 24 5 46q0 66 -44.5 115t-118.5 49q-109 0 -177 72.5t-68 185.5v12h100v-8q0 -79 44.5 -130.5t117.5 -51.5q110 0 178.5 -67t68.5 -162q0 -29 -6 -61z" />
    <glyph glyph-name="u094B" unicode="&#x94b;" horiz-adv-x="400" 
d="M470 910h-143l-185 -910h-100l185 910h-236l19 90h479zM342 1000h-100l-281 440l82 60z" />
    <glyph glyph-name="u094C" unicode="&#x94c;" horiz-adv-x="400" 
d="M470 910h-143l-185 -910h-100l185 910h-236l19 90h479zM356 1000h-130l-375 270l78 90l369 -350l-123 430l112 60z" />
    <glyph glyph-name="u094D" unicode="&#x94d;" horiz-adv-x="0" 
d="M5 -270l-72 -60l-251 240l-78 -40l-24 80l120 50z" />
    <glyph glyph-name="u0950" unicode="&#x950;" horiz-adv-x="1468" 
d="M1113 1137q0 36 20.5 60.5t60.5 24.5q54 0 54 -45q0 -34 -19.5 -59.5t-61.5 -25.5q-54 0 -54 45zM1483 1142q-44 -117 -143 -193.5t-212 -76.5q-115 0 -183.5 79t-61.5 191h100q-6 -73 38.5 -131.5t122.5 -58.5q75 0 141 54t98 136h100zM865 320h90q-3 -17 -3 -33
q-1 -52 35 -89.5t96 -37.5q74 0 131.5 88t57.5 180q0 60 -28.5 106t-85.5 46q-101 0 -194 -120q-70 -90 -218 -90q-26 0 -96 20q13 -23 13 -58q0 -112 -88 -212t-211 -100q-129 0 -226.5 99.5t-139.5 260.5l100 50q35 -136 111.5 -223t175.5 -87q69 0 123 61.5t54 148.5
q0 51 -19.5 85.5t-60.5 34.5q-45 0 -82 -10l-46 70q104 10 185.5 69t82.5 142q0 49 -35.5 84t-93.5 35q-103 0 -232 -150l-64 62q160 190 319 190q94 0 152 -58t58 -140q0 -130 -130 -224q78 -50 170 -50q103 0 180 100q85 110 233 110q94 0 144.5 -69.5t50.5 -162.5
q0 -141 -94 -264.5t-218 -123.5q-93 0 -148 59.5t-55 143.5q0 27 6 57z" />
    <glyph glyph-name="u0951" unicode="&#x951;" horiz-adv-x="0" 
d="M-32 1010h-130l79 392h130z" />
    <glyph glyph-name="u0952" unicode="&#x952;" horiz-adv-x="0" 
d="M-210 -110h-790l18 90h790z" />
    <glyph glyph-name="u0953" unicode="&#x953;" horiz-adv-x="0" 
d="M-9 1264h-74l-170 236h130z" />
    <glyph glyph-name="u0954" unicode="&#x954;" horiz-adv-x="0" 
d="M39 1500l-266 -236h-74l210 236h130z" />
    <glyph glyph-name="u0958" unicode="&#x958;" horiz-adv-x="1126" 
d="M1196 910h-501l-55 -270q94 120 235 120q87 0 134.5 -61t47.5 -143q-1 -98 -63.5 -209t-206.5 -217l-78 60q136 86 191 178t55 166q-1 51 -26 88.5t-74 37.5q-74 0 -143 -54.5t-106 -135.5l-96 -470h-100l61 300q-95 -90 -218 -90q-97 0 -155 60.5t-58 144.5
q0 133 110 239t255 106q76 0 96 -20l-41 -100q-31 20 -75 20q-96 0 -169.5 -69.5t-73.5 -154.5q0 -52 35.5 -89t95.5 -37q127 0 227 130l95 470h-604l19 90h1205zM145 56q0 36 20.5 60.5t60.5 24.5q54 0 54 -45q0 -34 -19.5 -59.5t-61.5 -25.5q-54 0 -54 45z" />
    <glyph glyph-name="u0959" unicode="&#x959;" horiz-adv-x="1240" 
d="M1310 910h-143l-185 -910h-100l41 200q-181 -200 -421 -200q-185 0 -300.5 190t-134.5 470l88 40q19 -140 111 -140q37 0 66.5 39.5t40.5 90.5l44 220h-426l19 90h1319zM949 330l17 80q-97 -70 -175 -70q-88 0 -144.5 50t-56.5 122q0 102 87 180t202 78q75 0 124 -30
l-21 -100q-75 30 -123 30q-65 0 -115.5 -40t-50.5 -97q0 -40 34 -66.5t85 -26.5q63 0 176 80l79 390h-550l-44 -220q-19 -90 -83.5 -160t-143.5 -70q-25 0 -48 10q26 -166 112 -273t211 -107q243 0 428 240zM-3 56q0 36 20.5 60.5t60.5 24.5q54 0 54 -45q0 -34 -19.5 -59.5
t-61.5 -25.5q-54 0 -54 45z" />
    <glyph glyph-name="u095A" unicode="&#x95a;" horiz-adv-x="778" 
d="M848 910h-143l-185 -910h-100l185 910h-250l-99 -490q-13 -60 -63 -60q-39 0 -96.5 87.5t-57.5 131.5q0 51 49 51h70q40 0 51 50l46 230h-264l19 90h857zM38 56q0 36 20.5 60.5t60.5 24.5q54 0 54 -45q0 -34 -19.5 -59.5t-61.5 -25.5q-54 0 -54 45z" />
    <glyph glyph-name="u095B" unicode="&#x95b;" horiz-adv-x="1094" 
d="M1164 910h-143l-185 -910h-100l122 600h-240q39 -75 39 -162q0 -143 -84 -230.5t-192 -87.5q-114 0 -199 148.5t-124 381.5l99 40q34 -205 98 -337.5t146 -132.5q59 0 106.5 51.5t47.5 154.5q0 140 -106 274h430l42 210h-930l19 90h1173zM72 18q0 36 20.5 60.5t60.5 24.5
q54 0 54 -45q0 -34 -19.5 -59.5t-61.5 -25.5q-54 0 -54 45z" />
    <glyph glyph-name="u095C" unicode="&#x95c;" horiz-adv-x="950" 
d="M1020 910h-155l-53 -260h-370q-37 0 -37 -43q0 -42 43 -99.5t84 -57.5q32 0 94 20t94 20q56 0 88.5 -37t32.5 -87q0 -56 -39 -136t-129 -145t-199 -65q-164 0 -286 120.5t-174 319.5l90 50q47 -175 150.5 -282.5t240.5 -107.5q100 0 172 79.5t73 151.5q0 39 -40 39
q-33 0 -95 -20q-61 -20 -94 -20q-73 0 -140.5 84t-67.5 157q0 66 49.5 112.5t110.5 46.5h270l32 160h-774l19 90h1029zM376 -145q0 36 20.5 60.5t60.5 24.5q54 0 54 -45q0 -34 -19.5 -59.5t-61.5 -25.5q-54 0 -54 45z" />
    <glyph glyph-name="u095D" unicode="&#x95d;" horiz-adv-x="870" 
d="M940 910h-179l-61 -300h-390q-65 0 -116.5 -63.5t-51.5 -149.5q0 -99 78 -188.5t189 -98.5q-42 42 -42 112q0 105 71.5 176.5t163.5 71.5q74 0 118.5 -47t45.5 -110q0 -120 -114.5 -206.5t-261.5 -86.5q-148 0 -249 111.5t-101 243.5q0 136 88.5 235.5t202.5 99.5h290
l40 200h-670l19 90h949zM511 120q83 17 117.5 72t35.5 101q-1 32 -22.5 54.5t-59.5 22.5q-45 0 -79.5 -34.5t-34.5 -105.5q0 -67 43 -110zM282 -145q0 36 20.5 60.5t60.5 24.5q54 0 54 -45q0 -34 -19.5 -59.5t-61.5 -25.5q-54 0 -54 45z" />
    <glyph glyph-name="u095E" unicode="&#x95e;" horiz-adv-x="1164" 
d="M1234 910h-525l-57 -280q105 100 231 100q94 0 147 -64t53 -151q-1 -82 -49.5 -189.5t-156.5 -215.5l-80 50q95 80 139 174t44 160q0 55 -30.5 95.5t-87.5 40.5q-110 0 -234 -120l-104 -510h-100l82 400q-97 -80 -217 -80q-93 0 -150 55.5t-56 134.5q0 24 5 50l71 350
h-168l19 90h1243zM532 530l77 380h-350l-71 -350q-3 -15 -3 -28q0 -47 35 -79.5t90 -32.5q124 0 222 110zM730 0zM98 55q0 36 20.5 60.5t60.5 24.5q54 0 54 -45q0 -34 -19.5 -59.5t-61.5 -25.5q-54 0 -54 45z" />
    <glyph glyph-name="u095F" unicode="&#x95f;" horiz-adv-x="896" 
d="M966 910h-143l-185 -910h-100l63 310q-144 -120 -284 -120q-132 0 -208.5 83.5t-76.5 198.5q0 38 8 78q122 0 204.5 51.5t82.5 149.5q0 80 -64 159h-272l19 90h975zM630 450l93 460h-340q45 -72 45 -147q0 -110 -85.5 -191t-208.5 -102v-6q-1 -78 57.5 -126t145.5 -48
q169 0 293 160zM86 55q0 36 20.5 60.5t60.5 24.5q54 0 54 -45q0 -34 -19.5 -59.5t-61.5 -25.5q-54 0 -54 45z" />
    <glyph glyph-name="u0960" unicode="&#x960;" horiz-adv-x="1326" 
d="M1396 910h-571l-73 -360l186 80v8q0 41 32 76.5t73 35.5q75 0 75 -63q0 -26 -15.5 -59t-44.5 -48l44 -130q-78 -13 -136 -62.5t-58 -117.5q0 -50 37 -85t96 -35q53 0 150 50l32 -90q-119 -50 -201 -50q-96 0 -156 55t-60 136q0 76 42.5 139t131.5 100l-28 60l-218 -90
l-94 -460h-100l78 380l-449 -190l-44 80l427 180l-88 110q-72 90 -132 90q-84 0 -250 -100l-46 70q199 120 315 120q90 0 161 -90l128 -160l85 420h-734l19 90h1405zM1170 224zM1298 0z" />
    <glyph glyph-name="u0961" unicode="&#x961;" horiz-adv-x="1064" 
d="M1134 910h-271l-44 -220q76 -25 114.5 -90t38.5 -148q0 -149 -100 -263.5t-244 -138.5q-83 -14 -83 -74q0 -66 95 -66h70l-16 -80h-70q-49 0 -88 -25t-39 -66q-1 -30 27 -49.5t67 -19.5q106 0 202 60l24 -80q-113 -70 -244 -70q-75 0 -127 40t-52 99q0 113 118 151
q-69 19 -69 86q0 75 59.5 130.5t137.5 61.5q94 7 161.5 91t67.5 188q0 66 -33 114.5t-98 48.5t-135 -79t-120 -191l-94 30q31 72 79 140q-41 100 -140 100q-77 0 -135.5 -76t-58.5 -169q0 -81 50.5 -152.5t140.5 -112.5l-57 -80q-109 51 -172.5 140.5t-63.5 190.5
q0 133 94.5 246t222.5 113q125 0 185 -120q82 99 185 120l44 220h-772l19 90h1143z" />
    <glyph glyph-name="u0962" unicode="&#x962;" horiz-adv-x="0" 
d="M-124 -592l10 -66q-82 -52 -170 -52q-68 0 -110 41t-42 99q0 78 57.5 144t140.5 80q79 13 115 75t36 128q0 49 -26.5 81t-70.5 32q-48 0 -99.5 -58t-86.5 -138l-67 22q23 54 56 102q-27 72 -103 72q-55 0 -97.5 -55.5t-42.5 -125.5q0 -115 140 -183l-43 -66
q-84 37 -131 103t-47 140q0 97 70.5 182t166.5 85q102 0 142 -82q68 82 158 82q73 0 117.5 -50t44.5 -127q0 -105 -61.5 -185.5t-156.5 -103.5q-69 -16 -100 -56t-30 -81q-1 -33 23 -55t63 -22q81 0 144 38z" />
    <glyph glyph-name="u0963" unicode="&#x963;" horiz-adv-x="0" 
d="M-121 -726q-78 -48 -184 -48q-57 0 -93.5 30.5t-36.5 75.5q0 86 80 112q-45 16 -45 62q0 53 43.5 96.5t101.5 47.5q68 5 118.5 69.5t50.5 137.5q0 44 -25.5 78.5t-72.5 34.5q-48 0 -99.5 -58t-86.5 -138l-67 22q23 54 56 102q-27 72 -103 72q-55 0 -97.5 -55.5
t-42.5 -125.5q0 -115 140 -183l-43 -66q-84 37 -131 103t-47 140q0 97 70.5 182t166.5 85q102 0 142 -82q68 82 158 82q78 0 120.5 -52.5t42.5 -123.5q0 -104 -73 -192t-178 -104q-63 -10 -63 -62q0 -42 64 -42h48l-12 -58h-48q-45 0 -66 -21.5t-21 -49.5q0 -39 65 -39
q90 0 154 40z" />
    <glyph glyph-name="u0964" unicode="&#x964;" horiz-adv-x="400" 
d="M142 0h-100l204 1000h100z" />
    <glyph glyph-name="u0965" unicode="&#x965;" horiz-adv-x="720" 
d="M142 0h-100l204 1000h100zM462 0h-100l204 1000h100z" />
    <glyph glyph-name="u0966" unicode="&#x966;" horiz-adv-x="1000" 
d="M136 426q0 165 130 294.5t299 129.5q130 0 208.5 -82t78.5 -194q-1 -163 -130 -293.5t-299 -130.5q-130 0 -208.5 82t-78.5 194zM238 447q0 -82 56 -139.5t149 -57.5q121 0 214 91.5t93 213.5q0 81 -56 138t-149 57q-123 0 -215 -93t-92 -210z" />
    <glyph glyph-name="u0967" unicode="&#x967;" horiz-adv-x="1000" 
d="M652 -50h-100l128 630q-84 -70 -194 -70q-99 0 -155 62t-56 149q0 131 98 230t223 99q111 0 169.5 -60t58.5 -158q0 -38 -9 -82zM377 739q-1 -57 33 -98t94 -41q82 0 147 67t65 157q0 59 -36.5 102.5t-99.5 43.5q-81 0 -142.5 -73t-60.5 -158zM296 1068z" />
    <glyph glyph-name="u0968" unicode="&#x968;" horiz-adv-x="1000" 
d="M517 320l173 -330l-92 -60l-189 350q-27 -10 -72 -10q-55 0 -91.5 28.5t-36.5 69.5q0 46 35.5 74t83.5 28q80 0 144 -80q138 49 219.5 158t81.5 220q-1 79 -49.5 135.5t-135.5 56.5q-139 0 -293 -110l-44 80q187 130 357 130q122 0 194 -81.5t73 -191.5
q0 -139 -96.5 -274t-261.5 -193zM296 1068z" />
    <glyph glyph-name="u0969" unicode="&#x969;" horiz-adv-x="998" 
d="M417 50q65 -172 120 -200l-95 -70q-75 49 -129 250q-65 0 -108.5 35t-43.5 87q0 49 27 78.5t82 29.5q87 0 134 -130q115 22 185.5 92t70.5 155q0 69 -58 116t-145 47h-110l-32 90h180q87 0 151.5 58t64.5 129q0 52 -47.5 87.5t-115.5 35.5q-86 0 -224 -70l-36 70
q142 100 291 100q102 0 168 -58t66 -142q0 -75 -43 -144t-135 -116q127 -64 127 -185q0 -119 -96.5 -218t-248.5 -127zM296 1068z" />
    <glyph glyph-name="u096A" unicode="&#x96a;" horiz-adv-x="998" 
d="M592 520q131 -85 131 -213q0 -126 -98.5 -216.5t-228.5 -90.5q-97 0 -155.5 58t-58.5 140q0 90 58.5 174.5t181.5 147.5q-95 49 -152 123t-57 153q0 128 131 224l70 -50q-101 -83 -101 -165q0 -68 56 -129.5t145 -95.5q295 151 295 282q0 51 -43 118l100 50
q47 -59 47 -135q0 -212 -321 -375zM490 460q-113 -40 -159.5 -109.5t-46.5 -133.5q-1 -52 35 -89.5t96 -37.5q80 0 143 58t63 140q0 106 -131 172zM296 1068z" />
    <glyph glyph-name="u096B" unicode="&#x96b;" horiz-adv-x="1000" 
d="M566 -130l-34 80q62 39 89 72.5t27 74.5q0 42 -9 133l-23 230q-81 -50 -170 -50q-121 0 -191 76.5t-70 182.5q0 74 40.5 191t114.5 210l82 -40q-65 -84 -100 -185t-35 -160q0 -76 46.5 -130.5t130.5 -54.5q74 0 138 40q-3 13 -3 34q-1 36 13 115.5t58.5 130t98.5 50.5
q37 0 55 -32t18 -78q0 -112 -122 -230l29 -300q9 -93 9 -134q0 -127 -192 -226zM256 1068z" />
    <glyph glyph-name="u096C" unicode="&#x96c;" horiz-adv-x="1000" 
d="M676 -180l-85 -70q-45 72 -81 290q-134 0 -225 68t-91 170q0 77 43 146.5t135 115.5q-72 13 -109.5 65.5t-37.5 120.5q0 120 96 202t217 82q143 0 220 -50l-49 -90q-102 40 -192 40q-72 0 -131 -45t-59 -122q-1 -58 40 -100.5t107 -42.5h160l24 -80h-110
q-98 0 -175.5 -68t-76.5 -157q0 -70 64.5 -117.5t158.5 -47.5q13 65 59 112.5t103 47.5q27 0 40.5 -20t13.5 -47q0 -96 -123 -173q5 -74 64 -230zM296 1068z" />
    <glyph glyph-name="u096D" unicode="&#x96d;" horiz-adv-x="1000" 
d="M246 950l122 60q-43 -113 -77.5 -232.5t-54.5 -218t-20 -161.5q0 -126 49.5 -217t155.5 -91q69 0 140 56t120 144q-113 0 -177 76.5t-64 178.5q0 128 83.5 246.5t193.5 118.5q87 0 128 -74t41 -176q0 -120 -63 -286.5t-171.5 -270t-249.5 -103.5q-144 0 -215.5 115
t-71.5 270q0 69 15.5 147.5t115.5 417.5zM774 550q11 52 11 102q0 168 -86 168q-65 0 -116 -86t-51 -175q0 -80 48 -139.5t135 -59.5q44 114 59 190zM296 1068z" />
    <glyph glyph-name="u096E" unicode="&#x96e;" horiz-adv-x="1000" 
d="M779 180q-187 -180 -367 -180q-135 0 -223 74.5t-88 183.5q0 152 139 272l570 490l56 -70l-558 -480q-95 -82 -95 -195q-1 -78 60.5 -131.5t157.5 -53.5q126 0 292 160zM296 1068z" />
    <glyph glyph-name="u096F" unicode="&#x96f;" horiz-adv-x="998" 
d="M488 -140l-12 90q49 0 97 21t48 57q0 34 -48 102l-241 340q-106 149 -106 280q0 144 104.5 242t237.5 98q101 0 159.5 -66.5t58.5 -158.5q-1 -126 -89 -235.5t-205 -109.5q-14 0 -68 10l263 -380q36 -53 36 -102q0 -76 -72.5 -127.5t-162.5 -60.5zM325 759q0 -61 39 -105
t106 -44q80 0 141.5 73t61.5 159q0 56 -34 97t-93 41q-87 0 -154 -66.5t-67 -154.5zM296 1068z" />
    <glyph glyph-name="u0970" unicode="&#x970;" horiz-adv-x="820" 
d="M86 191q0 124 96.5 217.5t221.5 93.5q97 0 155.5 -59t58.5 -142q0 -124 -96.5 -217.5t-221.5 -93.5q-97 0 -155.5 59t-58.5 142zM184 209q0 -55 36.5 -95t98.5 -40q79 0 142 63t63 147q0 55 -36.5 94.5t-98.5 39.5q-79 0 -142 -63t-63 -146z" />
    <glyph glyph-name="u200C" unicode="&#x200c;" horiz-adv-x="0" 
d="M-127 -490h-80l404 1990h80z" />
    <glyph glyph-name="u200D" unicode="&#x200d;" horiz-adv-x="0" 
d="M521 1420h-260l-388 -1910h-80l404 1990h340z" />
    <glyph glyph-name="u2013" unicode="&#x2013;" 
d="M-3 328v104h816v-104h-816z" />
    <glyph glyph-name="u2014" unicode="&#x2014;" horiz-adv-x="1466" 
d="M0 328v104h1466v-104h-1466z" />
    <glyph glyph-name="u2018" unicode="&#x2018;" horiz-adv-x="326" 
d="M367 855l-30 -147h-148l27 129q24 115 75 169t121 62l-12 -57q-84 -23 -113 -156h80z" />
    <glyph glyph-name="u2019" unicode="&#x2019;" horiz-adv-x="326" 
d="M228 899l30 146h148l-27 -129q-24 -115 -75 -168t-121 -62l12 56q85 24 113 157h-80z" />
    <glyph glyph-name="u201C" unicode="&#x201c;" horiz-adv-x="488" 
d="M561 855l-30 -147h-148l27 129q24 115 75 169t121 62l-12 -57q-83 -23 -113 -156h80zM333 855l-31 -147h-147l27 129q23 115 74.5 169t120.5 62l-11 -57q-84 -23 -113 -156h80z" />
    <glyph glyph-name="u201D" unicode="&#x201d;" horiz-adv-x="488" 
d="M198 899l30 146h148l-27 -129q-24 -115 -75 -168t-121 -62l12 56q85 24 113 157h-80zM434 899l31 146h147l-27 -129q-24 -115 -75 -168t-120 -62l11 56q84 24 113 157h-80z" />
    <glyph glyph-name="u2026" unicode="&#x2026;" horiz-adv-x="1466" 
d="M211 0l30 147h147l-31 -147h-146zM700 0l31 147h147l-31 -147h-147zM1191 0l30 147h147l-31 -147h-146z" />
    <glyph glyph-name="u2212" unicode="&#x2212;" horiz-adv-x="856" 
d="M132 458v120h693v-120h-693z" />
    <glyph glyph-name="u25CC" unicode="&#x25cc;" horiz-adv-x="1380" 
d="M706 953q0 35 27 61t61 26q59 0 59 -56q-1 -36 -28 -62t-60 -26q-59 0 -59 57zM459 891q0 35 27.5 61t60.5 26q59 0 59 -56q0 -36 -27.5 -62t-60.5 -26q-59 0 -59 57zM927 891q-1 35 27 61t61 26q59 0 59 -56q0 -36 -27.5 -62t-60.5 -26q-59 0 -59 57zM254 719
q-1 35 27 61t61 26q59 0 59 -56q0 -36 -27.5 -62t-60.5 -26q-59 0 -59 57zM1064 719q-1 35 27 61t61 26q59 0 59 -56q0 -36 -27.5 -62t-60.5 -26q-59 0 -59 57zM142 485q0 35 27.5 61t61.5 26q59 0 59 -56q-1 -36 -28.5 -62t-60.5 -26q-59 0 -59 57zM1078 485q0 35 27.5 61
t61.5 26q59 0 59 -56q0 -36 -28 -62t-61 -26q-59 0 -59 57zM159 251q0 35 27.5 61t60.5 26q59 0 59 -56q0 -36 -27.5 -62t-60.5 -26q-59 0 -59 57zM969 251q0 35 27.5 61t60.5 26q59 0 59 -56q0 -36 -27.5 -62t-60.5 -26q-59 0 -59 57zM294 80q0 36 27.5 62t60.5 26
q59 0 59 -56q0 -37 -27.5 -63.5t-60.5 -26.5q-59 0 -59 58zM762 80q0 36 27.5 62t60.5 26q59 0 59 -56q0 -37 -27.5 -63.5t-60.5 -26.5q-59 0 -59 58zM515 17q0 35 27.5 61t60.5 26q59 0 59 -56q0 -36 -27.5 -62t-60.5 -26q-59 0 -59 57z" />
    <glyph glyph-name="u09470902" horiz-adv-x="0" 
d="M-58 1000h-100l-281 440l82 60zM-82 1351q0 36 20 60.5t60 24.5q54 0 54 -45q0 -34 -19.5 -59.5t-60.5 -25.5q-54 0 -54 45z" />
    <glyph glyph-name="u09470930094D" horiz-adv-x="0" 
d="M155 1310q-76 30 -104 30q-70 0 -123 -55t-53 -148q0 -24 7 -37l60 -100h-100l-281 440l82 60l158 -263q30 80 105.5 131.5t160.5 51.5q54 0 106 -20z" />
    <glyph glyph-name="u09470930094D0902" horiz-adv-x="0" 
d="M165 1310q-76 30 -104 30q-70 0 -123 -55t-53 -148q0 -24 7 -37l60 -100h-100l-281 440l82 60l158 -263q30 80 105.5 131.5t160.5 51.5q54 0 106 -20zM-8 1145q0 34 19 59.5t61 25.5q54 0 54 -45q0 -34 -19 -59.5t-61 -25.5q-54 0 -54 45z" />
    <glyph glyph-name="u09480902" horiz-adv-x="0" 
d="M-62 1000h-130l-388 210l69 90l391 -290l-133 430l112 60zM2 1303q0 34 19.5 59.5t61.5 25.5q54 0 54 -45q0 -36 -20.5 -60.5t-60.5 -24.5q-54 0 -54 45z" />
    <glyph glyph-name="u09480930094D" horiz-adv-x="0" 
d="M241 1310q-76 30 -104 30q-59 0 -108.5 -29.5t-71.5 -67t-21 -60.5q0 -21 12 -83l20 -100h-130l-400 200l71 100l401 -290l-163 430l112 60l48 -210q91 130 246 130q54 0 106 -20z" />
    <glyph glyph-name="u09480930094D0902" horiz-adv-x="0" 
d="M241 1310q-76 30 -104 30q-59 0 -108.5 -29.5t-71.5 -67t-21 -60.5q0 -21 12 -83l20 -100h-130l-400 200l71 100l401 -290l-163 430l112 60l48 -210q91 130 246 130q54 0 106 -20zM60 1135q0 36 20 60.5t60 24.5q54 0 54 -45q0 -34 -19 -59.5t-61 -25.5q-54 0 -54 45z
" />
    <glyph glyph-name="u0930094D" horiz-adv-x="0" 
d="M207 1310q-76 30 -104 30q-67 0 -120 -51t-52 -126q0 -93 103 -163h-130q-74 75 -74 159q0 103 87 182t202 79q54 0 106 -20z" />
    <glyph glyph-name="u0930094D0902" horiz-adv-x="0" 
d="M167 1310q-76 30 -104 30q-67 0 -120 -51t-52 -126q0 -93 103 -163h-130q-74 75 -74 159q0 103 87 182t202 79q54 0 106 -20zM2 1163q-1 34 18.5 59.5t61.5 25.5q54 0 54 -45q0 -36 -20.5 -60.5t-59.5 -24.5q-54 0 -54 45z" />
    <glyph glyph-name="u094D0930Alt" horiz-adv-x="0" 
d="M-255 210l-543 -260l-24 80l585 270z" />
    <glyph glyph-name="u094D0930Default" horiz-adv-x="0" 
d="M-17 -234h-118l-173 234l-267 -234h-120l347 304h106z" />
    <glyph glyph-name="u0936094D0930" horiz-adv-x="1066" 
d="M1136 910h-143l-185 -910h-100l92 450l-543 -360l-54 80l437 280l-248 110l-341 -200l-50 76l312 178q-101 65 -101 163q0 93 70.5 163t161.5 70q73 0 119 -45t46 -106q0 -55 -33 -115.5t-106 -113.5l262 -120l92 60l69 340h-180l19 90h423zM505 820q3 12 3 23
q0 33 -22.5 55t-60.5 22q-47 0 -80 -39t-33 -91q0 -73 87 -100q90 55 106 130z" />
    <glyph glyph-name="u095E094D0930" horiz-adv-x="1194" 
d="M1264 910h-525l-57 -280q105 100 231 100q94 0 147 -64t53 -151q-1 -82 -49.5 -189.5t-156.5 -215.5l-80 50q95 80 139 174t44 160q0 55 -30.5 95.5t-87.5 40.5q-110 0 -234 -120l-104 -510h-100l54 262l-502 -252l-23 80l545 272l18 88q-109 -90 -219 -90
q-93 0 -149.5 55.5t-56.5 134.5q0 24 5 50l63 310h-198l19 90h1273zM570 570l69 340h-350l-63 -310q-3 -15 -3 -28q0 -46 34.5 -79t90.5 -33q124 0 222 110zM198 -15q0 34 19 59.5t61 25.5q55 0 55 -45q0 -36 -20.5 -60.5t-60.5 -24.5q-54 0 -54 45zM730 0z" />
    <glyph glyph-name="u09240924" horiz-adv-x="1116" 
d="M1186 910h-143l-185 -910h-100l130 640h-310q-78 0 -149 -52t-70 -185q-1 -97 46 -185t137 -148l-74 -70q-103 66 -157.5 168t-53.5 216q0 182 111 256h-330l19 90h850l36 180h-952l19 90h1195z" />
    <glyph glyph-name="u0915094D0937" horiz-adv-x="990" 
d="M1060 910h-143l-185 -910h-100l112 550q-76 -40 -158 -40q-124 0 -244 80q-85 -22 -141.5 -77.5t-56.5 -125.5q0 -58 46.5 -97.5t118.5 -39.5q-10 35 -7 44q8 41 42.5 68.5t77.5 27.5q38 0 60 -22.5t22 -54.5t-20 -70.5t-65 -62.5l65 -170l-90 -50l-79 200
q-116 0 -194 61t-78 151q0 87 56.5 157.5t172.5 110.5q-86 73 -86 151q0 83 76 161t180 78q77 0 124.5 -49t47.5 -116q0 -142 -162 -225q76 -40 152 -40q63 0 160 50l53 260h-100l19 90h343zM509 820q3 12 3 24q0 35 -25.5 60.5t-67.5 25.5q-49 0 -90.5 -38.5t-41.5 -87.5
q0 -55 76 -114q128 45 146 130z" />
    <glyph glyph-name="u091C094D091E" horiz-adv-x="1068" 
d="M1139 910h-143l-185 -910h-100l137 670h-580q-58 0 -58 -45q0 -41 39.5 -98t77.5 -57q34 0 99 20t99 20q41 0 61.5 -34t20.5 -80q0 -117 -104 -201.5t-239 -84.5q21 -84 167 -110l-84 -70q-130 39 -192 140q-67 0 -116 31t-49 78q0 45 33 78t77 33q47 0 118 -110
q119 12 203.5 66.5t84.5 131.5q0 42 -39 42q-22 0 -80 -20t-88 -20q-64 0 -127 86t-63 151q0 66 55.5 109.5t123.5 43.5h580l28 140h-904l19 90h1147z" />
    <glyph glyph-name="u0915094DHalf" horiz-adv-x="878" 
d="M948 910h-253l-55 -270q99 110 233 110q36 0 86 -20l-23 -110q-31 40 -81 40q-79 0 -149 -58t-102 -142l-94 -460h-100l61 300q-108 -90 -198 -90q-104 0 -168.5 61t-64.5 146q0 128 106 230.5t247 102.5q54 0 106 -20l-29 -90q-39 20 -95 20q-93 0 -163 -70t-69 -151
q-1 -54 41.5 -91.5t108.5 -37.5q97 0 209 140l93 460h-604l19 90h957zM1057 556zM1126 0z" />
    <glyph glyph-name="u0916094DHalf" horiz-adv-x="986" 
d="M1056 910h-533l-55 -270q-17 -82 -77 -141t-133 -59q-58 0 -66 20q10 -166 99.5 -268t235.5 -102q258 0 454 220l-24 -120q-199 -190 -449 -190q-209 0 -323.5 174t-114.5 445v31l79 40q40 -150 119 -150q35 0 63.5 30t36.5 70l55 270h-432l19 90h1065zM1008 440
q-109 -90 -239 -90q-82 0 -132 49t-49 118q0 103 83.5 183t195.5 80q92 0 152 -40l-59 -90q-48 30 -113 30q-62 0 -109.5 -43.5t-47.5 -98.5q0 -37 28 -62.5t72 -25.5q127 0 242 110zM882 0zM923 200zM949 330zM966 410zM988 520zM1067 911zM1240 0z" />
    <glyph glyph-name="u0917094DHalf" horiz-adv-x="380" 
d="M450 910h-85l-103 -510q-13 -60 -53 -60t-108 84t-68 127q0 18 13 43.5t40 25.5h80q40 0 53 60l46 230h-274l19 90h459z" />
    <glyph glyph-name="u0918094DHalf" horiz-adv-x="718" 
d="M788 910h-473q-99 -69 -99 -156q0 -43 32.5 -73.5t83.5 -30.5h170l32 -90h-140q-80 0 -137.5 -60t-57.5 -122q0 -47 46.5 -77.5t109.5 -30.5q160 0 389 190l-25 -120q-237 -170 -384 -170q-102 0 -170 54t-68 133q0 56 31 121.5t100 101.5q-55 16 -84.5 59.5t-29.5 97.5
q0 84 81 173h-204l19 90h797zM598 0zM663 320zM690 450zM783 911zM956 20z" />
    <glyph glyph-name="u0919094DHalf" horiz-adv-x="1078" 
d="M1148 910h-283l-53 -260h-370q-37 0 -37 -43q0 -42 43 -99.5t84 -57.5q32 0 94 20t94 20q56 0 88.5 -37t32.5 -87q0 -56 -39 -136t-129 -145t-199 -65q-164 0 -286 120.5t-174 319.5l90 50q47 -175 150.5 -282.5t240.5 -107.5q100 0 172 79.5t73 151.5q0 39 -40 39
q-33 0 -95 -20q-61 -20 -94 -20q-73 0 -140.5 84t-67.5 157q0 66 49.5 112.5t110.5 46.5h270l32 160h-774l19 90h1157zM920 545q0 36 20 60.5t60 24.5q54 0 54 -45q0 -34 -19.5 -59.5t-60.5 -25.5q-54 0 -54 45zM950 0zM769 -288l-72 -60l-251 240l-78 -40l-24 80l120 50z
" />
    <glyph glyph-name="u091A094DHalf" horiz-adv-x="718" 
d="M788 910h-797l19 90h797zM736 420q-216 -240 -369 -240q-90 0 -143.5 56t-53.5 133q0 66 37 142t123 129h-290l21 100h580l-21 -100h-120q-124 -53 -176 -119.5t-51 -129.5q0 -46 31 -78.5t83 -32.5q149 0 381 300zM600 0zM785 911zM673 360zM704 510zM958 0z" />
    <glyph glyph-name="u091B094DHalf" horiz-adv-x="1066" 
d="M1136 910h-803q-113 -81 -113 -175q0 -49 44.5 -82t109.5 -33h110l-20 -100h-80q-81 0 -141.5 -73t-60.5 -148q0 -63 60.5 -106t146.5 -43q129 0 270 100q-87 110 -87 226q0 120 79.5 202t181.5 82q81 0 131 -49t51 -117q0 -90 -74.5 -206.5t-242.5 -227t-330 -110.5
q-123 0 -205.5 66t-82.5 163q0 66 38 147t124 134q-123 63 -123 164q0 46 24 101.5t70 84.5h-222l19 90h1145zM910 550q3 12 3 23q-1 37 -29 62t-71 25q-56 0 -98.5 -47t-42.5 -130q0 -94 73 -153q137 86 165 220z" />
    <glyph glyph-name="u091C094DHalf" horiz-adv-x="884" 
d="M954 910h-963l19 90h963zM938 610h-310q48 -78 48 -177q0 -139 -84 -231t-193 -92q-120 0 -209.5 158.5t-128.5 401.5l98 40q34 -214 103 -352t159 -138q58 0 105.5 50t47.5 149q0 141 -107 281h490zM736 0zM858 600zM879 701zM921 911zM1094 0z" />
    <glyph glyph-name="u091D094DHalf" horiz-adv-x="818" 
d="M888 910h-243l-48 -240h-350q-48 0 -48 -49q0 -41 30 -91t69 -50q30 0 90 25t90 25q40 0 102 -40q47 -30 144 -30q72 0 128 40l-20 -100q-88 -30 -126 -30q-62 0 -88 10l-11 -50q-15 -69 -114.5 -144.5t-169.5 -75.5q38 -38 147 -110l-74 -70q-5 12 -73 62q-79 57 -91 68
q-91 0 -168 31t-77 83q0 37 26 66.5t82 29.5q117 0 158 -110q123 34 196.5 91t73.5 117q0 62 -65 62q-31 0 -91 -25q-59 -25 -89 -25q-58 0 -119 88.5t-61 150.5q0 59 52 100t115 41h250l30 150h-554l19 90h897zM740 0zM822 400zM842 500zM925 911zM1098 0z" />
    <glyph glyph-name="u091E094DHalf" horiz-adv-x="690" 
d="M760 910h-769l19 90h769zM844 450q-92 -40 -158 -40q-18 0 -94 30q-33 -110 -124.5 -185t-198.5 -75q-160 0 -288 160l65 70q111 -140 241 -140q89 0 156.5 76t68.5 163q0 58 -37.5 99.5t-100.5 41.5q-84 0 -148 -40l-33 80q96 60 202 60q94 0 153.5 -61.5t59.5 -158.5
v-10q76 -30 104 -30q82 0 150 50z" />
    <glyph glyph-name="u091F094DHalf" horiz-adv-x="850" 
d="M920 910h-165l-61 -300h-370q-71 0 -126.5 -68t-54.5 -170q-1 -104 71 -178t191 -74q177 0 288 140l66 -70q-135 -170 -375 -170q-157 0 -250.5 97.5t-93.5 232.5q0 153 93 256.5t212 103.5h270l40 200h-664l19 90h929zM763 399zM677 -310l-72 -60l-251 240l-78 -40
l-24 80l120 50z" />
    <glyph glyph-name="u0920094DHalf" horiz-adv-x="872" 
d="M942 910h-189l-59 -290h-350q-79 0 -141 -69.5t-61 -167.5q0 -101 74.5 -187t184.5 -86q103 0 181 82.5t78 184.5q0 94 -80 173l92 60q91 -93 91 -211q-1 -149 -116 -269t-267 -120q-146 0 -243.5 111.5t-96.5 243.5q0 145 99 250t226 105h250l38 190h-662l19 90h951z
M677 -309l-72 -60l-251 240l-78 -40l-24 80l120 50z" />
    <glyph glyph-name="u0921094DHalf" horiz-adv-x="950" 
d="M1020 910h-155l-53 -260h-370q-37 0 -37 -43q0 -42 43 -99.5t84 -57.5q32 0 94 20t94 20q56 0 88.5 -37t32.5 -87q0 -56 -39 -136t-129 -145t-199 -65q-164 0 -286 120.5t-174 319.5l90 50q47 -175 150.5 -282.5t240.5 -107.5q100 0 172 79.5t73 151.5q0 39 -40 39
q-33 0 -95 -20q-61 -20 -94 -20q-73 0 -140.5 84t-67.5 157q0 66 49.5 112.5t110.5 46.5h270l32 160h-774l19 90h1029zM770 -301l-72 -60l-251 240l-78 -40l-24 80l120 50z" />
    <glyph glyph-name="u0922094DHalf" horiz-adv-x="870" 
d="M940 910h-179l-61 -300h-390q-65 0 -116.5 -63.5t-51.5 -149.5q0 -99 78 -188.5t189 -98.5q-42 42 -42 112q0 105 71.5 176.5t163.5 71.5q74 0 118.5 -47t45.5 -110q0 -120 -114.5 -206.5t-261.5 -86.5q-148 0 -249 111.5t-101 243.5q0 136 88.5 235.5t202.5 99.5h290
l40 200h-670l19 90h949zM511 120q83 17 117.5 72t35.5 101q-1 32 -22.5 54.5t-59.5 22.5q-45 0 -79.5 -34.5t-34.5 -105.5q0 -67 43 -110zM683 -320l-72 -60l-251 240l-78 -40l-24 80l120 50z" />
    <glyph glyph-name="u0923094DHalf" horiz-adv-x="682" 
d="M752 910h-89l-89 -440q-20 -94 -102.5 -157t-182.5 -63q-92 0 -151 51.5t-59 125.5q0 21 5 43l89 440h-182l19 90h761zM474 470l89 440h-290l-89 -440q-3 -12 -3 -25q0 -45 35.5 -75t90.5 -30q58 0 106.5 37t60.5 93z" />
    <glyph glyph-name="u0924094DHalf" horiz-adv-x="566" 
d="M636 910h-645l19 90h645zM624 620h-310q-59 0 -113 -36.5t-54 -126.5q0 -166 200 -367l-73 -60q-228 233 -228 421q0 121 90.5 190t196.5 69h310zM556 0zM682 620zM703 720zM741 910zM914 0z" />
    <glyph glyph-name="u0925094DHalf" horiz-adv-x="814" 
d="M828 400q-197 -220 -435 -220q-134 0 -227 92t-116 238h180q114 0 200.5 75t86.5 176q0 61 -42.5 105t-113.5 44q-56 0 -99.5 -38.5t-43.5 -85.5q0 -34 36.5 -55t86.5 -21l-19 -90q-85 0 -146 43t-60 106q0 86 78.5 163.5t187.5 77.5q108 0 172.5 -67t64.5 -161
q0 -151 -130 -256.5t-297 -105.5q55 -150 219 -150q227 0 447 280zM884 910h-193l19 90h193zM679 0zM752 360zM779 490zM864 911zM1030 0z" />
    <glyph glyph-name="u0926094DHalf" horiz-adv-x="826" 
d="M896 910h-133l-53 -260h-390q-68 0 -120 -52t-52 -129q-1 -96 101 -157.5t240 -61.5q13 64 53.5 117t91.5 53q65 0 65 -62q0 -40 -30.5 -85t-91.5 -83l71 -190l-98 -40l-69 200q-178 0 -306.5 82.5t-128.5 210.5q0 120 89 208.5t206 88.5h290l32 160h-672l19 90h905z
M567 -221l-72 -60l-251 240l-78 -40l-24 80l120 50z" />
    <glyph glyph-name="u0927094DHalf" horiz-adv-x="736" 
d="M741 360q-240 -200 -400 -200q-98 0 -164 51t-66 128q0 61 33 120t96 91q-63 32 -97 89t-34 124q0 109 76 183t171 74q68 0 114 -37t46 -93q0 -75 -65 -127.5t-148 -52.5l18 90q50 0 71.5 21.5t21.5 48.5q0 50 -79 50q-50 0 -87.5 -38t-37.5 -107q0 -57 32 -105t88 -70
q88 30 126 30h100l34 -80h-120q-106 0 -186.5 -58.5t-80.5 -133.5q0 -47 46.5 -77.5t109.5 -30.5q158 0 409 240zM806 910h-203l19 90h203zM616 0zM683 330zM712 470zM801 911zM974 0z" />
    <glyph glyph-name="u0928094DHalf" horiz-adv-x="592" 
d="M662 910h-671l19 90h671zM638 560h-310q-60 0 -68 -40l-22 -110q-13 -60 -53 -60q-42 0 -91.5 91t-48.5 142q0 67 81 67h530zM522 0zM634 550zM654 651zM707 911zM880 0z" />
    <glyph glyph-name="u0929094DHalf" horiz-adv-x="592" 
d="M662 910h-671l19 90h671zM638 560h-310q-60 0 -68 -40l-22 -110q-13 -60 -53 -60q-42 0 -91.5 91t-48.5 142q0 67 81 67h530zM522 0zM634 550zM654 651zM707 911zM880 0zM232 54q0 36 20.5 60.5t60.5 24.5q54 0 54 -45q0 -34 -19.5 -59.5t-61.5 -25.5q-54 0 -54 45z" />
    <glyph glyph-name="u092A094DHalf" horiz-adv-x="530" 
d="M610 910h-353l-65 -320q-4 -22 -4 -41q0 -61 39.5 -105t106.5 -44q137 0 242 160l-28 -140q-99 -110 -233 -110q-106 0 -166.5 67t-60.5 160q0 30 6 63l63 310h-166l19 90h619zM448 0zM526 380zM556 530zM633 911zM806 0z" />
    <glyph glyph-name="u092B094DHalf" horiz-adv-x="884" 
d="M954 910h-253l-59 -290q116 110 213 110q55 0 104 -30l-21 -100q-48 40 -102 40q-83 0 -220 -150l-100 -490h-100l82 400q-96 -90 -199 -90q-97 0 -156 58.5t-58 139.5q0 25 5 52l71 350h-170l19 90h963zM524 530l77 380h-340l-71 -350q-3 -17 -3 -34q-1 -52 35 -89
t96 -37q92 0 206 130zM730 0z" />
    <glyph glyph-name="u092C094DHalf" horiz-adv-x="550" 
d="M620 910h-629l19 90h629zM547 320q-114 -130 -276 -130q-105 0 -167.5 64.5t-62.5 155.5q0 136 110 248t258 112q56 0 96 -20l-21 -100q-23 20 -95 20t-129 -40l264 -230l50 50zM453 350l-255 220q-28 -28 -41 -66t-13 -71q0 -58 40.5 -100.5t106.5 -42.5q90 0 162 60z
" />
    <glyph glyph-name="u092D094DHalf" horiz-adv-x="700" 
d="M722 440h-330l-19 -90q-8 -40 -58 -40q-30 0 -94 62.5t-64 92.5q0 23 23.5 44t49.5 21h80l59 290q3 12 3 24q0 31 -19 53.5t-54 22.5q-57 0 -81.5 -26t-24.5 -62q0 -62 66 -62l-20 -100q-67 0 -107.5 42t-40.5 101q0 85 69.5 146t159.5 61q70 0 111.5 -46.5t42.5 -109.5
q0 -21 -5 -44l-59 -290h330zM770 910h-213l19 90h213z" />
    <glyph glyph-name="u092E094DHalf" horiz-adv-x="600" 
d="M670 910h-333l-71 -330h380l-18 -100h-380l-18 -90q-8 -40 -49 -40q-31 0 -93.5 66.5t-62.5 98.5q0 65 61 65h80l71 330h-246l19 90h679zM512 0zM610 481zM630 581zM697 911zM870 0z" />
    <glyph glyph-name="u092F094DHalf" horiz-adv-x="620" 
d="M690 910h-313q49 -60 49 -133q0 -100 -78.5 -188t-195.5 -99q14 -85 65.5 -137.5t125.5 -52.5q162 0 309 190l-29 -140q-155 -150 -300 -150q-124 0 -201 103t-86 257q108 0 198 55.5t90 142.5q0 69 -67 152h-266l19 90h699zM538 0zM601 310zM630 450zM723 911zM896 0z
" />
    <glyph glyph-name="u093F_2" horiz-adv-x="400" 
d="M470 910h-143l-185 -910h-100l185 910h-236l19 90h236q-15 27 -15 59q-1 72 64.5 153t236.5 144.5t359 63.5q360 0 631 -101.5t398 -298.5h-120q-247 310 -927 310q-205 0 -373.5 -74t-168.5 -197q0 -32 15 -59h143z" />
    <glyph glyph-name="u093F_2_0902" horiz-adv-x="400" 
d="M470 910h-143l-185 -910h-100l185 910h-236l19 90h236q-15 27 -15 59q-1 72 64.5 153t236.5 144.5t359 63.5q360 0 631 -101.5t398 -298.5h-120q-247 310 -927 310q-205 0 -373.5 -74t-168.5 -197q0 -32 15 -59h143zM1865 1335q0 36 20.5 60.5t60.5 24.5q54 0 54 -45
q0 -34 -19.5 -59.5t-61.5 -25.5q-54 0 -54 45z" />
    <glyph glyph-name="u0932094DHalf" horiz-adv-x="812" 
d="M882 910h-891l19 90h891zM862 580q-106 0 -203 -74t-150 -186l-82 40q69 120 111 150q-59 90 -162 90q-92 0 -166.5 -64t-74.5 -163q0 -89 70.5 -168.5t185.5 -124.5l-57 -80q-135 52 -218 149t-83 208q0 141 110.5 242t253.5 101q130 0 225 -120q121 100 261 100z" />
    <glyph glyph-name="u0933094DHalf" horiz-adv-x="986" 
d="M1056 910h-1065l19 90h1065zM503 310q-49 -87 -119.5 -143.5t-140.5 -56.5q-98 0 -151.5 69.5t-53.5 165.5q0 143 99 264t232 121q74 0 125 -52.5t66 -137.5q109 190 259 190q94 0 145 -68t51 -159q0 -140 -97 -266.5t-225 -126.5q-74 0 -125.5 56.5t-64.5 143.5z
M488 430q-15 88 -52 144t-88 56q-81 0 -144.5 -84t-63.5 -179q0 -62 31 -109.5t92 -47.5q101 0 225 220zM576 420v-11q-1 -83 36 -141t101 -58q79 0 139.5 91t60.5 181q0 58 -29 103t-86 45q-66 0 -128 -62t-94 -148zM1104 0z" />
    <glyph glyph-name="u0934094DHalf" horiz-adv-x="986" 
d="M1056 910h-1065l19 90h1065zM503 310q-49 -87 -119.5 -143.5t-140.5 -56.5q-98 0 -151.5 69.5t-53.5 165.5q0 143 99 264t232 121q74 0 125 -52.5t66 -137.5q109 190 259 190q94 0 145 -68t51 -159q0 -140 -97 -266.5t-225 -126.5q-74 0 -125.5 56.5t-64.5 143.5z
M488 430q-15 88 -52 144t-88 56q-81 0 -144.5 -84t-63.5 -179q0 -62 31 -109.5t92 -47.5q101 0 225 220zM576 420v-11q-1 -83 36 -141t101 -58q79 0 139.5 91t60.5 181q0 58 -29 103t-86 45q-66 0 -128 -62t-94 -148zM1104 0zM382 34q0 36 20.5 60.5t60.5 24.5q54 0 54 -45
q0 -34 -19.5 -59.5t-61.5 -25.5q-54 0 -54 45z" />
    <glyph glyph-name="u0935094DHalf" horiz-adv-x="520" 
d="M590 910h-599l19 90h599zM517 320q-120 -100 -240 -100q-105 0 -167 65.5t-62 156.5q0 134 103.5 236t239.5 102q92 0 152 -40l-59 -90q-36 30 -113 30q-89 0 -155 -66t-66 -155q0 -61 39 -105t106 -44q101 0 249 140zM458 0zM523 320zM554 470zM643 911zM816 0z" />
    <glyph glyph-name="u0936094DHalf" horiz-adv-x="668" 
d="M213 330l260 -250l-77 -80l-380 390l74 70l88 -60q115 0 212.5 75.5t120.5 188.5q-70 -80 -166 -80q-89 0 -143 54t-54 131q0 112 87 196.5t205 84.5q97 0 145 -59t49 -162q-1 -200 -127.5 -349.5t-293.5 -149.5zM250 791q-1 -46 31 -78.5t84 -32.5q64 0 112.5 53
t48.5 116q0 41 -28.5 71t-77.5 30q-68 0 -119 -47.5t-51 -111.5z" />
    <glyph glyph-name="u0937094DHalf" horiz-adv-x="554" 
d="M624 910h-323l293 -380l-30 -150q-146 -90 -239 -90q-107 0 -174 63t-67 153q0 26 6 54l71 350h-170l19 90h633zM528 450l-285 370l-53 -260q-4 -20 -4 -36q0 -59 43.5 -101.5t114.5 -42.5q88 0 184 70z" />
    <glyph glyph-name="u0938094DHalf" horiz-adv-x="786" 
d="M856 910h-303l-55 -270q-16 -78 -76 -134t-132 -56q-46 0 -65 18q92 -219 269 -398l-74 -70q-267 270 -373 670l100 50q38 -180 131 -180q43 0 77 28.5t43 71.5l55 270h-462l19 90h865zM806 480h-270l-30 100h320z" />
    <glyph glyph-name="u0939094DHalf" horiz-adv-x="794" 
d="M864 910h-123l-48 -240h-410q-37 0 -59 -12t-22 -53q0 -65 78 -95h550l-18 -90h-420q-108 0 -187.5 -59t-78.5 -125q-1 -67 125.5 -125.5t298.5 -90.5l-74 -70q-187 35 -319.5 110t-132.5 165q0 58 44 120t130 105q-98 51 -98 141q0 81 63.5 125t137.5 44h310l30 150
h-650l19 90h873z" />
    <glyph glyph-name="u0958094DHalf" horiz-adv-x="878" 
d="M948 910h-253l-55 -270q99 110 233 110q36 0 86 -20l-23 -110q-31 40 -81 40q-79 0 -149 -58t-102 -142l-94 -460h-100l61 300q-108 -90 -198 -90q-104 0 -168.5 61t-64.5 146q0 128 106 230.5t247 102.5q54 0 106 -20l-29 -90q-39 20 -95 20q-93 0 -163 -70t-69 -151
q-1 -54 41.5 -91.5t108.5 -37.5q97 0 209 140l93 460h-604l19 90h957zM1057 556zM1126 0zM138 55q0 36 20.5 60.5t60.5 24.5q54 0 54 -45q0 -34 -19.5 -59.5t-61.5 -25.5q-54 0 -54 45z" />
    <glyph glyph-name="u0959094DHalf" horiz-adv-x="986" 
d="M1056 910h-533l-55 -270q-17 -82 -77 -141t-133 -59q-58 0 -66 20q10 -166 99.5 -268t235.5 -102q258 0 454 220l-24 -120q-199 -190 -449 -190q-209 0 -323.5 174t-114.5 445v31l79 40q40 -150 119 -150q35 0 63.5 30t36.5 70l55 270h-432l19 90h1065zM1008 440
q-109 -90 -239 -90q-82 0 -132 49t-49 118q0 103 83.5 183t195.5 80q92 0 152 -40l-59 -90q-48 30 -113 30q-62 0 -109.5 -43.5t-47.5 -98.5q0 -37 28 -62.5t72 -25.5q127 0 242 110zM882 0zM923 200zM949 330zM966 410zM988 520zM1067 911zM1240 0zM-8 54q0 36 20.5 60.5
t60.5 24.5q54 0 54 -45q0 -34 -19.5 -59.5t-61.5 -25.5q-54 0 -54 45z" />
    <glyph glyph-name="u095A094DHalf" horiz-adv-x="380" 
d="M450 910h-85l-103 -510q-13 -60 -53 -60t-108 84t-68 127q0 18 13 43.5t40 25.5h80q40 0 53 60l46 230h-274l19 90h459zM39 54q0 36 20.5 60.5t60.5 24.5q54 0 54 -45q0 -34 -19.5 -59.5t-61.5 -25.5q-54 0 -54 45z" />
    <glyph glyph-name="u095B094DHalf" horiz-adv-x="900" 
d="M970 910h-979l19 90h979zM954 600h-300q49 -60 49 -133q0 -104 -84 -175.5t-192 -71.5q-142 0 -240.5 126t-129.5 324l98 40q26 -168 103.5 -279t188.5 -111q61 0 106.5 35t45.5 80q0 76 -116 265h490zM260 55q0 36 20.5 60.5t60.5 24.5q54 0 54 -45q0 -34 -19.5 -59.5
t-61.5 -25.5q-54 0 -54 45zM736 0zM858 601zM879 701zM921 911zM1094 0z" />
    <glyph glyph-name="u095E094DHalf" horiz-adv-x="884" 
d="M954 910h-253l-59 -290q116 110 213 110q55 0 104 -30l-21 -100q-48 40 -102 40q-83 0 -220 -150l-100 -490h-100l82 400q-96 -90 -199 -90q-97 0 -156 58.5t-58 139.5q0 25 5 52l71 350h-170l19 90h963zM524 530l77 380h-340l-71 -350q-3 -17 -3 -34q-1 -52 35 -89
t96 -37q92 0 206 130zM730 0zM134 54q0 36 20.5 60.5t60.5 24.5q54 0 54 -45q0 -34 -19.5 -59.5t-61.5 -25.5q-54 0 -54 45z" />
    <glyph glyph-name="u0936094D0930Half" horiz-adv-x="550" 
d="M690 380l-318 210q-171 -124 -328 -190l-36 70q205 106 294 170q-94 61 -94 156q0 94 74 164t170 70q77 0 126 -45t49 -108q0 -117 -153 -227l238 -160zM523 840q7 39 -20 64.5t-72 25.5q-48 0 -84.5 -32.5t-36.5 -83.5q0 -70 83 -124q115 68 130 150z" />
    <glyph glyph-name="u0924094D0930Half" horiz-adv-x="688" 
d="M758 910h-767l19 90h767zM702 400l-545 -320l-34 80l487 280q-117 131 -172 165.5t-98 34.5q-69 0 -264 -120l-44 80q253 150 331 150q168 0 353 -280z" />
    <glyph glyph-name="u0924094D0924Half" horiz-adv-x="498" 
d="M568 910h-577l19 90h577zM690 640h-200q-80 0 -151 -61t-71 -183q0 -168 156 -326l-84 -70q-174 176 -174 375q0 93 29.5 152t94.5 113h-250l21 100h650z" />
    <glyph glyph-name="u0915094D0937Half" horiz-adv-x="822" 
d="M874 590q-152 -80 -286 -80q-148 0 -244 80q-212 -89 -212 -224q0 -56 41.5 -96t107.5 -40q18 0 64 20q12 57 48 98.5t81 41.5q35 0 53.5 -22t18.5 -54q0 -63 -83 -124q17 -69 65 -120l-82 -60q-38 30 -91 140q-37 -10 -82 -10q-104 0 -168.5 60t-64.5 147
q0 96 58.5 174.5t175.5 118.5q-85 72 -85 155q0 94 81 169.5t186 75.5q77 0 124.5 -49t47.5 -116q0 -151 -164 -235q76 -40 142 -40q143 0 289 90zM523 830q3 13 3 25q-1 36 -25 60.5t-66 24.5q-57 0 -101.5 -40t-43.5 -101q0 -75 83 -119q132 58 150 150zM892 910h-163
l19 90h163zM632 0z" />
    <glyph glyph-name="u091C094D091EHalf" horiz-adv-x="720" 
d="M790 910h-799l19 90h799zM789 670h-540q-50 0 -50 -57q-1 -39 35 -81t78 -42q33 0 98 15t98 15q53 0 84 -32t31 -77q0 -95 -97.5 -184t-250.5 -117q22 -28 147 -110l-90 -50q-122 80 -181 140q-161 0 -161 87q0 41 25.5 72t83.5 31q64 0 110 -100q140 25 226 87.5
t86 125.5q0 27 -33 27t-98 -15t-98 -15q-76 0 -135.5 68t-59.5 139t53 117t117 46h540z" />
    <glyph glyph-name="u093F0902" horiz-adv-x="400" 
d="M470 910h-143l-185 -910h-100l185 910h-236l19 90h236q-12 21 -12 58q0 149 116.5 255.5t270.5 106.5q162 0 291 -108.5t198 -291.5h-110q-54 142 -159 226t-238 84q-106 0 -188 -74t-81 -198q0 -37 12 -58h143zM1125 1309q0 36 20.5 60.5t60.5 24.5q54 0 54 -45
q0 -34 -19.5 -59.5t-61.5 -25.5q-54 0 -54 45z" />
    <glyph glyph-name="u093F0930094D" horiz-adv-x="400" 
d="M470 910h-143l-185 -910h-100l185 910h-236l19 90h236q-12 21 -12 58q0 149 116.5 255.5t270.5 106.5q191 0 342 -158q31 78 108 128t164 50q54 0 106 -20l-18 -90q-76 30 -104 30q-66 0 -119.5 -51t-53.5 -136q0 -17 2 -33q17 -26 52 -120h-100q-54 142 -159 226
t-238 84q-106 0 -188 -74t-81 -198q0 -37 12 -58h143z" />
    <glyph glyph-name="u093F0930094D0902" horiz-adv-x="400" 
d="M470 910h-143l-185 -910h-100l185 910h-236l19 90h236q-12 21 -12 58q0 149 116.5 255.5t270.5 106.5q191 0 342 -158q31 78 108 128t164 50q54 0 106 -20l-18 -90q-76 30 -104 30q-66 0 -119.5 -51t-53.5 -136q0 -17 2 -33q17 -26 52 -120h-100q-54 142 -159 226
t-238 84q-106 0 -188 -74t-81 -198q0 -37 12 -58h143zM1150 1157q0 36 20.5 60.5t60.5 24.5q54 0 54 -45q0 -34 -19.5 -59.5t-61.5 -25.5q-54 0 -54 45z" />
    <glyph glyph-name="u093F_3" horiz-adv-x="400" 
d="M470 910h-143l-185 -910h-100l185 910h-236l19 90h236q-27 33 -27 88q0 140 116.5 231t263.5 91q143 0 243 -109t128 -281h-90q-35 133 -114.5 216.5t-184.5 83.5q-98 0 -178.5 -58t-80.5 -154q0 -58 34 -108h133z" />
    <glyph glyph-name="u093F_3_0902" horiz-adv-x="400" 
d="M470 910h-143l-185 -910h-100l185 910h-236l19 90h236q-27 33 -27 88q0 140 116.5 231t263.5 91q143 0 243 -109t128 -281h-90q-35 133 -114.5 216.5t-184.5 83.5q-98 0 -178.5 -58t-80.5 -154q0 -58 34 -108h133zM982 1366q0 36 20.5 60.5t60.5 24.5q54 0 54 -45
q0 -34 -19.5 -59.5t-61.5 -25.5q-54 0 -54 45z" />
    <glyph glyph-name="u093F_3_0930094D" horiz-adv-x="400" 
d="M470 910h-143l-185 -910h-100l185 910h-236l19 90h236q-27 33 -27 88q0 140 116.5 231t263.5 91q158 0 266 -136q87 146 256 146q54 0 106 -20l-18 -90q-49 30 -104 30q-63 0 -116 -47t-59 -133q27 -66 40 -140h-90q-35 133 -114.5 216.5t-184.5 83.5q-98 0 -178.5 -58
t-80.5 -154q0 -58 34 -108h133z" />
    <glyph glyph-name="u093F_3_0930094D0902" horiz-adv-x="400" 
d="M470 910h-143l-185 -910h-100l185 910h-236l19 90h236q-27 33 -27 88q0 140 116.5 231t263.5 91q158 0 266 -136q87 146 256 146q54 0 106 -20l-18 -90q-49 30 -104 30q-63 0 -116 -47t-59 -133q27 -66 40 -140h-90q-35 133 -114.5 216.5t-184.5 83.5q-98 0 -178.5 -58
t-80.5 -154q0 -58 34 -108h133zM1018 1147q0 36 20.5 60.5t60.5 24.5q54 0 54 -45q0 -34 -19.5 -59.5t-61.5 -25.5q-54 0 -54 45z" />
    <glyph glyph-name="u09400902" horiz-adv-x="400" 
d="M470 910h-143l-185 -910h-100l185 910h-236l19 90h236q-11 140 -61.5 235t-131.5 95q-60 0 -104 -48.5t-44 -108.5q0 -70 66 -153h-110q-57 72 -57 144q0 98 81 177t186 79q117 0 190 -121.5t85 -298.5h143zM394 1323q0 36 20.5 60.5t60.5 24.5q54 0 54 -45
q0 -34 -19.5 -59.5t-61.5 -25.5q-54 0 -54 45z" />
    <glyph glyph-name="u09400930094D" horiz-adv-x="400" 
d="M470 910h-142l-185 -910h-100l185 910h-236l19 90h236v14q0 131 -45.5 223.5t-127.5 92.5q-66 0 -117.5 -47t-51.5 -110q0 -70 66 -153h-110q-57 72 -57 144q0 99 86.5 182.5t203.5 83.5q119 0 200 -150q81 140 248 140q54 0 106 -20l-18 -90q-76 30 -104 30
q-66 0 -119 -53.5t-68 -126.5q11 -69 11 -115q0 -26 -3 -45h142z" />
    <glyph glyph-name="u09400930094D0902" horiz-adv-x="400" 
d="M470 910h-142l-185 -910h-100l185 910h-236l19 90h236v14q0 131 -45.5 223.5t-127.5 92.5q-66 0 -117.5 -47t-51.5 -110q0 -70 66 -153h-110q-57 72 -57 144q0 99 86.5 182.5t203.5 83.5q119 0 200 -150q81 140 248 140q54 0 106 -20l-18 -90q-76 30 -104 30
q-66 0 -119 -53.5t-68 -126.5q11 -69 11 -115q0 -26 -3 -45h142zM449 1143q0 36 20.5 60.5t60.5 24.5q54 0 54 -45q0 -34 -19.5 -59.5t-61.5 -25.5q-54 0 -54 45z" />
    <glyph glyph-name="u0940_2" horiz-adv-x="400" 
d="M470 910h-143l-185 -910h-100l185 910h-236l19 90h236q-25 151 -138.5 240.5t-274.5 89.5q-99 0 -184 -52.5t-85 -161.5q0 -75 50 -126h-110q-41 41 -41 113q0 145 119.5 231t268.5 86q193 0 329 -114.5t166 -305.5h143z" />
    <glyph glyph-name="u0940_2_0902" horiz-adv-x="400" 
d="M470 910h-143l-185 -910h-100l185 910h-236l19 90h236q-25 151 -138.5 240.5t-274.5 89.5q-99 0 -184 -52.5t-85 -161.5q0 -75 50 -126h-110q-41 41 -41 113q0 145 119.5 231t268.5 86q193 0 329 -114.5t166 -305.5h143zM362 1323q0 36 20.5 60.5t60.5 24.5q54 0 54 -45
q0 -34 -19.5 -59.5t-61.5 -25.5q-54 0 -54 45z" />
    <glyph glyph-name="u0940_2_0930094D" horiz-adv-x="400" 
d="M470 910h-143l-185 -910h-100l185 910h-236l19 90h236q-25 151 -138.5 240.5t-274.5 89.5q-99 0 -184 -52.5t-85 -161.5q0 -75 50 -126h-110q-41 41 -41 113q0 145 119.5 231t268.5 86q261 0 403 -194q28 85 106 139.5t171 54.5q54 0 106 -20l-18 -90q-76 30 -104 30
q-69 0 -124 -55.5t-55 -174.5q0 -66 26 -110h127z" />
    <glyph glyph-name="u0940_2_0930094D0902" horiz-adv-x="400" 
d="M470 910h-143l-185 -910h-100l185 910h-236l19 90h236q-25 151 -138.5 240.5t-274.5 89.5q-99 0 -184 -52.5t-85 -161.5q0 -75 50 -126h-110q-41 41 -41 113q0 145 119.5 231t268.5 86q261 0 403 -194q28 85 106 139.5t171 54.5q54 0 106 -20l-18 -90q-76 30 -104 30
q-69 0 -124 -55.5t-55 -174.5q0 -66 26 -110h127zM438 1155q0 36 20.5 60.5t60.5 24.5q54 0 54 -45q0 -34 -19.5 -59.5t-61.5 -25.5q-54 0 -54 45z" />
    <glyph glyph-name="u0941_2" horiz-adv-x="0" 
d="M-883 -360l62 60q102 -130 324 -130q96 0 161 38.5t65 100.5q0 51 -68 51q-92 0 -165 -94l-43 54q99 120 225 120q61 0 97 -32.5t36 -81.5q0 -96 -90.5 -166t-234.5 -70q-275 0 -369 150z" />
    <glyph glyph-name="u0942_2" horiz-adv-x="0" 
d="M111 -450l-80 -50q-162 250 -390 250q-69 0 -98.5 -30t-29.5 -65q0 -65 145 -65h21l-66 -80q-75 0 -133 38t-58 95q0 74 69.5 130.5t166.5 56.5q276 0 453 -280z" />
    <glyph glyph-name="u0941_3" horiz-adv-x="0" 
d="M-899 -300l64 70q87 -81 192.5 -135.5t187.5 -54.5q98 0 164 42.5t67 111.5q0 40 -33.5 68t-84.5 28q-63 0 -177 -80l-47 60q141 100 240 100q81 0 132 -46.5t51 -113.5q0 -107 -91 -178.5t-237 -71.5q-206 0 -428 200z" />
    <glyph glyph-name="u0942_3" horiz-adv-x="0" 
d="M57 -420l-88 -40q-50 131 -137.5 210.5t-193.5 79.5q-57 0 -101 -39.5t-44 -90.5q0 -34 25 -57t67 -23q72 0 128 40l26 -70q-81 -50 -170 -50q-74 0 -120.5 42.5t-46.5 102.5q0 89 77 157t175 68q133 0 239 -88.5t164 -241.5z" />
    <glyph glyph-name="u0935Below" horiz-adv-x="0" 
d="M-376 -530h-100l25 120q-108 -80 -236 -80q-93 0 -151 52.5t-58 130.5q0 110 91 188.5t209 78.5q87 0 160 -50l-58 -90q-56 40 -122 40q-69 0 -123 -41.5t-54 -103.5q0 -45 35 -75t91 -30q131 0 242 110l74 360h100z" />
    <glyph glyph-name="u092FAlt" horiz-adv-x="940" 
d="M1010 910h-143l-185 -910h-100l51 250q-103 -100 -250 -100q-128 0 -205.5 90t-77.5 228v12h100q108 0 155.5 37.5t48.5 88.5q0 37 -38.5 60.5t-92.5 23.5q-61 0 -180 -20q-118 -20 -179 -20l21 100q60 0 179 20t179 20q90 0 151.5 -47t61.5 -116q0 -94 -79.5 -160.5
t-212.5 -66.5q11 -72 62.5 -116t124.5 -44q79 0 150.5 40.5t110.5 109.5l105 520h-838l19 90h1081z" />
    <glyph glyph-name="u0930094DHalf" horiz-adv-x="432" 
d="M502 910h-511l19 90h511zM462 480q-92 -40 -178 -40q-124 0 -262 90l18 90q156 -80 264 -80q62 0 180 50z" />
    <glyph glyph-name="u0932Alt" horiz-adv-x="1030" 
d="M1100 910h-237l-44 -220q61 -21 87.5 -82.5t26.5 -139.5q0 -138 -72 -252t-243 -216l-43 80q132 78 193 163t61 190q0 64 -24 110.5t-77 46.5q-65 0 -135 -79t-120 -191l-84 30q31 72 79 140q-41 100 -140 100q-77 0 -135.5 -76t-58.5 -169q0 -81 50.5 -152.5
t140.5 -112.5l-57 -80q-109 51 -172.5 140.5t-63.5 190.5q0 133 94.5 246t222.5 113q144 0 197 -110q79 90 173 110l44 220h-772l19 90h1109z" />
    <glyph glyph-name="u0915094D0930" horiz-adv-x="1156" 
d="M1226 910h-501l-55 -270q94 120 235 120q87 0 134.5 -61t47.5 -143q0 -98 -63 -209t-207 -217l-78 60q136 86 191 178t55 166q0 51 -25.5 88.5t-74.5 37.5q-74 0 -143 -54.5t-106 -135.5l-96 -470h-100l60 292l-496 -322l-46 70l279 172q-80 11 -123.5 68.5t-43.5 132.5
q-1 134 109 240.5t256 106.5q76 0 96 -20l-41 -100q-31 20 -75 20q-96 0 -169.5 -69.5t-73.5 -154.5q0 -52 35.5 -89t95.5 -37q127 0 227 130l95 470h-634l19 90h1235z" />
    <glyph glyph-name="u0916094D0930" horiz-adv-x="1232" 
d="M1302 910h-143l-185 -910h-100l41 200l-803 -360l-24 80l340 150q-166 28 -256 160t-106 420l81 50q19 -140 91 -140q44 0 80 39t47 91l44 220h-418l19 90h1311zM935 300l23 110q-97 -70 -195 -70q-82 0 -132 49t-49 118q-1 101 83.5 177t193.5 76q72 0 134 -30l-49 -90
q-40 30 -103 30t-110.5 -43.5t-47.5 -101.5q0 -40 27 -67.5t72 -27.5q83 0 196 80l81 400h-550l-44 -220q-18 -88 -82.5 -154t-142.5 -66q-18 0 -56 20q9 -152 102.5 -246t238.5 -94q120 0 410 150z" />
    <glyph glyph-name="u0917094D0930" horiz-adv-x="796" 
d="M866 910h-143l-185 -910h-100l56 274l-510 -244l-23 80l553 264l109 536h-250l-99 -490q-13 -60 -63 -60q-39 0 -96.5 87.5t-57.5 131.5q0 51 49 51h70q40 0 51 50l46 230h-282l19 90h875z" />
    <glyph glyph-name="u091C094D0930" horiz-adv-x="1090" 
d="M1160 910h-143l-185 -910h-100l47 230l-521 -250l-24 80l563 260l57 280h-250q39 -77 39 -136q0 -87 -74.5 -160.5t-169.5 -73.5q-132 0 -222.5 117.5t-122.5 302.5l99 40q25 -156 95.5 -258t170.5 -102q48 0 86 36.5t39 105.5q0 104 -99 228h430l42 210h-926l19 90h1169
z" />
    <glyph glyph-name="u091D094D0930" horiz-adv-x="1108" 
d="M1178 910h-143l-185 -910h-100l33 160l-255 -120l-35 70l306 130l33 160q-74 -30 -116 -30q-48 0 -124 30q-49 -238 -287 -280q65 -66 149 -100l-88 -90q-120 62 -189 150q-74 0 -131 28.5t-57 74.5q0 42 36 69.5t82 27.5q94 0 140 -100q100 19 169 73.5t69 131.5
q0 45 -37 45q-31 0 -89 -20q-59 -20 -89 -20q-56 0 -114 84.5t-58 144.5q0 64 55 107.5t122 43.5h250l30 140h-564l19 90h1187zM852 500l83 410h-280l-48 -240h-350q-58 0 -58 -43q0 -37 33.5 -87t67.5 -50q30 0 88 15t88 15q72 0 96 -20q48 -40 142 -40q44 0 138 40z" />
    <glyph glyph-name="u0924094D0930" horiz-adv-x="810" 
d="M880 910h-143l-185 -910h-100l76 370l-409 -240l-34 80l411 240q-112 140 -194 140q-113 0 -226 -80l-44 80q142 100 291 100q110 0 237 -160l77 380h-646l19 90h889z" />
    <glyph glyph-name="u0926094D0930" horiz-adv-x="822" 
d="M892 910h-137l-53 -260h-370q-69 0 -125.5 -50.5t-56.5 -129.5q0 -85 79 -152.5t182 -67.5q42 0 62 10q-16 32 -16 60q0 51 41.5 85.5t91.5 34.5q41 0 65.5 -25t24.5 -60q0 -89 -107 -145q16 -98 87 -210l-108 -40q-61 77 -85 220l-383 -260l-56 70l287 180
q-121 35 -194 113t-73 173q0 117 91.5 205.5t213.5 88.5h270l32 160h-664l19 90h901z" />
    <glyph glyph-name="u092Q094D0930" horiz-adv-x="866" 
d="M936 910h-143l-185 -910h-100l78 380l-578 -380l-43 80l344 220q-80 21 -127 77.5t-47 126.5q0 22 5 46l73 360h-222l19 90h945zM608 490l85 420h-380l-73 -360q-4 -20 -4 -35q0 -55 38.5 -95t101.5 -40q16 0 32 1t30 9z" />
    <glyph glyph-name="u092B094D0930" horiz-adv-x="1198" 
d="M1268 910h-525l-57 -280q105 100 231 100q94 0 147 -64t53 -151q0 -82 -49 -189.5t-157 -215.5l-80 50q95 80 139 174t44 160q0 55 -30.5 95.5t-87.5 40.5q-110 0 -234 -120l-104 -510h-100l45 222l-493 -212l-23 80l537 232l18 88q-109 -90 -219 -90q-93 0 -149.5 55.5
t-56.5 134.5q0 24 5 50l71 350h-202l19 90h1277zM566 530l77 380h-350l-71 -350q-3 -15 -3 -28q0 -47 35 -79.5t90 -32.5q124 0 222 110zM730 0z" />
    <glyph glyph-name="u092C094D0930" horiz-adv-x="826" 
d="M896 910h-143l-185 -910h-100l61 300l-511 -300l-33 80l264 152q-84 19 -136 76t-52 129q0 120 108.5 226.5t255.5 106.5q75 0 124 -30l-46 -80q-40 20 -96 20q-89 0 -129 -40l246 -220l38 40l91 450h-662l19 90h905zM441 360l-225 220q-54 -55 -53 -131
q-1 -54 41.5 -91.5t108.5 -37.5q72 0 128 40z" />
    <glyph glyph-name="u092D094D0930" horiz-adv-x="990" 
d="M1060 910h-143l-185 -910h-100l51 250l-521 -250l-23 80l562 260l19 90h-330l-17 -80q-8 -40 -58 -40q-30 0 -87 70.5t-57 103.5q0 46 59 46h80l59 290q3 12 3 24q0 31 -19 53.5t-54 22.5q-57 0 -81.5 -26t-24.5 -62q0 -62 66 -62l-20 -100q-67 0 -107.5 42t-40.5 101
q0 85 69.5 146t159.5 61q70 0 111.5 -46.5t42.5 -109.5q0 -21 -5 -44l-59 -290h330l77 380h-260l19 90h503z" />
    <glyph glyph-name="u092E094D0930" horiz-adv-x="870" 
d="M944 910h-143l-185 -910h-100l49 238l-501 -248l-34 80l553 260l31 150h-350l-14 -70q-12 -60 -53 -60q-33 0 -98.5 70.5t-64.5 103.5q0 56 60 56h80l67 330h-250l19 90h953zM634 580l67 330h-360l-67 -330h360z" />
    <glyph glyph-name="u0935094D0930" horiz-adv-x="832" 
d="M902 910h-143l-185 -910h-100l63 310l-503 -310l-33 80l257 144q-92 14 -146 74.5t-54 139.5q0 127 108.5 224.5t252.5 97.5q74 0 122 -40l-67 -80q-31 30 -73 30q-94 0 -167.5 -64.5t-72.5 -147.5q0 -58 47.5 -98t120.5 -40q125 0 241 150l89 440h-668l19 90h911z" />
    <glyph glyph-name="u0938094D0930" horiz-adv-x="1178" 
d="M1248 910h-143l-185 -910h-100l65 320l-442 -160l-22 90l483 160l16 80h-350l-22 90h390l67 330h-470l-55 -270q-16 -77 -69.5 -133.5t-118.5 -56.5q-35 0 -48 10l196 -410l-90 -50l-300 640l95 70q44 -170 125 -170q39 0 70.5 29t39.5 71l55 270h-444l19 90h1257z" />
    <glyph glyph-name="u0939094D0930" horiz-adv-x="830" 
d="M900 910h-129l-53 -260h-440q-38 0 -38 -48q-1 -24 22.5 -59.5t44.5 -48.5q83 26 161 26q116 0 180.5 -52t64.5 -123q0 -54 -35.5 -126.5t-112.5 -128.5l-66 70q60 37 86 86t26 83q0 32 -26 59l-261 -250l-67 60l236 230q-19 6 -40 6q-139 0 -232 -65t-92 -188
q0 -126 122 -208.5t293 -82.5l-18 -90q-209 0 -353 106t-144 264q-1 194 180 284q-85 84 -85 160q-1 57 41 96.5t94 39.5h380l32 160h-680l19 90h909z" />
    <glyph glyph-name="u0936094D0930Alt" horiz-adv-x="940" 
d="M1010 910h-143l-185 -910h-100l91 448l-269 122l-340 -200l-51 76l312 178q-100 65 -100 163q0 93 70 163t161 70q73 0 119 -45t46 -106q0 -55 -33 -115.5t-106 -113.5l211 -96l74 366h-70l19 90h313zM517 830q3 12 3 23q0 33 -22.5 55t-60.5 22q-47 0 -80.5 -39
t-32.5 -91q0 -73 87 -100q90 55 106 130z" />
    <glyph glyph-name="u0915094D0915" horiz-adv-x="1168" 
d="M1238 910h-513l-46 -230q115 110 242 110q77 0 126 -45t49 -108q0 -42 -23 -98.5t-73 -98.5q41 -26 41 -78q0 -136 -217 -292l-43 80q89 47 123.5 103t34.5 94q0 31 -26 52t-67 21q-120 0 -245 -120l-61 -300h-100l47 230q-103 -100 -260 -100q-83 0 -142 38t-59 96
q0 51 37 95.5t115 70.5q-92 37 -92 122q0 99 93 163.5t210 64.5q91 0 176 -70l-65 -70q-60 50 -129 50q-72 0 -127.5 -32.5t-54.5 -81.5q0 -39 45.5 -62.5t105.5 -23.5q130 0 214 70l71 350h-634l19 90h1247zM654 560l-28 -140q95 90 228 90q67 0 78 -10q32 22 47 58.5
t15 58.5q0 30 -26 51.5t-67 21.5q-146 0 -247 -130zM511 350l21 100q-35 -15 -178 -40q-86 -15 -156 -51t-70 -78q0 -28 37 -44.5t80 -16.5q167 0 266 130z" />
    <glyph glyph-name="u0915094D0924" horiz-adv-x="1222" 
d="M1292 910h-517l-63 -310q81 50 180 50q104 0 168 -62t64 -151q-1 -71 -44.5 -187t-129.5 -200l-71 40q70 77 106.5 177t36.5 152q-1 57 -41 99t-107 42q-112 0 -184 -70l-100 -490h-100l112 550h-240q-73 -13 -121.5 -76t-47.5 -142q0 -144 181 -262l-64 -70
q-99 66 -158.5 153.5t-59.5 174.5q0 60 29 126.5t91 95.5h-180l18 90h570l55 270h-684l19 90h1301z" />
    <glyph glyph-name="u0915094D0932" horiz-adv-x="1142" 
d="M1212 910h-495l-40 -200q95 90 208 90q91 0 140.5 -63t49.5 -149q0 -92 -44 -169t-132 -139l-68 60q71 50 106.5 106.5t35.5 119.5q0 55 -28 94.5t-80 39.5q-72 0 -134.5 -48.5t-90.5 -121.5l-77 -380q60 50 160 50q73 0 120 -42.5t47 -102.5q0 -80 -61.5 -157
t-183.5 -128l-43 80q103 35 144.5 88t41.5 97q0 65 -85 65q-117 0 -229 -140l-78 60q15 17 33 36l15 15q-60 29 -111 29q-72 0 -124.5 -42.5t-51.5 -90.5q0 -39 51 -71t124 -46l-39 -90q-100 19 -169 71.5t-69 120.5q0 89 88.5 163.5t207.5 74.5q65 0 114 -30l40 200
q-108 -90 -228 -90q-100 0 -161.5 60.5t-60.5 147.5q0 127 100 224.5t230 97.5q92 0 154 -30l-48 -90q-38 20 -126 20q-81 0 -144.5 -61.5t-63.5 -140.5q0 -53 39 -90.5t102 -37.5q161 0 238 140l81 400h-626l19 90h1221z" />
    <glyph glyph-name="u0915094D0935" horiz-adv-x="1148" 
d="M1218 910h-495l-48 -240q114 130 256 130q80 0 123.5 -55t43.5 -128q0 -106 -79 -216.5t-216 -180.5l-44 80q131 68 184 148.5t53 147.5q0 42 -22 73t-63 31q-154 0 -273 -210l-100 -490h-100l31 150q-148 -140 -289 -140q-66 0 -107.5 40t-41.5 96q0 70 53.5 140.5
t141.5 93.5q-59 16 -90 63t-31 107q0 117 94.5 203.5t219.5 86.5q89 0 150 -50l-56 -80q-49 30 -114 30q-75 0 -133.5 -49.5t-58.5 -120.5q0 -50 37 -85t96 -35q113 0 208 90l75 370h-632l19 90h1227zM495 280l27 130q-177 -33 -283.5 -103t-105.5 -145q0 -62 66 -62
q157 0 296 180z" />
    <glyph glyph-name="u0917094D0928" horiz-adv-x="788" 
d="M859 910h-143l-185 -910h-100l80 390l-265 -170q-35 -23 -38 -40l18 -33q15 -26 15 -46q0 -52 -134 -52q-58 0 -99 21.5t-41 50.5q0 16 24 38.5t85 60.5l459 290l81 400h-250l-85 -420q-13 -60 -52 -60q-40 0 -97.5 65t-57.5 105q0 50 70 50q69 0 82 60l40 200h-274
l19 90h867z" />
    <glyph glyph-name="u0919094D0915" horiz-adv-x="1062" 
d="M1132 910h-279l-44 -220h-430q-59 0 -59 -48q0 -30 43 -61t77 -31q36 0 94 20q88 30 116 30q74 0 120 -44.5t46 -106.5q0 -106 -101 -177.5t-226 -71.5l-31 -150q129 80 217 80q67 0 115.5 -33t48.5 -83q0 -67 -61 -125.5t-182 -98.5l-34 80q175 58 175 130q0 50 -79 50
q-58 0 -220 -100l-41 -200h-90l31 150q-96 -70 -224 -70q-75 0 -128.5 35t-53.5 90q0 75 71.5 135t165.5 60q100 0 148 -60l-75 -70q-40 40 -92 40q-45 0 -86 -25t-41 -62q0 -24 34 -38.5t75 -14.5q127 0 230 100l37 180q-244 0 -385 220l82 60q100 -200 379 -200
q94 0 167.5 47t73.5 112q0 71 -84 71l-118 -40q-60 -20 -94 -20q-68 0 -135 59.5t-67 119.5q0 62 56 106.5t123 44.5h330l26 130h-762l19 90h1141zM918 605q0 34 19.5 59.5t61.5 25.5q54 0 54 -45q0 -36 -20.5 -60.5t-60.5 -24.5q-54 0 -54 45z" />
    <glyph glyph-name="u0919094D0916" horiz-adv-x="1070" 
d="M1145 910h-263l-44 -220h-440q-59 0 -59 -47q-1 -28 43 -60.5t77 -32.5q71 0 228 49l3 1q72 0 119 -42.5t47 -102.5q0 -58 -38 -119t-124 -106l-83 -410h-90l28 140q-71 -70 -144 -70q-58 0 -97.5 28.5t-39.5 73.5q-1 60 56.5 104t131.5 44q36 0 86 -20l-45 -70
q-26 10 -58 10q-80 0 -80 -55q0 -35 62 -35q74 0 150 100l27 130q-58 -20 -94 -20q-122 0 -222 40q-15 -72 -60 -131t-99 -59q-34 0 -46 20q39 -144 176 -170l-56 -80q-114 22 -171.5 119.5t-57.5 230.5l94 20q-9 -60 48 -60q31 0 59.5 46.5t40.5 103.5q-93 59 -157 160
l52 60q134 -210 417 -210q92 0 162 52t70 113q0 65 -85 65q-17 0 -106 -30q-59 -20 -114 -20q-74 0 -143 57t-69 120q0 62 54.5 107.5t124.5 45.5h340l26 130h-786l19 90h1149zM937 605q0 34 19.5 59.5t61.5 25.5q54 0 54 -45q0 -36 -20.5 -60.5t-60.5 -24.5q-54 0 -54 45z
" />
    <glyph glyph-name="u0919094D0917" horiz-adv-x="1022" 
d="M1092 910h-263l-44 -220h-440q-69 0 -69 -47q-1 -29 50 -61t90 -32q42 0 124 20t124 20q60 0 93 -43t33 -101q0 -136 -137 -206l-85 -420h-90l77 380q-47 -10 -112 -10q-76 0 -146 20l-55 -270q-10 -50 -40 -50q-33 0 -89 48t-55 77q0 35 46 35h50q20 0 24 20l35 170
q-146 58 -215 170l72 60q151 -190 391 -190q80 0 154 37t74 114q0 69 -43 69q-44 0 -129 -20t-129 -20q-72 0 -143 54.5t-71 114.5q0 63 59.5 107t129.5 44h340l26 130h-738l19 90h1101zM884 605q0 34 19.5 59.5t61.5 25.5q54 0 54 -45q0 -36 -20.5 -60.5t-60.5 -24.5
q-54 0 -54 45z" />
    <glyph glyph-name="u0919094D0918" horiz-adv-x="1018" 
d="M1088 910h-251l-44 -220h-440q-59 0 -59 -48q0 -30 43 -61t77 -31q42 0 124 20t124 20q60 0 94 -41.5t34 -96.5q0 -62 -37.5 -131t-125.5 -101l-90 -440h-90l21 100q-95 -90 -198 -90q-68 0 -116.5 33t-48.5 83q0 30 17 67t52 37q-42 0 -65.5 28t-22.5 65q0 43 26 85
t89 52q-70 12 -203 180l82 60q126 -200 359 -200q96 0 172.5 41.5t76.5 111.5q0 26 -14 46.5t-40 20.5q-40 0 -119 -20t-119 -20q-71 0 -137.5 54t-66.5 114t54.5 106t124.5 46h340l26 130h-746l19 90h1097zM492 0l41 200l-114 -20q-56 0 -126 20q-50 0 -84 -28.5t-34 -63.5
q0 -58 77 -58q40 20 74 20l6 -70q-44 0 -83.5 -19t-39.5 -50q0 -51 79 -51q81 0 204 120zM888 605q0 34 19.5 59.5t61.5 25.5q54 0 54 -45q0 -36 -20.5 -60.5t-60.5 -24.5q-54 0 -54 45z" />
    <glyph glyph-name="u0919094D092E" horiz-adv-x="1064" 
d="M1134 910h-265l-44 -220h-440q-59 0 -59 -48q0 -26 31.5 -54t60.5 -28q45 0 133 15q89 15 133 15q66 0 107.5 -40t41.5 -96q0 -45 -26 -105.5t-80 -88.5l-98 -480h-100l31 150h-270l-18 -90q-5 -20 -24 -20q-27 0 -78 63t-50 92q0 35 46 35h50l45 220q-174 50 -261 190
l84 70q134 -210 427 -210q86 0 152.5 44t66.5 104q0 62 -66 62q-45 0 -133 -15t-133 -15q-56 0 -115 59.5t-58 112.5q0 60 55.5 104t122.5 44h340l26 130h-778l19 90h1143zM576 10l41 200q-78 -20 -144 -20q-74 0 -128 10l-39 -190h270zM928 605q0 34 19.5 59.5t61.5 25.5
q54 0 54 -45q0 -36 -20.5 -60.5t-60.5 -24.5q-54 0 -54 45z" />
    <glyph glyph-name="u0919094D0915094D0937" horiz-adv-x="1062" 
d="M1133 910h-273l-38 -190h-360q-55 0 -55 -26q0 -31 56 -67.5t92 -36.5q34 0 99 20q66 20 99 20q51 0 85.5 -26t34.5 -64q0 -34 -23.5 -78.5t-74.5 -71.5l-108 -530h-100l42 210q-70 -30 -156 -30q-164 0 -271 40q-132 -36 -132 -111q0 -31 41 -50t94 -19q-6 13 -6 19v1
q14 70 104 70q41 0 67 -21t27 -52q0 -62 -86 -87l85 -70l-86 -30q-27 14 -101 90q-93 0 -166.5 38t-73.5 99q0 46 35.5 103.5t119.5 79.5q-79 42 -79 95t56 106t149 67q-89 52 -157 122l84 70q136 -180 394 -180q72 0 146 29t74 75q0 16 -31 16t-108 -16q-67 -14 -103 -14
q-57 0 -140 64t-83 114q0 51 55 86.5t119 35.5h260l20 100h-768l19 90h1141zM626 150l38 190q-60 -20 -134 -20q-48 0 -92 8q15 -19 15 -38q0 -31 -29 -78t-100 -72q71 -30 134 -30q88 0 168 40zM210 170q57 0 99 35t42 73q0 52 -99 52q-44 0 -85.5 -24.5t-41.5 -62.5
q0 -37 85 -73zM941 685q0 36 20.5 60.5t60.5 24.5q54 0 54 -45q0 -34 -19.5 -59.5t-61.5 -25.5q-54 0 -54 45z" />
    <glyph glyph-name="u091A094D091A" horiz-adv-x="974" 
d="M1044 910h-143l-185 -910h-100l71 350q-162 -210 -332 -210q-72 0 -121.5 38t-49.5 94q0 59 50 108h-230l20 100h220q-9 18 -9 41q0 86 83 129h-260l21 100h550l-21 -100h-130q-151 -40 -151 -114q0 -30 27 -56h180l-20 -100h-150q-88 -30 -88 -91q0 -27 29 -43t68 -16
q89 0 183 80t164 200l81 400h-810l19 90h1053z" />
    <glyph glyph-name="u091B094D0935" horiz-adv-x="1004" 
d="M1074 910h-199l-12 -60q58 -7 94.5 -44t36.5 -86q-1 -74 -66 -164t-226 -156l-122 -600h-100l32 160q-96 -80 -236 -80q-94 0 -159.5 45t-65.5 113q0 96 93 169t213 73q66 0 124 -30l-22 -110q-56 40 -122 40q-68 0 -120 -33t-52 -86q0 -40 37.5 -65.5t91.5 -25.5
q131 0 243 110l56 280q-128 -22 -194 -22q-113 0 -196.5 50t-83.5 129q-1 46 25 95.5t87 77.5q-114 39 -114 117q0 46 58 103h-184l19 90h1083zM763 850l12 60h-460q-97 -35 -97 -89q0 -33 51 -52t114 -19h90l-18 -90h-70q-64 0 -109.5 -39.5t-45.5 -87.5q0 -46 57 -74.5
t131 -28.5q147 0 240 50q-83 74 -83 161q0 75 53.5 133.5t134.5 75.5zM891 690q12 70 -86 70q-49 0 -89 -26t-40 -83q0 -73 82 -121q113 53 133 160z" />
    <glyph glyph-name="u091C094D091C" horiz-adv-x="1160" 
d="M1230 910h-143l-185 -910h-100l92 450l-225 -102q27 -28 27 -69q0 -50 -35 -112t-116.5 -109.5t-180.5 -47.5q-94 0 -172.5 74.5t-122.5 195.5l88 40q81 -220 226 -220q83 0 142.5 53.5t59.5 118.5q0 55 -62 94l389 174l27 130h-370q9 -9 9 -33q0 -95 -69.5 -166
t-154.5 -71q-101 0 -172 97.5t-97 252.5l94 20q20 -120 68.5 -200t114.5 -80q49 0 86 64t38 117q0 46 -29 89h500l30 150h-996l19 90h1239z" />
    <glyph glyph-name="u091E094D091A" horiz-adv-x="1082" 
d="M1152 910h-143l-185 -910h-100l37 180q-225 -180 -357 -180q-57 0 -88 39t-31 91q0 72 38 110l-200 -100l-46 70l479 240l21 -90q-113 -39 -157.5 -101t-44.5 -119q0 -50 48 -50q141 0 362 208l61 302h-280q-31 -84 -110 -137t-168 -53q-171 0 -262 140l74 70
q62 -120 206 -120q72 0 123.5 61.5t51.5 117.5q0 71 -84 71q-62 0 -160 -50l-32 90q116 60 192 60q80 0 133.5 -42.5t54.5 -112.5v-5h280l44 220h-918l19 90h1161z" />
    <glyph glyph-name="u091E094D091C" horiz-adv-x="1082" 
d="M1152 910h-143l-185 -910h-100l86 420l-225 -102q27 -28 27 -69q0 -50 -35 -112t-116.5 -109.5t-180.5 -47.5q-94 0 -172.5 74.5t-122.5 195.5l88 40q80 -220 225 -220q84 0 143.5 54t59.5 118q0 55 -62 94l389 174l18 90h-280q-31 -84 -110 -137t-168 -53
q-171 0 -262 140l74 70q62 -120 206 -120q72 0 123.5 61.5t51.5 117.5q0 71 -84 71q-62 0 -160 -50l-32 90q116 60 192 60q80 0 133.5 -42.5t54.5 -112.5v-5h280l44 220h-918l19 90h1161z" />
    <glyph glyph-name="u091F094D091F" horiz-adv-x="834" 
d="M905 910h-149l-44 -220h-388q-49 0 -89.5 -26t-40.5 -83q0 -72 81 -111.5t206 -39.5q160 0 268 90l56 -70q-76 -59 -158 -80l-45 -220h-400q-49 0 -86 -37t-37 -90q-1 -68 77.5 -110.5t178.5 -42.5q167 0 282 110l56 -70q-157 -130 -357 -130q-139 0 -239 63.5
t-100 162.5q0 96 74.5 165t168.5 69h300l22 106q-44 -6 -80 -6q-163 0 -266.5 58.5t-103.5 162.5q0 102 78.5 160.5t171.5 58.5h288l26 130h-664l19 90h913z" />
    <glyph glyph-name="u091F094D0920" horiz-adv-x="870" 
d="M941 910h-163l-44 -220h-410q-49 0 -89.5 -26t-40.5 -83q0 -72 81 -111.5t206 -39.5q160 0 268 90l56 -70q-70 -54 -134 -70l-44 -214q62 -33 62 -112q0 -126 -113 -195t-245 -69q-143 0 -245.5 66t-102.5 168q0 100 78 163t173 63h310l20 100q-40 -10 -102 -10
q-163 0 -266.5 58.5t-103.5 162.5q0 102 78.5 160.5t171.5 58.5h310l26 130h-686l19 90h949zM520 130l40 30h-344q-51 0 -91.5 -31.5t-40.5 -87.5q0 -71 80 -116t185 -45q83 0 160 36.5t77 113.5q0 65 -66 100z" />
    <glyph glyph-name="u091F094D092F" horiz-adv-x="1814" 
d="M1884 910h-143l-185 -910h-100l51 250q-103 -100 -260 -100q-128 0 -204.5 93t-76.5 235v12h190q50 0 84.5 31.5t34.5 69.5q0 42 -55 66.5t-125 24.5q-188 0 -400 -70l-1 -2h-370q-71 0 -126.5 -68t-54.5 -170q-1 -104 71 -178t191 -74q177 0 288 140l66 -70
q-135 -170 -375 -170q-157 0 -250.5 97.5t-93.5 232.5q0 153 93 256.5t212 103.5h270l40 200h-664l19 90h1893zM1532 370l109 540h-886l-42 -208q212 70 400 70q107 0 185.5 -46t78.5 -118q0 -83 -69.5 -145.5t-229.5 -62.5q11 -72 62.5 -116t124.5 -44q131 0 267 130z
M763 399zM850 0z" />
    <glyph glyph-name="u091F094D0935" horiz-adv-x="834" 
d="M905 910h-157l-44 -220h-380q-49 0 -89.5 -26t-40.5 -83q0 -72 81 -111.5t206 -39.5q160 0 268 90l56 -70q-80 -62 -167 -84l-128 -626h-100l41 200q-96 -80 -236 -80q-97 0 -164 49.5t-67 123.5q0 102 97 169.5t217 67.5q66 0 124 -30l-22 -110q-56 40 -122 40
q-72 0 -132 -31.5t-60 -85.5q0 -42 45 -67.5t104 -25.5q131 0 242 110l56 274q-25 -4 -71 -4q-163 0 -266.5 58.5t-103.5 162.5q0 102 78.5 160.5t171.5 58.5h280l26 130h-656l19 90h913zM316 -220z" />
    <glyph glyph-name="u0920094D0920" horiz-adv-x="902" 
d="M972 910h-197l-36 -180l12 10q77 -50 77 -139q0 -139 -160 -221l-42 -204l23 14q67 -51 67 -137q0 -134 -130.5 -203.5t-280.5 -69.5q-136 0 -232 66t-96 166q0 101 78 169.5t176 68.5h310l20 100q-47 -10 -142 -10q-135 0 -233 61t-98 157q-1 93 73 157.5t168 64.5h320
l26 130h-684l19 90h981zM655 660l36 30h-380q-47 0 -84.5 -32t-37.5 -85q0 -67 74 -110t173 -43q104 0 196.5 39.5t92.5 114.5q0 60 -70 86zM557 130l46 30h-390q-51 0 -92.5 -35t-40.5 -92q0 -68 73.5 -110.5t172.5 -42.5q85 0 186.5 33t101.5 122q0 63 -57 95z" />
    <glyph glyph-name="u0920094D092F" horiz-adv-x="1836" 
d="M1906 910h-143l-185 -910h-100l51 250q-103 -100 -260 -100q-128 0 -204.5 93t-76.5 235v12h190q50 0 84.5 31.5t34.5 69.5q0 42 -55 66.5t-125 24.5q-225 0 -413 -62h-330q-85 0 -158.5 -60.5t-73.5 -180.5q0 -106 70 -182.5t191 -76.5q110 0 195.5 65.5t85.5 155.5
q0 93 -106 199l84 70q126 -104 126 -238q-1 -147 -124 -249.5t-282 -102.5q-157 0 -250 99.5t-92 237.5q-1 166 108.5 259.5t244.5 93.5h230l40 200h-672l19 90h1915zM1554 370l109 540h-900l-40 -200q187 62 412 62q107 0 185 -46t79 -118q-1 -83 -70 -145.5t-229 -62.5
q11 -72 62.5 -116t124.5 -44q131 0 267 130zM872 0z" />
    <glyph glyph-name="u0921094D0921" horiz-adv-x="968" 
d="M1038 910h-129l-44 -220h-410q-59 0 -59 -48q0 -28 39 -65t69 -37q41 0 120 25t120 25q55 0 90 -32t35 -79q0 -100 -102 -184.5t-240 -84.5q-154 0 -184 30q-22 -39 -22 -65q0 -65 86 -65q40 0 119 20q78 20 119 20q58 0 95 -34.5t38 -84.5q-1 -105 -115.5 -183
t-265.5 -78q-270 0 -469 250l65 70q183 -230 423 -230q104 0 181.5 46t78.5 108q0 36 -52 36q-39 0 -118 -15q-78 -15 -118 -15q-77 0 -126 45t-49 108q0 31 6 43t28 44q-147 76 -217 210l72 60q56 -110 173.5 -170t269.5 -60q89 0 155.5 52.5t66.5 108.5q0 29 -43 29
q-40 0 -119 -20t-119 -20q-66 0 -132 68.5t-66 129.5q0 60 58.5 96t126.5 36h310l26 130h-818l19 90h1047z" />
    <glyph glyph-name="u0921094D0922" horiz-adv-x="944" 
d="M1014 910h-125l-44 -220h-410q-59 0 -59 -48q0 -28 39 -65t69 -37q41 0 120 25t120 25q55 0 90 -32t35 -79q0 -46 -29.5 -100.5t-93.5 -98.5l-6 -4l-44 -216h-380q-45 0 -82 -27t-37 -87q-1 -72 64.5 -124t155.5 -52q-23 22 -23 63q0 84 68.5 140.5t157.5 56.5
q70 0 114.5 -40t44.5 -97q0 -97 -95.5 -155t-244.5 -58q-139 0 -245.5 76.5t-106.5 184.5q0 103 79.5 156t168.5 53h270l14 71q-44 -11 -92 -11q-360 0 -497 260l72 60q56 -110 173.5 -170t269.5 -60q89 0 155.5 52.5t66.5 108.5q0 29 -43 29q-40 0 -119 -20t-119 -20
q-66 0 -132 68.5t-66 129.5q0 60 58.5 96t126.5 36h310l26 130h-798l19 90h1023zM465 -151q0 -59 87 -59q42 0 78.5 23t36.5 62q0 65 -85 65q-48 0 -83 -27.5t-34 -63.5z" />
    <glyph glyph-name="u0921094D092F" horiz-adv-x="1836" 
d="M1531 260q-103 -100 -260 -100q-128 0 -205 93t-76 235v12h174q58 0 98 36t40 81q0 46 -57 74.5t-130 28.5q-49 0 -142 -35q-94 -35 -143 -35h-370q-59 0 -59 -57q0 -43 37.5 -93t81.5 -50q34 0 100 25q66 15 100 15q56 0 87.5 -38t32.5 -86q0 -61 -40.5 -142.5
t-127.5 -147.5t-192 -66q-145 0 -267.5 121.5t-200.5 328.5l90 50q70 -186 174.5 -298t222.5 -112q71 0 130 49t84.5 108.5t25.5 93.5q0 39 -39 39q-34 0 -101 -15q-66 -25 -100 -25q-73 0 -141 81t-68 152q0 70 59.5 118.5t131.5 48.5h270l32 160h-792l19 90h1915l-19 -90
h-143l-185 -910h-100zM1556 380l107 530h-780l-32 -160q48 0 141 30t141 30q109 0 189.5 -50t81.5 -126q0 -93 -82.5 -158.5t-219.5 -65.5q11 -72 62.5 -116t124.5 -44q131 0 267 130zM950 0z" />
    <glyph glyph-name="u0922094D0922" horiz-adv-x="896" 
d="M966 910h-147l-44 -220h-446q-45 0 -83 -27t-37 -87q0 -72 65 -124t156 -52q-24 22 -24 63q-1 84 68.5 140.5t158.5 56.5q69 0 113.5 -40t44.5 -97q0 -87 -80 -144l-44 -219h-446q-47 0 -83.5 -28t-36.5 -86q0 -72 65 -124t156 -52q-24 22 -24 63q0 84 69 140.5t158 56.5
q69 0 114 -40t45 -97q0 -97 -96 -155t-245 -58q-139 0 -245.5 76.5t-106.5 184.5q0 100 78.5 154.5t169.5 54.5h346l16 79q-67 -19 -150 -19q-139 0 -245.5 76.5t-106.5 184.5q0 102 79.5 155.5t168.5 53.5h346l26 130h-728l19 90h975zM497 479q0 -59 87 -59q44 0 79.5 24
t36.5 61q0 65 -86 65q-48 0 -83 -27.5t-34 -63.5zM389 -51q0 -59 87 -59q42 0 78.5 23t37.5 62q0 65 -86 65q-50 0 -83.5 -29t-33.5 -62z" />
    <glyph glyph-name="u0922094D092F" horiz-adv-x="1806" 
d="M1876 910h-143l-185 -910h-100l51 250q-103 -100 -258 -100q-128 0 -204.5 93t-76.5 235v12h190q50 0 84.5 31.5t34.5 69.5q0 42 -55 66.5t-125 24.5q-171 0 -330 -38l-5 -24h-420q-73 0 -132 -62.5t-59 -177.5q0 -109 65.5 -189.5t182.5 -80.5q-40 63 -40 127
q-1 92 70 162.5t163 70.5q74 0 118.5 -47t45.5 -110q0 -114 -104 -203.5t-242 -89.5q-163 0 -261.5 102t-98.5 245q-1 155 94 249t217 94h320l40 200h-722l19 90h1885zM1524 370l109 540h-820l-35 -176q158 38 329 38q107 0 185 -46t79 -118q0 -83 -69.5 -145.5
t-229.5 -62.5q11 -72 62.5 -116t124.5 -44q129 0 265 130zM493 120q83 17 117.5 72t35.5 101q0 32 -22 54.5t-60 22.5q-47 0 -81.5 -39.5t-34.5 -105.5q0 -65 45 -105zM870 0z" />
    <glyph glyph-name="u0926094D0917" horiz-adv-x="810" 
d="M880 910h-129l-53 -260h-360q-75 0 -133.5 -50t-58.5 -124q0 -79 83 -122.5t210 -43.5q-16 21 -16 52q0 59 47 88.5t104 29.5q46 0 71 -29.5t26 -70.5q0 -92 -106 -140q8 -139 71 -240l-98 -40q-58 60 -89 250l-146 20l43 -180q3 -13 3 -23q0 -67 -51 -67
q-33 0 -122.5 28.5t-89.5 57.5v4q1 5 66 30q66 25 73 60l-26 120q-73 27 -113.5 83t-40.5 121q0 111 93 198.5t221 87.5h260l32 160h-660l19 90h889z" />
    <glyph glyph-name="u0926094D0918" horiz-adv-x="998" 
d="M1068 910h-125l-53 -260h-400q-50 0 -92 -35.5t-42 -102.5q0 -81 70 -151.5t161 -70.5q44 0 84 20q22 57 66 98.5t93 41.5q64 0 64 -67q0 -62 -76 -97q-39 -18 -51 -46q-6 -31 -6 -71q0 -121 55 -329h-110q-5 19 -36 170q-144 -120 -294 -120q-92 0 -144.5 58t-46.5 132
q-85 0 -139.5 46.5t-54.5 114.5q0 91 76 163t191 86q-11 100 68.5 180t184.5 80h300l32 160h-852l19 90h1077zM367 290q-68 46 -95 120q-79 -12 -134 -54t-55 -98q0 -41 36.5 -69.5t91.5 -28.5q54 97 156 130zM658 91l5 129q-60 -20 -114 -20q-58 0 -134 30
q-138 -46 -138 -149q0 -46 31.5 -78.5t83.5 -32.5q155 0 266 121z" />
    <glyph glyph-name="u0926094D0926" horiz-adv-x="838" 
d="M908 910h-143l-53 -260h-400q-47 0 -96.5 -20t-49.5 -70q0 -49 53 -79.5t123 -30.5q66 0 124 20l10 -100q-125 -21 -216 -71.5t-91 -116.5q0 -40 41.5 -66t98.5 -26q98 0 194 70q-10 16 -10 38q0 55 47 98.5t109 43.5q74 0 74 -70q0 -38 -28.5 -83t-93.5 -87l41 -140
l-86 -30l-36 120q-116 -60 -232 -60q-94 0 -157.5 49.5t-63.5 122.5q0 59 36.5 118.5t122.5 89.5q-72 20 -116.5 68.5t-44.5 107.5q-1 89 82 146.5t186 57.5h300l32 160h-674l19 90h917z" />
    <glyph glyph-name="u0926094D0927" horiz-adv-x="1098" 
d="M1168 910h-125l-53 -260h-400q-50 0 -92 -35.5t-42 -102.5q0 -81 70 -151.5t161 -70.5q44 0 84 20q22 57 66 98.5t93 41.5q64 0 64 -67q0 -62 -76 -97q-39 -18 -51 -46q-6 -31 -6 -71q0 -121 55 -329h-110q-6 18 -36 170q-144 -120 -294 -120q-92 0 -144.5 58t-46.5 132
q-119 0 -201.5 58.5t-82.5 147.5q0 85 59.5 144.5t137.5 59.5q73 0 116 -70l-73 -60q-31 30 -63 30q-76 0 -76 -88q0 -62 61.5 -102t147.5 -40q52 89 146 130q-39 32 -69.5 103.5t-30.5 125.5q0 86 77 158.5t177 72.5h300l32 160h-952l19 90h1177zM758 91l5 129
q-60 -20 -114 -20q-58 0 -134 30q-138 -46 -138 -149q0 -46 31.5 -78.5t83.5 -32.5q155 0 266 121z" />
    <glyph glyph-name="u0926094D0928" horiz-adv-x="864" 
d="M934 910h-139l-53 -260h-400q-61 0 -110.5 -44t-49.5 -129q0 -96 82.5 -151.5t220.5 -55.5q35 170 145 170q41 0 67 -21t26 -52q0 -32 -26.5 -88.5t-85.5 -78.5q27 -102 89 -200h-110q-60 41 -95 170l-281 -100q-32 -11 -38 -40q5 -9 30 -50q5 -10 5 -21q0 -29 -45 -29
q-41 0 -125.5 33.5t-84.5 62.5q0 47 375 174q-113 21 -181.5 95.5t-67.5 172.5q-1 121 84.5 201.5t196.5 80.5h300l32 160h-704l19 90h943z" />
    <glyph glyph-name="u0926094D092C" horiz-adv-x="826" 
d="M896 910h-131l-53 -260h-400q-52 0 -97 -30t-45 -101q-1 -76 65 -127.5t164 -51.5q52 0 72 10q-12 6 -12 27q-1 48 38 80.5t93 32.5q51 0 83.5 -30t32.5 -73q0 -91 -135 -137q-7 -115 79 -250l-98 -40q-4 8 -65 170q-140 -180 -297 -180q-65 0 -110 33t-44 82
q0 63 54 119.5t167 95.5q-88 25 -138 87.5t-50 139.5q0 109 81 176t183 67h300l32 160h-674l19 90h905zM471 250q-132 -12 -188 -40l70 -100q60 37 118 140zM292 60l-77 110q-39 -20 -53.5 -46.5t-14.5 -45.5q0 -38 61 -38q44 0 84 20z" />
    <glyph glyph-name="u0926094D092D" horiz-adv-x="928" 
d="M998 910h-141l-53 -260h-380q-60 0 -112 -33t-52 -107q0 -71 60 -120.5t151 -49.5q72 0 102 10q-20 10 -20 38q0 92 127 92q47 0 78.5 -25.5t31.5 -63.5q-1 -42 -30 -85.5t-97 -55.5l101 -240l-82 -60l-107 210l-235 -170q17 -29 17 -55q0 -30 -30.5 -42.5t-98.5 -12.5
q-78 0 -66 70l72 60l-75 120q-19 30 -54 30q-50 0 -58 -40q4 -9 29 -50l-74 -70q-45 58 -45 108q0 60 51.5 101t114.5 41q73 0 100 -50l79 -150l261 200q-58 -10 -112 -10q-128 0 -210.5 73t-82.5 177q0 120 89.5 190t197.5 70h280l32 160h-766l19 90h1007z" />
    <glyph glyph-name="u0926094D092E" horiz-adv-x="1072" 
d="M1142 910h-143l-185 -910h-100l45 220h-290l-16 -80q-11 -50 -60 -50q-30 0 -82.5 70t-51.5 103q0 47 58 47h70l29 140h-210q-66 0 -108 40t-41 96q-1 80 65.5 137t150.5 57h170l26 130h-478l19 90h1151zM777 310l122 600h-330l-44 -220h-270q-33 0 -59.5 -25.5
t-26.5 -58.5q0 -56 57 -56h310l-49 -240h290z" />
    <glyph glyph-name="u0926094D092F" horiz-adv-x="1074" 
d="M1144 910h-143l-185 -910h-100l55 270q-228 -190 -438 -190q-102 0 -170 54t-68 133q0 47 21.5 97.5t69.5 75.5q-119 46 -119 137q0 82 72 142.5t166 60.5h200l26 130h-540l19 90h1153zM798 400l103 510h-270l-44 -220h-300q-48 0 -83 -28t-35 -63q0 -31 36.5 -55.5
t84.5 -33.5q38 20 184 20l42 -90h-140q-72 0 -126 -46.5t-53 -105.5q0 -47 46 -77.5t110 -30.5q214 0 445 220z" />
    <glyph glyph-name="u0926094D0935" horiz-adv-x="840" 
d="M910 910h-133l-48 -240h-380q-75 0 -134 -49.5t-59 -130.5q0 -72 60 -121t151 -49q65 0 126 30q-17 31 -17 56q0 43 46.5 68.5t101.5 25.5q46 0 71 -29.5t26 -70.5q0 -56 -38 -90.5t-86 -39.5v-9q0 -103 63 -271l-106 -30l-51 140q-112 -140 -269 -140q-68 0 -116 33
t-48 83q0 54 41 100t122 74q-82 32 -130 95t-48 136q0 115 95 197t217 82h280l30 150h-686l19 90h919zM491 240q-80 0 -199.5 -47t-119.5 -102q0 -41 80 -41q70 0 135 53.5t104 136.5z" />
    <glyph glyph-name="u0928094D0928" horiz-adv-x="996" 
d="M1066 910h-143l-185 -910h-100l92 450l-339 -140q-48 -20 -48 -45q0 -14 12 -35q16 -27 16 -56t-13.5 -56.5t-40.5 -27.5q-53 0 -137 50t-84 92q0 47 75 78l405 170q-123 170 -276 170q-20 0 -32 -60q-20 -100 -80 -100q-43 0 -79 78t-36 129q0 30 16 46.5t66 26.5
t132 10q107 0 210 -71t177 -189l76 30l73 360h-832l19 90h1075z" />
    <glyph glyph-name="u092A094D0924" horiz-adv-x="856" 
d="M926 910h-143l-185 -910h-100l92 450h-270q-59 0 -110 -43.5t-51 -139.5q0 -124 113 -197l-64 -70q-73 47 -111 117t-38 147q-1 82 35.5 145.5t115.5 90.5q-57 24 -57 94q0 21 5 46l55 270h-222l19 90h935zM610 550l73 360h-370l-55 -270q-8 -38 16 -64t66 -26h270z" />
    <glyph glyph-name="u092A094D0932" horiz-adv-x="904" 
d="M974 910h-215l-122 -600q67 0 107 -41.5t41 -99.5q0 -93 -77.5 -176t-181.5 -83l-24 80q66 0 118.5 50t52.5 110q0 70 -74 70q-55 0 -100 -37.5t-56 -92.5l-82 40l18 40q-40 40 -102 40q-65 0 -113.5 -34t-48.5 -84q-1 -45 50 -73.5t117 -28.5l-56 -80q-91 0 -152 47
t-61 117q0 90 78.5 158t183.5 68q109 0 148 -60q14 27 112 60l45 220q-113 -80 -246 -80q-93 0 -151 52.5t-57 130.5q0 22 5 47l48 240h-188l19 90h983zM604 640l55 270h-380l-48 -240q-3 -15 -3 -25q-1 -44 35 -74.5t91 -30.5q130 0 250 100z" />
    <glyph glyph-name="u092B094D0932" horiz-adv-x="1166" 
d="M1236 910h-513l-57 -280q105 100 231 100q94 0 147 -64t53 -151q0 -150 -142 -285l-80 50q119 99 119 214q0 55 -30.5 95.5t-87.5 40.5q-110 0 -234 -120l-71 -350q60 40 118 40q73 0 120 -42.5t47 -102.5q0 -66 -52 -147t-183 -138l-51 90q102 35 143 83.5t41 91.5
q0 65 -85 65q-141 0 -219 -140l-78 60l28 40q-47 40 -131 40q-50 0 -86.5 -37t-36.5 -83t46 -81.5t116 -48.5l-39 -90q-100 19 -167.5 76t-66.5 130q-1 89 76.5 161.5t177.5 72.5q112 0 176 -70l57 280q-109 -90 -219 -90q-93 0 -149.5 55.5t-56.5 134.5q0 24 5 50l71 350
h-182l19 90h1245zM546 530l77 380h-350l-71 -350q-3 -15 -3 -28q0 -47 35 -79.5t90 -32.5q124 0 222 110zM730 0z" />
    <glyph glyph-name="u0932094D0932" horiz-adv-x="1106" 
d="M1176 910h-143l-185 -910h-100l69 340q-102 0 -191 -48.5t-135 -131.5l-70 50q21 37 52 60q-77 50 -180 50q-65 0 -116 -42t-50 -100q0 -42 34 -77.5t87 -50.5l-64 -70q-73 21 -116 71t-43 111q0 58 35.5 124.5t115.5 93.5q-77 51 -77 140q-1 109 87.5 179.5t198.5 70.5
q140 0 212 -90q83 90 308 90l28 140h-942l19 90h1185zM838 440l49 240q-104 0 -189 -39.5t-112 -110.5l-84 30q8 15 30 50q-42 70 -165 70q-62 0 -114.5 -37.5t-52.5 -110.5q0 -85 92 -122q180 0 243 -80q154 110 303 110z" />
    <glyph glyph-name="u0936094D091A" horiz-adv-x="940" 
d="M1010 910h-143l-185 -910h-100l47 230q-125 -140 -268 -140q-57 0 -89 39t-31 91q0 25 8.5 59.5t17.5 40.5l-178 -90l-24 80l489 240l-176 70l-300 -150l-56 70l287 130q-90 48 -90 133q0 86 70 151.5t161 65.5q73 0 120 -42.5t47 -102.5q-1 -54 -33 -110.5t-105 -94.5
l221 -90l67 330h-50l19 90h293zM513 840q2 10 2 18q0 30 -24 52t-59 22q-40 0 -72.5 -34t-31.5 -73q-1 -28 17.5 -57t55.5 -38q96 32 112 110zM655 360l31 150l-152 -60q-101 -40 -151.5 -97t-50.5 -123q0 -50 47 -50q112 0 276 180z" />
    <glyph glyph-name="u0936094D0928" horiz-adv-x="942" 
d="M1012 910h-143l-185 -910h-100l86 420l-275 -170q-27 -17 -27 -38q0 -13 13 -32q13 -18 13 -32q-1 -25 -24.5 -46.5t-48.5 -21.5q-72 0 -127.5 14.5t-55.5 63.5q0 51 55 82l412 238l-201 92l-340 -200l-51 76l312 178q-100 65 -100 163q0 93 70 163t161 70q73 0 119 -45
t46 -106q0 -55 -33 -115.5t-106 -113.5l213 -98l74 368h-50l19 90h293zM517 830q3 12 3 23q0 33 -22.5 55t-60.5 22q-47 0 -80.5 -39t-32.5 -91q0 -73 87 -100q90 55 106 130z" />
    <glyph glyph-name="u0936094D0932" horiz-adv-x="1370" 
d="M1440 910h-143l-185 -910h-100l94 460q-90 0 -175 -60.5t-140 -159.5l-92 40l54 70q-35 100 -139 100q-63 0 -119 -31.5t-55 -102.5q-1 -71 60.5 -135t158.5 -101l-57 -80q-118 46 -191 127.5t-73 173.5q0 84 52.5 145t127.5 74l-150 100l-306 -180l-44 80l283 160
q-90 48 -90 133t69.5 146t159.5 61q69 0 114 -40t45 -97q0 -54 -34.5 -108t-103.5 -95l183 -130q134 -12 186 -120q124 120 294 120l73 360h-480l19 90h723zM495 850q6 29 -11.5 49.5t-64.5 20.5q-107 0 -107 -99q0 -65 67 -101q99 51 116 130z" />
    <glyph glyph-name="u0936094D0935" horiz-adv-x="938" 
d="M1008 910h-143l-185 -910h-100l51 250q-98 -110 -242 -110q-95 0 -165 44.5t-70 114.5q0 94 96 157.5t216 63.5q73 0 150 -50l-46 -80q-78 40 -122 40q-74 0 -133 -32t-59 -80q0 -36 47.5 -57t105.5 -21q152 0 244 120l35 170l-286 120l-344 -170l-34 80l289 140
q-91 49 -91 129q-1 79 71 135t165 56q69 0 114 -40t45 -97q0 -45 -28.5 -85t-93.5 -88l211 -90l59 290h-70l19 90h313zM515 865q0 65 -86 65q-58 0 -82 -26.5t-24 -59.5q0 -59 90 -94q102 54 102 115z" />
    <glyph glyph-name="u0937094D091F" horiz-adv-x="834" 
d="M904 910h-121l-93 -460h-330q-69 0 -126.5 -50t-57.5 -139q0 -81 60 -136t156 -55q147 0 251 100l46 -70q-145 -120 -315 -120q-132 0 -216 77t-84 187q0 80 37.5 147.5t126.5 98.5q-53 10 -81.5 47t-27.5 86q0 18 4 37l50 250h-192l19 90h913zM620 600l63 310h-330z
M540 550l-269 300l-41 -200q-9 -44 30 -72t100 -28h180z" />
    <glyph glyph-name="u0937094D0920" horiz-adv-x="902" 
d="M972 910h-183l-89 -440h-350q-73 0 -129 -55.5t-56 -134.5q0 -77 69 -128.5t171 -51.5q113 0 199.5 74.5t86.5 174.5q0 49 -27 91l82 60q47 -59 47 -135q0 -140 -123 -252.5t-286 -112.5q-138 0 -229.5 75.5t-91.5 184.5q0 81 39.5 153.5t117.5 106.5q-79 63 -79 139
q0 15 4 31l44 220h-198l19 90h981zM632 630l57 280h-320zM560 570l-279 300l-36 -180q-3 -12 -3 -22q0 -41 36.5 -69.5t91.5 -28.5h190z" />
    <glyph glyph-name="u0939094D0923" horiz-adv-x="1082" 
d="M1152 910h-405l-48 -240h-440q-27 0 -37.5 -8.5t-10.5 -43.5q0 -80 93 -118q75 30 156 30h350q70 0 113.5 -42.5t43.5 -100.5q0 -18 -4 -37l-71 -350h-100l71 350q3 12 3 20q0 70 -74 70h-30l-35 -170q-15 -75 -78 -127.5t-138 -52.5q-67 0 -107.5 42t-40.5 101
q0 18 4 37l35 170q-97 0 -174.5 -64t-77.5 -162t93.5 -161t226.5 -63l-38 -90q-166 0 -280 85t-114 211q0 174 156 254q-83 83 -83 166q0 67 46 105.5t100 38.5h360l30 150h-656l19 90h1161zM627 270l35 170h-160l-35 -170q-6 -31 12.5 -55.5t51.5 -24.5q32 0 60.5 23.5
t35.5 56.5z" />
    <glyph glyph-name="u0939094D0928" horiz-adv-x="932" 
d="M1002 910h-251l-48 -240h-420q-33 0 -46.5 -12t-13.5 -49q0 -75 85 -109q75 30 236 30q106 0 191.5 -40.5t86.5 -106.5q0 -11 -3 -23l-75 -370h-100l43 210h-80q-50 0 -58 -40l-8 -40q-14 -70 -75 -70q-28 0 -75 74.5t-47 108.5q0 57 81 57h280l14 70q8 39 -56.5 59.5
t-136.5 20.5q-91 0 -181.5 -26.5t-146 -72.5t-55.5 -136q0 -105 90.5 -175t224.5 -70l-38 -90q-164 0 -271.5 91.5t-107.5 223.5q0 185 157 265q-83 83 -83 166q0 67 46 105.5t100 38.5h360l30 150h-660l19 90h1011z" />
    <glyph glyph-name="u0939094D092E" horiz-adv-x="1112" 
d="M1182 910h-143l-185 -910h-100l49 240h-290l-12 -60q-7 -30 -36 -30t-90.5 50t-61.5 84q0 46 68 46h50l17 80q10 50 -50 50q-98 0 -179 -58t-81 -158q0 -113 125.5 -183.5t288.5 -70.5l-36 -80q-196 0 -338 89.5t-141 228.5q0 177 167 262q-91 49 -91 129q0 73 63 117
t137 44h280l26 130h-628l19 90h1191zM821 330l118 580h-220l-44 -220h-380q-80 0 -80 -54q0 -61 107 -106q58 20 94 20q59 0 97 -32.5t38 -79.5q0 -14 -3 -28l-17 -80h290z" />
    <glyph glyph-name="u0939094D092F" horiz-adv-x="1198" 
d="M1268 910h-143l-185 -910h-100l37 180q-116 -110 -233 -110q-102 0 -166.5 64t-64.5 167v9q50 0 107 16.5t57 55.5q0 30 -38.5 49t-86.5 19q-124 0 -222 -59.5t-98 -148.5q0 -92 126.5 -167t295.5 -105l-36 -80q-197 36 -342 129.5t-145 210.5q0 66 42 134t135 116
q-101 42 -101 127q-1 72 58 112.5t130 40.5h330l30 150h-664l19 90h1277zM903 310l122 600h-270l-48 -240h-430q-41 0 -59.5 -10t-18.5 -34q0 -61 107 -106q88 30 166 30q85 0 145.5 -43t61.5 -106q0 -123 -158 -151q15 -80 144 -80q113 0 238 140z" />
    <glyph glyph-name="u0939094D0932" horiz-adv-x="972" 
d="M1042 910h-291l-48 -240h-420q-33 0 -46.5 -12t-13.5 -49q0 -75 85 -109q119 50 230 50q125 0 223 -50t98 -130q0 -14 -4 -30l-69 -340h-100l55 270q-54 0 -99.5 -47t-62.5 -113l-86 20l34 70q-8 70 -66 70q-43 0 -72 -35.5t-29 -80.5q0 -35 20.5 -62t57.5 -32l-36 -80
q-66 11 -104.5 56t-38.5 104q0 87 67.5 148.5t150.5 61.5q92 0 126 -70q26 61 154 70q12 44 -64.5 72t-174.5 28q-126 0 -219 -52.5t-133 -129.5t-40 -147q0 -89 74 -150t188 -61l-36 -80q-142 0 -235 79.5t-93 194.5q0 83 45.5 183.5t146.5 152.5q-103 84 -103 170
q0 68 55 109t123 41h330l30 150h-660l19 90h1051z" />
    <glyph glyph-name="u0939094D0935" horiz-adv-x="866" 
d="M936 910h-183l-48 -240h-420q-31 0 -45 -11t-14 -40q0 -64 88 -99q75 30 156 30q110 0 189.5 -51.5t79.5 -131.5q0 -18 -4 -37l-67 -330h-100l25 120q-56 -60 -163 -60q-66 0 -108 37.5t-42 91.5q-1 75 64 133t152 58q37 0 73 -30l-46 -80q-20 20 -46 20
q-49 0 -73.5 -29.5t-23.5 -64.5q0 -56 67 -56q99 0 168 90l20 100q2 10 2 20q0 49 -56 79.5t-129 30.5q-124 0 -218.5 -83t-94.5 -200q0 -100 85.5 -168.5t211.5 -68.5l-48 -90q-155 0 -253 88t-98 216q-1 180 163 296q-83 83 -83 166q0 67 46 105.5t100 38.5h360l30 150
h-662l19 90h945z" />
    <glyph glyph-name="u0938094D0924094D0930" horiz-adv-x="1388" 
d="M1458 910h-143l-185 -910h-100l88 430l-353 -210l-42 90l419 240q-94 150 -229 150q-62 0 -161 -50l-43 80q138 70 224 70q140 0 236 -120l46 230h-662l-55 -270q-10 -49 -38 -90h352l-20 -100h-290l-56 82q-71 -82 -156 -82q-46 0 -65 18q92 -219 269 -398l-74 -70
q-267 270 -373 670l100 50q38 -180 131 -180q43 0 77 28.5t43 71.5l55 270h-462l19 90h1467z" />
    <glyph glyph-name="u091C094D091CHalf" horiz-adv-x="760" 
d="M830 910h-839l19 90h839zM959 670h-390q9 -9 9 -33q0 -95 -69.5 -166t-154.5 -71q-101 0 -172 97.5t-97 252.5l94 20q20 -120 68.5 -200t114.5 -80q46 0 81.5 40.5t35.5 119.5q0 63 -32 110h530zM914 450l-309 -140q10 -15 10 -38q0 -83 -74 -162.5t-173 -79.5
q-113 0 -202 69.5t-135 190.5l90 50q28 -105 98.5 -167.5t165.5 -62.5q52 0 95 48t43 102q0 48 -52 80l463 210z" />
    <glyph glyph-name="u09260943" horiz-adv-x="830" 
d="M900 910h-127l-53 -260h-390q-69 0 -125.5 -50.5t-56.5 -131.5q0 -96 98 -157t233 -61q-8 24 -8 46q-1 54 41.5 99t95.5 45q40 0 66 -22.5t26 -56.5q0 -40 -28 -83.5t-83 -77.5l69 -250h-240q-62 0 -105.5 -50t-43.5 -106q0 -44 32.5 -74t83.5 -30q106 0 202 60l10 -100
q-81 -50 -230 -50q-93 0 -151.5 51.5t-58.5 125.5q0 104 81.5 183.5t187.5 79.5h90l-35 120q-178 0 -306.5 82.5t-128.5 210.5q0 120 91 208.5t214 88.5h290l32 160h-682l19 90h909z" />
    <glyph glyph-name="u09300941" horiz-adv-x="960" 
d="M1030 910h-489l-42 -210q108 90 238 90q79 0 123 -55t44 -128q0 -79 -49 -182t-160 -185l-88 60q103 55 149 138.5t46 152.5q0 44 -21 76.5t-62 32.5q-82 0 -167 -80l-61 40q-14 -67 -61 -118.5t-104 -51.5q-62 0 -68 10l232 -430l-92 -60l-343 670l90 50
q54 -140 141 -140q90 0 107 80l48 240h-450l19 90h1039z" />
    <glyph glyph-name="u09300942" horiz-adv-x="1142" 
d="M1212 910h-669l-48 -240h200q64 60 152 60q98 0 151.5 -70t53.5 -164q-1 -94 -53.5 -210t-168.5 -226l-67 60q97 82 141.5 181t44.5 173q0 61 -31 108.5t-92 47.5t-105.5 -49.5t-43.5 -112.5q0 -63 52 -118l-72 -60q-83 70 -83 159q0 68 54 141h-164q-48 -100 -138 -100
q-62 0 -68 10l232 -430l-92 -60l-343 670l90 50q54 -140 141 -140q92 0 111 94l46 226h-452l19 90h1221z" />
    <glyph glyph-name="u09390943" horiz-adv-x="822" 
d="M892 910h-105l-44 -220h-460q-39 0 -39 -46q0 -25 39 -61.5t69 -42.5q60 20 144 20q94 0 158.5 -47.5t64.5 -117.5q0 -68 -48 -116.5t-112 -48.5q-62 0 -115 -24.5t-53 -71.5q0 -37 38.5 -60.5t92.5 -23.5q58 0 82 10l-10 -100q-40 -10 -92 -10q-91 0 -152 47t-61 117
q0 82 68.5 139t157.5 57q102 0 102 66q0 37 -42.5 60.5t-98.5 23.5q-140 0 -249.5 -92t-109.5 -228q-1 -137 142.5 -223.5t338.5 -86.5l-13 -110q-236 0 -403.5 113t-167.5 286q0 237 236 361q-108 73 -108 148q0 57 48 109.5t113 52.5h360l24 120h-696l19 90h901z" />
    <glyph glyph-name="u0928Comp" horiz-adv-x="0" 
d="M-253 260l-336 -130l23 -80q3 -10 3 -19q0 -42 -51 -42q-37 0 -80 29.5t-43 67.5q0 54 58 94l444 170z" />
    <glyph glyph-name="u0918094D0930" horiz-adv-x="968" 
d="M1038 910h-143l-185 -910h-100l62 302l-632 -352l-44 80l270 144q-82 14 -129 68.5t-47 127.5q0 152 152 230q-50 19 -78 60t-27 91q-1 85 78 159h-224l19 90h1047zM702 450l93 460h-460q-49 -25 -73 -64.5t-23 -78.5q0 -46 42 -76.5t104 -30.5h130l11 -90h-90
q-95 0 -169 -51t-74 -125q0 -53 47 -88.5t115 -35.5q160 0 347 180z" />
    <glyph glyph-name="u091A094D0930" horiz-adv-x="958" 
d="M1028 910h-143l-185 -910h-100l66 324l-596 -374l-44 80l268 158q-61 17 -92.5 66.5t-31.5 111.5q0 71 38.5 150.5t121.5 123.5h-290l21 100h590l-21 -100h-140q-119 -42 -168 -114.5t-49 -134.5q0 -46 31 -78.5t83 -32.5q90 0 307 180l91 450h-794l19 90h1037z" />
    <glyph glyph-name="u0925094D0930" horiz-adv-x="1040" 
d="M1110 910h-143l-185 -910h-100l70 342l-710 -392l-32 90l316 164q-124 18 -191 118t-61 228q25 -10 148 -10q119 0 213 73.5t94 178.5q0 56 -34 97t-94 41q-67 0 -115.5 -39t-48.5 -87q0 -32 30 -53t74 -21l-21 -100q-87 0 -136.5 40t-49.5 107q0 102 86.5 177.5
t201.5 75.5q97 0 153 -64t57 -152q0 -154 -133.5 -264t-306.5 -110q37 -140 221 -140q170 0 369 190l85 420h-100l19 90h343z" />
    <glyph glyph-name="u0927094D0930" horiz-adv-x="982" 
d="M1052 910h-143l-185 -910h-100l60 292l-670 -342l-24 80l296 146q-75 16 -121.5 62.5t-46.5 106.5q-1 45 26.5 105.5t91.5 99.5q-120 99 -120 219q0 105 76 183t172 78q75 0 117 -35t43 -94q0 -86 -66.5 -143.5t-150.5 -57.5l20 100q51 0 72.5 22.5t21.5 50.5
q0 57 -78 57q-49 0 -87.5 -42t-38.5 -106q0 -100 111 -172q75 30 156 30h60l40 -100h-110q-104 0 -179 -55t-75 -122q0 -42 45 -67.5t104 -25.5q146 0 339 140l101 500h-220l19 90h463z" />
    <glyph glyph-name="u0928094D0930" horiz-adv-x="892" 
d="M962 910h-143l-185 -910h-100l60 296l-580 -296l-33 80l634 318l31 152h-290q-60 0 -68 -40l-20 -100q-13 -60 -63 -60q-36 0 -93 97.5t-57 141.5q0 61 81 61h530l53 260h-728l19 90h971z" />
    <glyph glyph-name="u0932094D0930" horiz-adv-x="1098" 
d="M1168 910h-143l-185 -910h-100l40 196l-334 -166l-33 80l390 196l59 294q-97 0 -184 -81t-133 -199l-94 30q36 98 91 150q-46 100 -160 100q-96 0 -171.5 -74.5t-75.5 -184.5q0 -80 49 -148t135 -103l-59 -90q-108 43 -167.5 130.5t-59.5 190.5q0 155 111.5 267
t258.5 112q157 0 227 -110q57 62 253 110l42 210h-934l19 90h1177z" />
    <glyph glyph-name="u0919094D0915094DHalf" horiz-adv-x="1058" 
d="M397 -250h-90l31 150q-97 -70 -224 -70q-80 0 -131 37.5t-51 89.5q0 72 71.5 132.5t165.5 60.5q100 0 148 -60l-75 -70q-40 40 -92 40q-44 0 -85 -25t-41 -61q0 -54 108 -54q127 0 230 100l37 180q-244 0 -385 220l82 60q100 -200 379 -200q94 0 167.5 47t73.5 112
q0 71 -84 71l-118 -40q-60 -20 -94 -20q-75 0 -144.5 72t-69.5 141q0 56 43 86.5t98 30.5h380l26 130h-762l19 90h1137l-19 -90h-275l-44 -220h-430q-59 0 -59 -48q0 -30 43 -61t77 -31q36 0 94 20q88 30 116 30q74 0 120 -44.5t46 -106.5q0 -106 -101 -177.5t-226 -71.5
l-31 -150q129 80 217 80l-17 -80q-58 0 -220 -100zM912 605q0 34 19.5 59.5t61.5 25.5q54 0 54 -45q0 -36 -20.5 -60.5t-60.5 -24.5q-54 0 -54 45z" />
    <glyph glyph-name="u094B0902" horiz-adv-x="400" 
d="M470 910h-143l-185 -910h-100l185 910h-236l19 90h479zM342 1000h-100l-281 440l82 60zM318 1351q0 36 20 60.5t60 24.5q54 0 54 -45q0 -34 -19.5 -59.5t-60.5 -25.5q-54 0 -54 45z" />
    <glyph glyph-name="u094B0930094D" horiz-adv-x="400" 
d="M470 910h-143l-185 -910h-100l185 910h-236l19 90h479zM558 1310q-76 30 -104 30q-70 0 -123 -55t-53 -148q0 -24 7 -37l60 -100h-100l-281 440l82 60l158 -263q30 80 105.5 131.5t160.5 51.5q54 0 106 -20z" />
    <glyph glyph-name="u094B0930094D0902" horiz-adv-x="400" 
d="M470 910h-143l-185 -910h-100l185 910h-236l19 90h479zM560 1310q-76 30 -104 30q-70 0 -123 -55t-53 -148q0 -24 7 -37l60 -100h-100l-281 440l82 60l158 -263q30 80 105.5 131.5t160.5 51.5q54 0 106 -20zM387 1145q0 34 19 59.5t61 25.5q54 0 54 -45q0 -34 -19 -59.5
t-61 -25.5q-54 0 -54 45z" />
    <glyph glyph-name="u094C0902" horiz-adv-x="400" 
d="M470 910h-143l-185 -910h-100l185 910h-236l19 90h479zM377 1000h-130l-388 210l69 90l391 -290l-133 430l112 60zM441 1303q0 34 19.5 59.5t61.5 25.5q54 0 54 -45q0 -36 -20.5 -60.5t-60.5 -24.5q-54 0 -54 45z" />
    <glyph glyph-name="u094C0930094D" horiz-adv-x="400" 
d="M470 910h-143l-185 -910h-100l185 910h-236l19 90h479zM639 1310q-76 30 -104 30q-59 0 -108.5 -29.5t-71.5 -67t-21 -60.5q0 -21 12 -83l20 -100h-130l-400 200l71 100l401 -290l-163 430l112 60l48 -210q91 130 246 130q54 0 106 -20z" />
    <glyph glyph-name="u094C0930094D0902" horiz-adv-x="400" 
d="M470 910h-143l-185 -910h-100l185 910h-236l19 90h479zM640 1310q-76 30 -104 30q-59 0 -108.5 -29.5t-71.5 -67t-21 -60.5q0 -21 12 -83l20 -100h-130l-400 200l71 100l401 -290l-163 430l112 60l48 -210q91 130 246 130q54 0 106 -20zM459 1135q0 36 20 60.5t60 24.5
q54 0 54 -45q0 -34 -19 -59.5t-61 -25.5q-54 0 -54 45z" />
    <glyph glyph-name="u091E094D0930" horiz-adv-x="1108" 
d="M1178 910h-143l-185 -910h-100l38 188l-498 -238l-24 80l541 250l33 160q-88 -30 -146 -30q-44 0 -94 30q-43 -112 -139 -186t-204 -74q-169 0 -261 190l84 70q58 -160 197 -160q89 0 162 73t73 165q0 53 -34.5 92.5t-95.5 39.5q-102 0 -186 -80l-54 80q121 100 261 100
q91 0 151 -59t66 -151q20 -30 94 -30q92 0 148 40l73 360h-944l19 90h1187z" />
    <glyph glyph-name="u0923094D0930" horiz-adv-x="1006" 
d="M1076 910h-143l-185 -910h-100l38 188l-498 -238l-24 80l541 250l128 630h-190l-85 -420q-22 -103 -102.5 -176.5t-178.5 -73.5q-90 0 -142.5 57t-52.5 138q0 26 6 55l85 420h-182l19 90h1085zM458 490l85 420h-270l-85 -420q-4 -17 -4 -33q0 -47 30.5 -82t82.5 -35
q57 0 102.5 44.5t58.5 105.5zM682 1z" />
    <glyph glyph-name="u092F094D0930" horiz-adv-x="896" 
d="M966 910h-143l-185 -910h-100l61 300l-533 -310l-46 70l277 150q-123 4 -194 82t-71 185q0 35 8 73q122 0 204.5 51.5t82.5 149.5q0 80 -64 159h-272l19 90h975zM630 450l93 460h-340q45 -72 45 -147q0 -110 -85.5 -191t-208.5 -102v-6q-1 -78 57.5 -126t145.5 -48
q169 0 293 160z" />
    <glyph glyph-name="u0937094D0930" horiz-adv-x="804" 
d="M874 910h-143l-185 -910h-100l46 224l-510 -244l-24 80l552 254l9 46q-96 -60 -222 -60q-97 0 -155 60.5t-58 144.5q0 26 6 55l71 350h-170l19 90h883zM564 580l67 330h-350zM542 470l-301 340l-51 -250q-3 -17 -3 -34q-1 -52 35 -89t96 -37q128 0 224 70z" />
    <glyph glyph-name="u0915094D0937094D0930" horiz-adv-x="990" 
d="M1060 910h-143l-185 -910h-100l34 166l-133 -66l-24 80l176 80l59 290q-76 -40 -158 -40q-124 0 -244 80q-85 -22 -141.5 -77.5t-56.5 -125.5q0 -58 46.5 -97.5t118.5 -39.5q-10 35 -7 44q8 41 42.5 68.5t77.5 27.5q38 0 60 -22.5t22 -54.5t-20 -70.5t-65 -62.5l65 -170
l-90 -50l-79 200q-116 0 -194 61t-78 151q0 87 56.5 157.5t172.5 110.5q-86 73 -86 151q0 83 76 161t180 78q77 0 124.5 -49t47.5 -116q0 -142 -162 -225q76 -40 152 -40q63 0 160 50l53 260h-100l19 90h343zM509 820q3 12 3 24q0 35 -25.5 60.5t-67.5 25.5
q-49 0 -90.5 -38.5t-41.5 -87.5q0 -55 76 -114q128 45 146 130z" />
    <glyph glyph-name="u091C094D091E094D0930" horiz-adv-x="1068" 
d="M1139 910h-143l-185 -910h-100l29 140l-243 -110l-23 80l284 122l90 438h-580q-58 0 -58 -45q0 -41 39.5 -98t77.5 -57q34 0 99 20t99 20q41 0 61.5 -34t20.5 -80q0 -117 -104 -201.5t-239 -84.5q21 -84 167 -110l-84 -70q-130 39 -192 140q-67 0 -116 31t-49 78
q0 45 33 78t77 33q47 0 118 -110q119 12 203.5 66.5t84.5 131.5q0 42 -39 42q-22 0 -80 -20t-88 -20q-64 0 -127 86t-63 151q0 66 55.5 109.5t123.5 43.5h580l28 140h-904l19 90h1147z" />
    <glyph glyph-name="u0918093C" horiz-adv-x="956" 
d="M1026 910h-143l-185 -910h-100l65 320q-180 -150 -340 -150q-106 0 -175.5 58t-68.5 144q0 150 151 228q-50 19 -77.5 60t-27.5 91q0 85 78 159h-212l19 90h1035zM690 450l93 460h-460q-49 -25 -72.5 -64.5t-23.5 -78.5q0 -46 42 -76.5t104 -30.5h130l11 -90h-90
q-95 0 -169 -51t-74 -125q-1 -53 46.5 -88.5t115.5 -35.5q160 0 347 180zM36 46q0 36 20.5 60.5t60.5 24.5q54 0 54 -45q0 -34 -19.5 -59.5t-61.5 -25.5q-54 0 -54 45z" />
    <glyph glyph-name="u0919093C" horiz-adv-x="1078" 
d="M1148 910h-283l-53 -260h-370q-37 0 -37 -43q0 -42 43 -99.5t84 -57.5q32 0 94 20t94 20q56 0 88.5 -37t32.5 -87q0 -56 -39 -136t-129 -145t-199 -65q-164 0 -286 120.5t-174 319.5l90 50q47 -175 150.5 -282.5t240.5 -107.5q100 0 172 79.5t73 151.5q0 39 -40 39
q-33 0 -95 -20q-61 -20 -94 -20q-73 0 -140.5 84t-67.5 157q0 66 49.5 112.5t110.5 46.5h270l32 160h-774l19 90h1157zM920 545q0 36 20 60.5t60 24.5q54 0 54 -45q0 -34 -19.5 -59.5t-60.5 -25.5q-54 0 -54 45zM950 0zM-48 46q0 36 20.5 60.5t60.5 24.5q54 0 54 -45
q0 -34 -19.5 -59.5t-61.5 -25.5q-54 0 -54 45z" />
    <glyph glyph-name="u091A093C" horiz-adv-x="958" 
d="M1028 910h-143l-185 -910h-100l73 360q-164 -180 -306 -180q-90 0 -143.5 56t-53.5 133q0 66 37.5 146t122.5 125h-290l21 100h590l-21 -100h-140q-119 -42 -168 -114.5t-49 -134.5q0 -46 31 -78.5t83 -32.5q136 0 317 230l81 400h-794l19 90h1037zM32 107
q0 36 20.5 60.5t60.5 24.5q54 0 54 -45q0 -34 -19.5 -59.5t-61.5 -25.5q-54 0 -54 45z" />
    <glyph glyph-name="u091B093C" horiz-adv-x="1066" 
d="M1136 910h-223l-30 -150q64 -13 97.5 -59t34.5 -105q-1 -96 -78.5 -213t-243 -225t-325.5 -108q-123 0 -205.5 66t-82.5 163q0 66 38 147t124 134q-123 63 -123 164q0 46 24 101.5t70 84.5h-222l19 90h1145zM783 760l30 150h-480q-113 -81 -113 -175q0 -49 44.5 -82
t109.5 -33h110l-20 -100h-80q-81 0 -141.5 -73t-60.5 -148q0 -63 60.5 -106t146.5 -43q129 0 270 100q-87 110 -87 226q0 103 60 185t151 99zM910 550q3 12 3 23q-1 37 -29 62t-71 25q-56 0 -98.5 -47t-42.5 -130q0 -94 73 -153q137 86 165 220zM-35 -26q0 36 20.5 60.5
t60.5 24.5q54 0 54 -45q0 -34 -19.5 -59.5t-61.5 -25.5q-54 0 -54 45z" />
    <glyph glyph-name="u091D093C" horiz-adv-x="1098" 
d="M1168 910h-143l-185 -910h-100l82 400q-74 -30 -136 -30q-54 0 -106 20q-49 -237 -307 -280q85 -84 147 -110l-64 -70q-120 62 -189 150q-66 0 -117 28.5t-51 73.5q0 38 24 68t74 30q94 0 140 -100q110 21 175.5 84t65.5 127q0 39 -40 39q-31 0 -89 -20q-59 -20 -89 -20
q-56 0 -114 84.5t-58 144.5q0 62 56 106.5t123 44.5h250l28 140h-554l19 90h1177zM842 500l83 410h-280l-48 -240h-350q-58 0 -58 -44q0 -35 29.5 -85.5t61.5 -50.5q31 0 89 20t89 20q58 0 94 -30q48 -40 152 -40q44 0 138 40zM-1 -80q0 36 20.5 60.5t60.5 24.5q54 0 54 -45
q0 -34 -19.5 -59.5t-61.5 -25.5q-54 0 -54 45z" />
    <glyph glyph-name="u091E093C" horiz-adv-x="1108" 
d="M1178 910h-143l-185 -910h-100l90 440q-88 -30 -146 -30q-44 0 -94 30q-43 -112 -139 -186t-204 -74q-169 0 -261 190l84 70q58 -160 197 -160q89 0 162 73t73 165q0 53 -34.5 92.5t-95.5 39.5q-102 0 -186 -80l-54 80q121 100 261 100q91 0 151 -59t66 -151
q20 -30 94 -30q92 0 148 40l73 360h-944l19 90h1187zM-31 45q0 36 20.5 60.5t60.5 24.5q54 0 54 -45q0 -34 -19.5 -59.5t-61.5 -25.5q-54 0 -54 45z" />
    <glyph glyph-name="u091F093C" horiz-adv-x="850" 
d="M920 910h-165l-61 -300h-370q-71 0 -126.5 -68t-54.5 -170q-1 -104 71 -178t191 -74q177 0 288 140l66 -70q-135 -170 -375 -170q-157 0 -250.5 97.5t-93.5 232.5q0 153 93 256.5t212 103.5h270l40 200h-664l19 90h929zM763 399zM-36 -51q0 36 20.5 60.5t60.5 24.5
q54 0 54 -45q0 -34 -19.5 -59.5t-61.5 -25.5q-54 0 -54 45z" />
    <glyph glyph-name="u0920093C" horiz-adv-x="872" 
d="M942 910h-189l-59 -290h-350q-79 0 -141 -69.5t-61 -167.5q0 -101 74.5 -187t184.5 -86q103 0 181 82.5t78 184.5q0 94 -80 173l92 60q91 -93 91 -211q-1 -149 -116 -269t-267 -120q-146 0 -243.5 111.5t-96.5 243.5q0 145 99 250t226 105h250l38 190h-662l19 90h951z
M-57 -9q0 36 20.5 60.5t60.5 24.5q54 0 54 -45q0 -34 -19.5 -59.5t-61.5 -25.5q-54 0 -54 45z" />
    <glyph glyph-name="u0923093C" horiz-adv-x="1006" 
d="M1076 910h-143l-185 -910h-100l185 910h-190l-85 -420q-22 -103 -102.5 -176.5t-178.5 -73.5q-90 0 -142.5 57t-52.5 138q0 26 6 55l85 420h-182l19 90h1085zM458 490l85 420h-270l-85 -420q-4 -17 -4 -33q0 -47 30.5 -82t82.5 -35q57 0 102.5 44.5t58.5 105.5zM682 -1z
M38 95q0 36 20.5 60.5t60.5 24.5q54 0 54 -45q0 -34 -19.5 -59.5t-61.5 -25.5q-54 0 -54 45z" />
    <glyph glyph-name="u092A093C" horiz-adv-x="806" 
d="M876 910h-143l-185 -910h-100l78 380q-109 -90 -219 -90q-99 0 -161 59.5t-62 145.5q0 26 6 55l73 360h-172l19 90h885zM556 530l77 380h-370l-73 -360q-3 -17 -3 -32q-1 -52 38.5 -90t102.5 -38q135 0 228 140zM55 157q0 36 20.5 60.5t60.5 24.5q54 0 54 -45
q0 -34 -19.5 -59.5t-61.5 -25.5q-54 0 -54 45z" />
    <glyph glyph-name="u092C093C" horiz-adv-x="808" 
d="M878 910h-143l-185 -910h-100l65 320q-120 -100 -240 -100q-104 0 -168.5 60.5t-64.5 146.5q0 130 109.5 236.5t255.5 106.5q75 0 124 -30l-46 -80q-40 20 -96 20q-89 0 -129 -40l246 -220l38 40l91 450h-644l19 90h887zM423 360l-225 220q-53 -55 -53 -131
q-1 -54 41.5 -91.5t108.5 -37.5q72 0 128 40zM10 79q0 36 20.5 60.5t60.5 24.5q54 0 54 -45q0 -34 -19.5 -59.5t-61.5 -25.5q-54 0 -54 45z" />
    <glyph glyph-name="u092D093C" horiz-adv-x="988" 
d="M1058 910h-143l-185 -910h-100l88 430h-330l-17 -80q-8 -40 -58 -40q-30 0 -87 70.5t-57 103.5q0 46 59 46h80l59 290q3 12 3 24q0 31 -19 53.5t-54 22.5q-58 0 -82 -26.5t-24 -59.5q0 -64 76 -64l-20 -100q-71 0 -114.5 42.5t-43.5 101.5q0 83 69.5 144.5t159.5 61.5
q70 0 112 -46.5t42 -109.5q0 -21 -5 -44l-59 -290h330l77 380h-260l19 90h503zM134 150q0 36 20.5 60.5t60.5 24.5q54 0 54 -45q0 -34 -19.5 -59.5t-61.5 -25.5q-54 0 -54 45z" />
    <glyph glyph-name="u092E093C" horiz-adv-x="870" 
d="M940 910h-143l-185 -910h-100l98 480h-360l-14 -70q-12 -60 -43 -60q-33 0 -98 70.5t-65 103.5q0 56 60 56h80l67 330h-246l19 90h949zM630 580l67 330h-360l-67 -330h360zM-4 198q0 36 20.5 60.5t60.5 24.5q54 0 54 -45q0 -34 -19.5 -59.5t-61.5 -25.5q-54 0 -54 45z
" />
    <glyph glyph-name="u0930093C" horiz-adv-x="1600" 
d="M200 1400h1200v-1400h-1200v1400zM1300 100v1200h-1000v-1200h1000z" />
    <glyph glyph-name="u0932093C" horiz-adv-x="1092" 
d="M1162 910h-143l-185 -910h-100l122 600q-91 0 -180.5 -80t-146.5 -200l-84 30q36 98 91 150q-46 100 -160 100q-96 0 -170.5 -74t-73.5 -164q-1 -82 75 -159t194 -123l-59 -90q-139 54 -225.5 150t-86.5 204q0 133 109.5 244.5t257.5 111.5q157 0 227 -110
q116 110 253 110l42 210h-928l19 90h1171zM-43 -28q0 36 20.5 60.5t60.5 24.5q54 0 54 -45q0 -34 -19.5 -59.5t-61.5 -25.5q-54 0 -54 45z" />
    <glyph glyph-name="u0934Alt" horiz-adv-x="1104" 
d="M1174 910h-271l-38 -190q78 -14 117.5 -77t39.5 -145q-1 -143 -97.5 -265.5t-223.5 -122.5q-138 0 -190 200q-131 -200 -260 -200q-102 0 -159.5 68.5t-56.5 162.5q0 142 101.5 260.5t238.5 118.5q72 0 121 -50.5t62 -129.5q92 159 207 180l38 190h-812l19 90h1183z
M482 410q-16 220 -126 220q-88 0 -154 -87.5t-65 -178.5q-1 -62 34 -108t100 -46q99 0 211 200zM584 420q34 -220 135 -220q79 0 139.5 91t61.5 187q-1 60 -29 106t-85 46q-59 0 -120 -60.5t-102 -149.5zM-51 -6q0 36 20.5 60.5t60.5 24.5q54 0 54 -45q0 -34 -19.5 -59.5
t-61.5 -25.5q-54 0 -54 45z" />
    <glyph glyph-name="u0935093C" 
d="M886 910h-143l-185 -910h-100l65 320q-103 -100 -230 -100q-111 0 -181 63t-70 153q0 130 109 227t252 97q74 0 122 -40l-67 -80q-31 30 -73 30q-94 0 -167 -64.5t-73 -147.5q0 -58 47.5 -98t120.5 -40q125 0 241 150l89 440h-652l19 90h895zM-17 99q0 36 20.5 60.5
t60.5 24.5q54 0 54 -45q0 -34 -19.5 -59.5t-61.5 -25.5q-54 0 -54 45z" />
    <glyph glyph-name="u0936093C" horiz-adv-x="1016" 
d="M221 310l241 -240l-74 -70l-372 380l64 70q70 -70 96 -70q115 0 210.5 89t120.5 211q-77 -100 -201 -100q-74 0 -118 48.5t-44 116.5q0 103 81 189t191 86q98 0 149 -75.5t51 -176.5q0 -169 -119 -313.5t-276 -144.5zM509 790q-23 130 -114 130q-60 0 -104.5 -49
t-44.5 -106q0 -35 21 -60t60 -25q107 0 182 110zM1086 910h-143l-185 -910h-100l185 910h-200l19 90h443zM668 -1zM39 30q0 36 20.5 60.5t60.5 24.5q54 0 54 -45q0 -34 -19.5 -59.5t-61.5 -25.5q-54 0 -54 45z" />
    <glyph glyph-name="u0937093C" horiz-adv-x="804" 
d="M874 910h-143l-185 -910h-100l73 360q-96 -60 -222 -60q-97 0 -155 60.5t-58 144.5q0 26 6 55l71 350h-170l19 90h883zM564 580l67 330h-350zM542 470l-301 340l-51 -250q-3 -17 -3 -34q-1 -52 35 -89t96 -37q128 0 224 70zM-17 185q0 36 20.5 60.5t60.5 24.5
q54 0 54 -45q0 -34 -19.5 -59.5t-61.5 -25.5q-54 0 -54 45z" />
    <glyph glyph-name="u0938093C" horiz-adv-x="1066" 
d="M1136 910h-143l-185 -910h-100l98 480h-270l-30 100h320l67 330h-340l-55 -270q-16 -78 -76 -134t-132 -56q-46 0 -65 18q92 -219 269 -398l-74 -70q-267 270 -373 670l100 50q37 -180 131 -180q43 0 77 28.5t43 71.5l55 270h-462l19 90h1145zM63 60q0 36 20.5 60.5
t60.5 24.5q54 0 54 -45q0 -34 -19.5 -59.5t-61.5 -25.5q-54 0 -54 45z" />
    <glyph glyph-name="u0939093C" horiz-adv-x="792" 
d="M862 910h-133l-48 -240h-410q-32 0 -45.5 -11.5t-13.5 -43.5q0 -70 84 -115q75 30 156 30q98 0 164 -51.5t66 -127.5q0 -58 -30.5 -114.5t-86.5 -86.5l-66 70q80 42 80 110q0 44 -44 72t-103 28q-115 0 -206.5 -56t-91.5 -142q0 -87 123.5 -139.5t274.5 -52.5l-38 -90
q-180 0 -321 73t-141 192q0 67 38 131t116 104q-75 77 -75 156q0 72 55.5 118t124.5 46h310l28 140h-638l19 90h871zM-8 -120q0 36 20.5 60.5t60.5 24.5q54 0 54 -45q0 -34 -19.5 -59.5t-61.5 -25.5q-54 0 -54 45z" />
    <glyph glyph-name="u0919094D0930" horiz-adv-x="1078" 
d="M1148 910h-283l-53 -260h-370q-37 0 -37 -43q0 -42 43 -99.5t84 -57.5q32 0 94 20t94 20q56 0 88.5 -37t32.5 -87q0 -56 -39 -136t-129 -145t-199 -65q-164 0 -286 120.5t-174 319.5l90 50q47 -175 150.5 -282.5t240.5 -107.5q100 0 172 79.5t73 151.5q0 39 -40 39
q-33 0 -95 -20q-61 -20 -94 -20q-73 0 -140.5 84t-67.5 157q0 66 49.5 112.5t110.5 46.5h270l32 160h-774l19 90h1157zM920 545q0 36 20 60.5t60 24.5q54 0 54 -45q0 -34 -19.5 -59.5t-60.5 -25.5q-54 0 -54 45zM950 0zM744 -322h-118l-173 234l-267 -234h-120l347 304h106z
" />
    <glyph glyph-name="u091B094D0930" horiz-adv-x="1066" 
d="M1136 910h-223l-30 -150q64 -13 97.5 -59t34.5 -105q-1 -96 -78.5 -213t-243 -225t-325.5 -108q-123 0 -205.5 66t-82.5 163q0 66 38 147t124 134q-123 63 -123 164q0 46 24 101.5t70 84.5h-222l19 90h1145zM783 760l30 150h-480q-113 -81 -113 -175q0 -49 44.5 -82
t109.5 -33h110l-20 -100h-80q-81 0 -141.5 -73t-60.5 -148q0 -63 60.5 -106t146.5 -43q129 0 270 100q-87 110 -87 226q0 103 60 185t151 99zM910 550q3 12 3 23q-1 37 -29 62t-71 25q-56 0 -98.5 -47t-42.5 -130q0 -94 73 -153q137 86 165 220zM642 -294h-118l-173 234
l-267 -234h-120l347 304h106z" />
    <glyph glyph-name="u091F094D0930" horiz-adv-x="850" 
d="M920 910h-165l-61 -300h-370q-71 0 -126.5 -68t-54.5 -170q-1 -104 71 -178t191 -74q177 0 288 140l66 -70q-135 -170 -375 -170q-157 0 -250.5 97.5t-93.5 232.5q0 153 93 256.5t212 103.5h270l40 200h-664l19 90h929zM763 399zM652 -324h-118l-173 234l-267 -234h-120
l347 304h106z" />
    <glyph glyph-name="u0920094D0930" horiz-adv-x="872" 
d="M942 910h-189l-59 -290h-350q-79 0 -141 -69.5t-61 -167.5q0 -101 74.5 -187t184.5 -86q103 0 181 82.5t78 184.5q0 94 -80 173l92 60q91 -93 91 -211q-1 -149 -116 -269t-267 -120q-146 0 -243.5 111.5t-96.5 243.5q0 145 99 250t226 105h250l38 190h-662l19 90h951z
M647 -332h-118l-173 234l-267 -234h-120l347 304h106z" />
    <glyph glyph-name="u0921094D0930" horiz-adv-x="950" 
d="M1020 910h-155l-53 -260h-370q-37 0 -37 -43q0 -42 43 -99.5t84 -57.5q32 0 94 20t94 20q56 0 88.5 -37t32.5 -87q0 -56 -39 -136t-129 -145t-199 -65q-164 0 -286 120.5t-174 319.5l90 50q47 -175 150.5 -282.5t240.5 -107.5q100 0 172 79.5t73 151.5q0 39 -40 39
q-33 0 -95 -20q-61 -20 -94 -20q-73 0 -140.5 84t-67.5 157q0 66 49.5 112.5t110.5 46.5h270l32 160h-774l19 90h1029zM747 -322h-118l-173 234l-267 -234h-120l347 304h106z" />
    <glyph glyph-name="u0922094D0930" horiz-adv-x="870" 
d="M940 910h-179l-61 -300h-390q-65 0 -116.5 -63.5t-51.5 -149.5q0 -99 78 -188.5t189 -98.5q-42 42 -42 112q0 105 71.5 176.5t163.5 71.5q74 0 118.5 -47t45.5 -110q0 -120 -114.5 -206.5t-261.5 -86.5q-148 0 -249 111.5t-101 243.5q0 136 88.5 235.5t202.5 99.5h290
l40 200h-670l19 90h949zM511 120q83 17 117.5 72t35.5 101q-1 32 -22.5 54.5t-59.5 22.5q-45 0 -79.5 -34.5t-34.5 -105.5q0 -67 43 -110zM663 -325h-118l-173 234l-267 -234h-120l347 304h106z" />
    <glyph glyph-name="u0933094D0930" horiz-adv-x="1104" 
d="M1174 910h-271l-38 -190q78 -14 117.5 -77t39.5 -145q-1 -143 -97.5 -265.5t-223.5 -122.5q-138 0 -190 200q-131 -200 -260 -200q-102 0 -159.5 68.5t-56.5 162.5q0 142 101.5 260.5t238.5 118.5q72 0 121 -50.5t62 -129.5q92 159 207 180l38 190h-812l19 90h1183z
M482 410q-16 220 -126 220q-88 0 -154 -87.5t-65 -178.5q-1 -62 34 -108t100 -46q99 0 211 200zM584 420q34 -220 135 -220q79 0 139.5 91t61.5 187q-1 60 -29 106t-85 46q-59 0 -120 -60.5t-102 -149.5zM934 -228h-118l-173 234l-267 -234h-120l347 304h106z" />
    <glyph glyph-name="u0958094D0930" horiz-adv-x="1156" 
d="M1226 910h-501l-55 -270q94 120 235 120q87 0 134.5 -61t47.5 -143q0 -98 -63 -209t-207 -217l-78 60q136 86 191 178t55 166q0 51 -25.5 88.5t-74.5 37.5q-74 0 -143 -54.5t-106 -135.5l-96 -470h-100l60 292l-496 -322l-46 70l279 172q-80 11 -123.5 68.5t-43.5 132.5
q-1 134 109 240.5t256 106.5q76 0 96 -20l-41 -100q-31 20 -75 20q-96 0 -169.5 -69.5t-73.5 -154.5q0 -52 35.5 -89t95.5 -37q127 0 227 130l95 470h-634l19 90h1235zM-94 178q0 36 20.5 60.5t60.5 24.5q54 0 54 -45q0 -34 -19.5 -59.5t-61.5 -25.5q-54 0 -54 45z" />
    <glyph glyph-name="u0959094D0930" horiz-adv-x="1370" 
d="M1440 910h-143l-185 -910h-100l63 310l-423 -262l-35 72l179 104q-92 14 -146 74.5t-54 139.5q0 127 108.5 224.5t252.5 97.5q74 0 122 -40l-67 -80q-31 30 -73 30q-94 0 -167 -64.5t-73 -147.5q0 -58 47.5 -98t120.5 -40q125 0 241 150l89 440h-644l-55 -270
q-16 -78 -76 -134t-132 -56q-46 0 -65 18q92 -219 269 -398l-74 -70q-267 270 -373 670l100 50q37 -180 131 -180q43 0 77 28.5t43 71.5l55 270h-462l19 90h1449zM26 43q0 36 20 60.5t60 24.5q54 0 54 -45q0 -34 -19.5 -59.5t-60.5 -25.5q-54 0 -54 45z" />
    <glyph glyph-name="u095A094D0930" horiz-adv-x="796" 
d="M866 910h-143l-185 -910h-100l56 274l-510 -244l-23 80l553 264l109 536h-250l-99 -490q-13 -60 -63 -60q-39 0 -96.5 87.5t-57.5 131.5q0 51 49 51h70q40 0 51 50l46 230h-282l19 90h875zM-45 280q0 36 20.5 60.5t60.5 24.5q54 0 54 -45q0 -34 -19.5 -59.5t-61.5 -25.5
q-54 0 -54 45z" />
    <glyph glyph-name="u0918093C094D0930" horiz-adv-x="968" 
d="M1038 910h-143l-185 -910h-100l62 302l-632 -352l-44 80l270 144q-82 14 -129 68.5t-47 127.5q0 152 152 230q-50 19 -78 60t-27 91q-1 85 78 159h-224l19 90h1047zM702 450l93 460h-460q-49 -25 -73 -64.5t-23 -78.5q0 -46 42 -76.5t104 -30.5h130l11 -90h-90
q-95 0 -169 -51t-74 -125q0 -53 47 -88.5t115 -35.5q160 0 347 180zM-74 156q0 36 20.5 60.5t60.5 24.5q54 0 54 -45q0 -34 -19.5 -59.5t-61.5 -25.5q-54 0 -54 45z" />
    <glyph glyph-name="u0919093C094D0930" horiz-adv-x="1078" 
d="M1148 910h-283l-53 -260h-370q-37 0 -37 -43q0 -42 43 -99.5t84 -57.5q32 0 94 20t94 20q56 0 88.5 -37t32.5 -87q0 -56 -39 -136t-129 -145t-199 -65q-164 0 -286 120.5t-174 319.5l90 50q47 -175 150.5 -282.5t240.5 -107.5q100 0 172 79.5t73 151.5q0 39 -40 39
q-33 0 -95 -20q-61 -20 -94 -20q-73 0 -140.5 84t-67.5 157q0 66 49.5 112.5t110.5 46.5h270l32 160h-774l19 90h1157zM920 545q0 36 20 60.5t60 24.5q54 0 54 -45q0 -34 -19.5 -59.5t-60.5 -25.5q-54 0 -54 45zM950 0zM-47 46q0 36 20.5 60.5t60.5 24.5q54 0 54 -45
q0 -34 -19.5 -59.5t-61.5 -25.5q-54 0 -54 45zM747 -322h-118l-173 234l-267 -234h-120l347 304h106z" />
    <glyph glyph-name="u091A093C094D0930" horiz-adv-x="958" 
d="M1028 910h-143l-185 -910h-100l66 324l-596 -374l-44 80l268 158q-61 17 -92.5 66.5t-31.5 111.5q0 71 38.5 150.5t121.5 123.5h-290l21 100h590l-21 -100h-140q-119 -42 -168 -114.5t-49 -134.5q0 -46 31 -78.5t83 -32.5q90 0 307 180l91 450h-794l19 90h1037zM-37 186
q0 36 20.5 60.5t60.5 24.5q54 0 54 -45q0 -34 -19.5 -59.5t-61.5 -25.5q-54 0 -54 45z" />
    <glyph glyph-name="u091B093C094D0930" horiz-adv-x="1066" 
d="M1136 910h-223l-30 -150q64 -13 97.5 -59t34.5 -105q-1 -96 -78.5 -213t-243 -225t-325.5 -108q-123 0 -205.5 66t-82.5 163q0 66 38 147t124 134q-123 63 -123 164q0 46 24 101.5t70 84.5h-222l19 90h1145zM783 760l30 150h-480q-113 -81 -113 -175q0 -49 44.5 -82
t109.5 -33h110l-20 -100h-80q-81 0 -141.5 -73t-60.5 -148q0 -63 60.5 -106t146.5 -43q129 0 270 100q-87 110 -87 226q0 103 60 185t151 99zM910 550q3 12 3 23q-1 37 -29 62t-71 25q-56 0 -98.5 -47t-42.5 -130q0 -94 73 -153q137 86 165 220zM642 -294h-118l-173 234
l-267 -234h-120l347 304h106zM-35 -26q0 36 20.5 60.5t60.5 24.5q54 0 54 -45q0 -34 -19.5 -59.5t-61.5 -25.5q-54 0 -54 45z" />
    <glyph glyph-name="u095B094D0930" horiz-adv-x="1090" 
d="M1160 910h-143l-185 -910h-100l47 230l-521 -250l-24 80l563 260l57 280h-250q39 -77 39 -136q0 -87 -74.5 -160.5t-169.5 -73.5q-132 0 -222.5 117.5t-122.5 302.5l99 40q25 -156 95.5 -258t170.5 -102q48 0 86 36.5t39 105.5q0 104 -99 228h430l42 210h-926l19 90h1169
zM-17 197q0 36 20.5 60.5t60.5 24.5q54 0 54 -45q0 -34 -19.5 -59.5t-61.5 -25.5q-54 0 -54 45z" />
    <glyph glyph-name="u091D093C094D0930" horiz-adv-x="1108" 
d="M1178 910h-143l-185 -910h-100l33 160l-255 -120l-35 70l306 130l33 160q-74 -30 -116 -30q-48 0 -124 30q-49 -238 -287 -280q65 -66 149 -100l-88 -90q-120 62 -189 150q-74 0 -131 28.5t-57 74.5q0 42 36 69.5t82 27.5q94 0 140 -100q100 19 169 73.5t69 131.5
q0 45 -37 45q-31 0 -89 -20q-59 -20 -89 -20q-56 0 -114 84.5t-58 144.5q0 64 55 107.5t122 43.5h250l30 140h-564l19 90h1187zM852 500l83 410h-280l-48 -240h-350q-58 0 -58 -43q0 -37 33.5 -87t67.5 -50q30 0 88 15t88 15q72 0 96 -20q48 -40 142 -40q44 0 138 40zM5 -80
q0 36 20.5 60.5t60.5 24.5q54 0 54 -45q0 -34 -19.5 -59.5t-61.5 -25.5q-54 0 -54 45z" />
    <glyph glyph-name="u091E093C094D0930" horiz-adv-x="1108" 
d="M1178 910h-143l-185 -910h-100l38 188l-498 -238l-24 80l541 250l33 160q-88 -30 -146 -30q-44 0 -94 30q-43 -112 -139 -186t-204 -74q-169 0 -261 190l84 70q58 -160 197 -160q89 0 162 73t73 165q0 53 -34.5 92.5t-95.5 39.5q-102 0 -186 -80l-54 80q121 100 261 100
q91 0 151 -59t66 -151q20 -30 94 -30q92 0 148 40l73 360h-944l19 90h1187zM-39 45q0 36 20.5 60.5t60.5 24.5q54 0 54 -45q0 -34 -19.5 -59.5t-61.5 -25.5q-54 0 -54 45z" />
    <glyph glyph-name="u091F093C094D0930" horiz-adv-x="850" 
d="M920 910h-165l-61 -300h-370q-71 0 -126.5 -68t-54.5 -170q-1 -104 71 -178t191 -74q177 0 288 140l66 -70q-135 -170 -375 -170q-157 0 -250.5 97.5t-93.5 232.5q0 153 93 256.5t212 103.5h270l40 200h-664l19 90h929zM763 399zM-36 -51q0 36 20.5 60.5t60.5 24.5
q54 0 54 -45q0 -34 -19.5 -59.5t-61.5 -25.5q-54 0 -54 45zM666 -321h-118l-173 234l-267 -234h-120l347 304h106z" />
    <glyph glyph-name="u0920093C094D0930" horiz-adv-x="872" 
d="M942 910h-189l-59 -290h-350q-79 0 -141 -69.5t-61 -167.5q0 -101 74.5 -187t184.5 -86q103 0 181 82.5t78 184.5q0 94 -80 173l92 60q91 -93 91 -211q-1 -149 -116 -269t-267 -120q-146 0 -243.5 111.5t-96.5 243.5q0 145 99 250t226 105h250l38 190h-662l19 90h951z
M-57 -9q0 36 20.5 60.5t60.5 24.5q54 0 54 -45q0 -34 -19.5 -59.5t-61.5 -25.5q-54 0 -54 45zM648 -334h-118l-173 234l-267 -234h-120l347 304h106z" />
    <glyph glyph-name="u095C094D0930" horiz-adv-x="950" 
d="M1020 910h-155l-53 -260h-370q-37 0 -37 -43q0 -42 43 -99.5t84 -57.5q32 0 94 20t94 20q56 0 88.5 -37t32.5 -87q0 -56 -39 -136t-129 -145t-199 -65q-164 0 -286 120.5t-174 319.5l90 50q47 -175 150.5 -282.5t240.5 -107.5q100 0 172 79.5t73 151.5q0 39 -40 39
q-33 0 -95 -20q-61 -20 -94 -20q-73 0 -140.5 84t-67.5 157q0 66 49.5 112.5t110.5 46.5h270l32 160h-774l19 90h1029zM31 -38q0 36 20.5 60.5t60.5 24.5q54 0 54 -45q0 -34 -19.5 -59.5t-61.5 -25.5q-54 0 -54 45zM739 -322h-118l-173 234l-267 -234h-120l347 304h106z" />
    <glyph glyph-name="u095D094D0930" horiz-adv-x="870" 
d="M940 910h-179l-61 -300h-390q-65 0 -116.5 -63.5t-51.5 -149.5q0 -99 78 -188.5t189 -98.5q-42 42 -42 112q0 105 71.5 176.5t163.5 71.5q74 0 118.5 -47t45.5 -110q0 -120 -114.5 -206.5t-261.5 -86.5q-148 0 -249 111.5t-101 243.5q0 136 88.5 235.5t202.5 99.5h290
l40 200h-670l19 90h949zM511 120q83 17 117.5 72t35.5 101q-1 32 -22.5 54.5t-59.5 22.5q-45 0 -79.5 -34.5t-34.5 -105.5q0 -67 43 -110zM-18 -41q0 36 20.5 60.5t60.5 24.5q54 0 54 -45q0 -34 -19.5 -59.5t-61.5 -25.5q-54 0 -54 45zM666 -325h-118l-173 234l-267 -234
h-120l347 304h106z" />
    <glyph glyph-name="u0923093C094D0930" horiz-adv-x="1006" 
d="M1076 910h-143l-185 -910h-100l38 188l-498 -238l-24 80l541 250l128 630h-190l-85 -420q-22 -103 -102.5 -176.5t-178.5 -73.5q-90 0 -142.5 57t-52.5 138q0 26 6 55l85 420h-182l19 90h1085zM458 490l85 420h-270l-85 -420q-4 -17 -4 -33q0 -47 30.5 -82t82.5 -35
q57 0 102.5 44.5t58.5 105.5zM682 1zM-41 136q0 36 20.5 60.5t60.5 24.5q54 0 54 -45q0 -34 -19.5 -59.5t-61.5 -25.5q-54 0 -54 45z" />
    <glyph glyph-name="u0924093C094D0930" horiz-adv-x="810" 
d="M880 910h-143l-185 -910h-100l76 370l-409 -240l-34 80l411 240q-112 140 -194 140q-113 0 -226 -80l-44 80q142 100 291 100q110 0 237 -160l77 380h-646l19 90h889zM-84 9q0 36 20.5 60.5t60.5 24.5q54 0 54 -45q0 -34 -19.5 -59.5t-61.5 -25.5q-54 0 -54 45z" />
    <glyph glyph-name="u0925093C094D0930" horiz-adv-x="1040" 
d="M1110 910h-143l-185 -910h-100l70 342l-710 -392l-32 90l316 164q-124 18 -191 118t-61 228q25 -10 148 -10q119 0 213 73.5t94 178.5q0 56 -34 97t-94 41q-67 0 -115.5 -39t-48.5 -87q0 -32 30 -53t74 -21l-21 -100q-87 0 -136.5 40t-49.5 107q0 102 86.5 177.5
t201.5 75.5q97 0 153 -64t57 -152q0 -154 -133.5 -264t-306.5 -110q37 -140 221 -140q170 0 369 190l85 420h-100l19 90h343zM-50 177q0 36 20.5 60.5t60.5 24.5q54 0 54 -45q0 -34 -19.5 -59.5t-61.5 -25.5q-54 0 -54 45z" />
    <glyph glyph-name="u0926093C094D0930" horiz-adv-x="822" 
d="M892 910h-137l-53 -260h-370q-69 0 -125.5 -50.5t-56.5 -129.5q0 -85 79 -152.5t182 -67.5q42 0 62 10q-16 32 -16 60q0 51 41.5 85.5t91.5 34.5q41 0 65.5 -25t24.5 -60q0 -89 -107 -145q16 -98 87 -210l-108 -40q-61 77 -85 220l-383 -260l-56 70l287 180
q-121 35 -194 113t-73 173q0 117 91.5 205.5t213.5 88.5h270l32 160h-664l19 90h901zM-61 126q0 36 20.5 60.5t60.5 24.5q54 0 54 -45q0 -34 -19.5 -59.5t-61.5 -25.5q-54 0 -54 45z" />
    <glyph glyph-name="u0927093C094D0930" horiz-adv-x="982" 
d="M1052 910h-143l-185 -910h-100l60 292l-670 -342l-24 80l296 146q-75 16 -121.5 62.5t-46.5 106.5q-1 45 26.5 105.5t91.5 99.5q-120 99 -120 219q0 105 76 183t172 78q75 0 117 -35t43 -94q0 -86 -66.5 -143.5t-150.5 -57.5l20 100q51 0 72.5 22.5t21.5 50.5
q0 57 -78 57q-49 0 -87.5 -42t-38.5 -106q0 -100 111 -172q75 30 156 30h60l40 -100h-110q-104 0 -179 -55t-75 -122q0 -42 45 -67.5t104 -25.5q146 0 339 140l101 500h-220l19 90h463zM-71 162q0 36 20.5 60.5t60.5 24.5q54 0 54 -45q0 -34 -19.5 -59.5t-61.5 -25.5
q-54 0 -54 45z" />
    <glyph glyph-name="u0928093C094D0930" horiz-adv-x="892" 
d="M962 910h-143l-185 -910h-100l60 296l-580 -296l-33 80l634 318l31 152h-290q-60 0 -68 -40l-20 -100q-13 -60 -63 -60q-36 0 -93 97.5t-57 141.5q0 61 81 61h530l53 260h-728l19 90h971zM-41 251q0 36 20.5 60.5t60.5 24.5q54 0 54 -45q0 -34 -19.5 -59.5t-61.5 -25.5
q-54 0 -54 45z" />
    <glyph glyph-name="u092A093C094D0930" horiz-adv-x="866" 
d="M936 910h-143l-185 -910h-100l78 380l-578 -380l-43 80l344 220q-80 21 -127 77.5t-47 126.5q0 22 5 46l73 360h-222l19 90h945zM608 490l85 420h-380l-73 -360q-4 -20 -4 -35q0 -55 38.5 -95t101.5 -40q16 0 32 1t30 9zM-27 266q0 36 20.5 60.5t60.5 24.5q54 0 54 -45
q0 -34 -19.5 -59.5t-61.5 -25.5q-54 0 -54 45z" />
    <glyph glyph-name="u092C093C094D0930" horiz-adv-x="826" 
d="M896 910h-143l-185 -910h-100l61 300l-511 -300l-33 80l264 152q-84 19 -136 76t-52 129q0 120 108.5 226.5t255.5 106.5q75 0 124 -30l-46 -80q-40 20 -96 20q-89 0 -129 -40l246 -220l38 40l91 450h-662l19 90h905zM441 360l-225 220q-54 -55 -53 -131
q-1 -54 41.5 -91.5t108.5 -37.5q72 0 128 40zM-89 210q0 36 20.5 60.5t60.5 24.5q54 0 54 -45q0 -34 -19.5 -59.5t-61.5 -25.5q-54 0 -54 45z" />
    <glyph glyph-name="u092D093C094D0930" horiz-adv-x="990" 
d="M1060 910h-143l-185 -910h-100l51 250l-521 -250l-23 80l562 260l19 90h-330l-17 -80q-8 -40 -58 -40q-30 0 -87 70.5t-57 103.5q0 46 59 46h80l59 290q3 12 3 24q0 31 -19 53.5t-54 22.5q-57 0 -81.5 -26t-24.5 -62q0 -62 66 -62l-20 -100q-67 0 -107.5 42t-40.5 101
q0 85 69.5 146t159.5 61q70 0 111.5 -46.5t42.5 -109.5q0 -21 -5 -44l-59 -290h330l77 380h-260l19 90h503zM31 255q0 36 20.5 60.5t60.5 24.5q54 0 54 -45q0 -34 -19.5 -59.5t-61.5 -25.5q-54 0 -54 45z" />
    <glyph glyph-name="u092E093C094D0930" horiz-adv-x="870" 
d="M944 910h-143l-185 -910h-100l49 238l-501 -248l-34 80l553 260l31 150h-350l-14 -70q-12 -60 -53 -60q-33 0 -98.5 70.5t-64.5 103.5q0 56 60 56h80l67 330h-250l19 90h953zM634 580l67 330h-360l-67 -330h360zM-48 245q0 36 20.5 60.5t60.5 24.5q54 0 54 -45
q0 -34 -19.5 -59.5t-61.5 -25.5q-54 0 -54 45z" />
    <glyph glyph-name="u092F093C094D0930" horiz-adv-x="896" 
d="M966 910h-143l-185 -910h-100l61 300l-533 -310l-46 70l277 150q-123 4 -194 82t-71 185q0 35 8 73q122 0 204.5 51.5t82.5 149.5q0 80 -64 159h-272l19 90h975zM630 450l93 460h-340q45 -72 45 -147q0 -110 -85.5 -191t-208.5 -102v-6q-1 -78 57.5 -126t145.5 -48
q169 0 293 160zM-104 170q0 36 20.5 60.5t60.5 24.5q54 0 54 -45q0 -34 -19.5 -59.5t-61.5 -25.5q-54 0 -54 45z" />
    <glyph glyph-name="u0932093C094D0930" horiz-adv-x="1098" 
d="M1168 910h-143l-185 -910h-100l40 196l-334 -166l-33 80l390 196l59 294q-97 0 -184 -81t-133 -199l-94 30q36 98 91 150q-46 100 -160 100q-96 0 -171.5 -74.5t-75.5 -184.5q0 -80 49 -148t135 -103l-59 -90q-108 43 -167.5 130.5t-59.5 190.5q0 155 111.5 267
t258.5 112q157 0 227 -110q57 62 253 110l42 210h-934l19 90h1177zM-94 -15q0 36 20.5 60.5t60.5 24.5q54 0 54 -45q0 -34 -19.5 -59.5t-61.5 -25.5q-54 0 -54 45z" />
    <glyph glyph-name="u0934094D0930" horiz-adv-x="1104" 
d="M1174 910h-271l-38 -190q78 -14 117.5 -77t39.5 -145q-1 -143 -97.5 -265.5t-223.5 -122.5q-138 0 -190 200q-131 -200 -260 -200q-102 0 -159.5 68.5t-56.5 162.5q0 142 101.5 260.5t238.5 118.5q72 0 121 -50.5t62 -129.5q92 159 207 180l38 190h-812l19 90h1183z
M482 410q-16 220 -126 220q-88 0 -154 -87.5t-65 -178.5q-1 -62 34 -108t100 -46q99 0 211 200zM584 420q34 -220 135 -220q79 0 139.5 91t61.5 187q-1 60 -29 106t-85 46q-59 0 -120 -60.5t-102 -149.5zM56 -49q0 36 20.5 60.5t60.5 24.5q54 0 54 -45q0 -34 -19.5 -59.5
t-61.5 -25.5q-54 0 -54 45zM943 -235h-118l-173 234l-267 -234h-120l347 304h106z" />
    <glyph glyph-name="u0935093C094D0930" horiz-adv-x="832" 
d="M902 910h-143l-185 -910h-100l63 310l-503 -310l-33 80l257 144q-92 14 -146 74.5t-54 139.5q0 127 108.5 224.5t252.5 97.5q74 0 122 -40l-67 -80q-31 30 -73 30q-94 0 -167.5 -64.5t-72.5 -147.5q0 -58 47.5 -98t120.5 -40q125 0 241 150l89 440h-668l19 90h911z
M-95 198q0 36 20.5 60.5t60.5 24.5q54 0 54 -45q0 -34 -19.5 -59.5t-61.5 -25.5q-54 0 -54 45z" />
    <glyph glyph-name="u0936093C094D0930" horiz-adv-x="1066" 
d="M1136 910h-143l-185 -910h-100l92 450l-543 -360l-54 80l437 280l-248 110l-341 -200l-50 76l312 178q-101 65 -101 163q0 93 70.5 163t161.5 70q73 0 119 -45t46 -106q0 -55 -33 -115.5t-106 -113.5l262 -120l92 60l69 340h-180l19 90h423zM505 820q3 12 3 23
q0 33 -22.5 55t-60.5 22q-47 0 -80 -39t-33 -91q0 -73 87 -100q90 55 106 130zM-16 185q0 36 20.5 60.5t60.5 24.5q54 0 54 -45q0 -34 -19.5 -59.5t-61.5 -25.5q-54 0 -54 45z" />
    <glyph glyph-name="u0937093C094D0930" horiz-adv-x="804" 
d="M874 910h-143l-185 -910h-100l46 224l-510 -244l-24 80l552 254l9 46q-96 -60 -222 -60q-97 0 -155 60.5t-58 144.5q0 26 6 55l71 350h-170l19 90h883zM564 580l67 330h-350zM542 470l-301 340l-51 -250q-3 -17 -3 -34q-1 -52 35 -89t96 -37q128 0 224 70zM-47 219
q0 36 20.5 60.5t60.5 24.5q54 0 54 -45q0 -34 -19.5 -59.5t-61.5 -25.5q-54 0 -54 45z" />
    <glyph glyph-name="u0938093C094D0930" horiz-adv-x="1076" 
d="M1146 910h-143l-185 -910h-100l79 385l-286 -145l-34 80l341 169v1h-290l-32 90h340l67 330h-350l-55 -270q-16 -78 -76 -134t-132 -56q-46 0 -65 18q92 -219 269 -398l-74 -70q-267 270 -373 670l100 50q37 -180 131 -180q43 0 77 28.5t43 71.5l55 270h-462l19 90h1155z
M26 44q0 34 19 59.5t61 25.5q55 0 55 -45q0 -36 -20.5 -60.5t-60.5 -24.5q-54 0 -54 45z" />
    <glyph glyph-name="u0939093C094D0930" horiz-adv-x="830" 
d="M900 910h-129l-53 -260h-440q-38 0 -38 -48q-1 -24 22.5 -59.5t44.5 -48.5q83 26 161 26q116 0 180.5 -52t64.5 -123q0 -54 -35.5 -126.5t-112.5 -128.5l-66 70q60 37 86 86t26 83q0 32 -26 59l-261 -250l-67 60l236 230q-19 6 -40 6q-139 0 -232 -65t-92 -188
q0 -126 122 -208.5t293 -82.5l-18 -90q-209 0 -353 106t-144 264q-1 194 180 284q-85 84 -85 160q-1 57 41 96.5t94 39.5h380l32 160h-680l19 90h909zM-86 -161q0 36 20.5 60.5t60.5 24.5q54 0 54 -45q0 -34 -19.5 -59.5t-61.5 -25.5q-54 0 -54 45z" />
    <glyph glyph-name="u0918093C094DHalf" horiz-adv-x="718" 
d="M788 910h-473q-99 -69 -99 -156q0 -43 32.5 -73.5t83.5 -30.5h170l32 -90h-140q-80 0 -137.5 -60t-57.5 -122q0 -47 46.5 -77.5t109.5 -30.5q160 0 389 190l-25 -120q-237 -170 -384 -170q-102 0 -170 54t-68 133q0 56 31 121.5t100 101.5q-55 16 -84.5 59.5t-29.5 97.5
q0 84 81 173h-204l19 90h797zM598 0zM663 320zM690 450zM783 911zM956 20zM-25 74q0 36 20.5 60.5t60.5 24.5q54 0 54 -45q0 -34 -19.5 -59.5t-61.5 -25.5q-54 0 -54 45z" />
    <glyph glyph-name="u0919093C094DHalf" horiz-adv-x="1078" 
d="M1148 910h-283l-53 -260h-370q-37 0 -37 -43q0 -42 43 -99.5t84 -57.5q32 0 94 20t94 20q56 0 88.5 -37t32.5 -87q0 -56 -39 -136t-129 -145t-199 -65q-164 0 -286 120.5t-174 319.5l90 50q47 -175 150.5 -282.5t240.5 -107.5q100 0 172 79.5t73 151.5q0 39 -40 39
q-33 0 -95 -20q-61 -20 -94 -20q-73 0 -140.5 84t-67.5 157q0 66 49.5 112.5t110.5 46.5h270l32 160h-774l19 90h1157zM920 545q0 36 20 60.5t60 24.5q54 0 54 -45q0 -34 -19.5 -59.5t-60.5 -25.5q-54 0 -54 45zM950 0zM-47 46q0 36 20.5 60.5t60.5 24.5q54 0 54 -45
q0 -34 -19.5 -59.5t-61.5 -25.5q-54 0 -54 45zM728 -284l-72 -60l-251 240l-78 -40l-24 80l120 50z" />
    <glyph glyph-name="u091A093C094DHalf" horiz-adv-x="718" 
d="M788 910h-797l19 90h797zM736 420q-216 -240 -369 -240q-90 0 -143.5 56t-53.5 133q0 66 37 142t123 129h-290l21 100h580l-21 -100h-120q-124 -53 -176 -119.5t-51 -129.5q0 -46 31 -78.5t83 -32.5q149 0 381 300zM600 0zM785 911zM673 360zM704 510zM958 0zM44 78
q0 36 20.5 60.5t60.5 24.5q54 0 54 -45q0 -34 -19.5 -59.5t-61.5 -25.5q-54 0 -54 45z" />
    <glyph glyph-name="u091B093C094DHalf" horiz-adv-x="1066" 
d="M1136 910h-803q-113 -81 -113 -175q0 -49 44.5 -82t109.5 -33h110l-20 -100h-80q-81 0 -141.5 -73t-60.5 -148q0 -63 60.5 -106t146.5 -43q129 0 270 100q-87 110 -87 226q0 120 79.5 202t181.5 82q81 0 131 -49t51 -117q0 -90 -74.5 -206.5t-242.5 -227t-330 -110.5
q-123 0 -205.5 66t-82.5 163q0 66 38 147t124 134q-123 63 -123 164q0 46 24 101.5t70 84.5h-222l19 90h1145zM910 550q3 12 3 23q-1 37 -29 62t-71 25q-56 0 -98.5 -47t-42.5 -130q0 -94 73 -153q137 86 165 220zM-34 -26q0 34 19.5 59.5t61.5 25.5q54 0 54 -45
q0 -36 -20.5 -60.5t-60.5 -24.5q-54 0 -54 45z" />
    <glyph glyph-name="u091D093C094DHalf" horiz-adv-x="818" 
d="M888 910h-243l-48 -240h-350q-48 0 -48 -49q0 -41 30 -91t69 -50q30 0 90 25t90 25q40 0 102 -40q47 -30 144 -30q72 0 128 40l-20 -100q-88 -30 -126 -30q-62 0 -88 10l-11 -50q-15 -69 -114.5 -144.5t-169.5 -75.5q38 -38 147 -110l-74 -70q-5 12 -73 62q-79 57 -91 68
q-91 0 -168 31t-77 83q0 37 26 66.5t82 29.5q117 0 158 -110q123 34 196.5 91t73.5 117q0 62 -65 62q-31 0 -91 -25q-59 -25 -89 -25q-58 0 -119 88.5t-61 150.5q0 59 52 100t115 41h250l30 150h-554l19 90h897zM740 0zM822 400zM842 500zM925 911zM1098 0zM-72 -55
q0 34 19.5 59.5t61.5 25.5q54 0 54 -45q0 -36 -20.5 -60.5t-60.5 -24.5q-54 0 -54 45z" />
    <glyph glyph-name="u091E093C094DHalf" horiz-adv-x="690" 
d="M760 910h-769l19 90h769zM844 450q-92 -40 -158 -40q-18 0 -94 30q-33 -110 -124.5 -185t-198.5 -75q-160 0 -288 160l65 70q111 -140 241 -140q89 0 156.5 76t68.5 163q0 58 -37.5 99.5t-100.5 41.5q-84 0 -148 -40l-33 80q96 60 202 60q94 0 153.5 -61.5t59.5 -158.5
v-10q76 -30 104 -30q82 0 150 50zM-72 -55q0 34 19.5 59.5t61.5 25.5q54 0 54 -45q0 -36 -20.5 -60.5t-60.5 -24.5q-54 0 -54 45z" />
    <glyph glyph-name="u091F093C094DHalf" horiz-adv-x="850" 
d="M920 910h-165l-61 -300h-370q-71 0 -126.5 -68t-54.5 -170q-1 -104 71 -178t191 -74q177 0 288 140l66 -70q-135 -170 -375 -170q-157 0 -250.5 97.5t-93.5 232.5q0 153 93 256.5t212 103.5h270l40 200h-664l19 90h929zM763 399zM-36 -51q0 36 20.5 60.5t60.5 24.5
q54 0 54 -45q0 -34 -19.5 -59.5t-61.5 -25.5q-54 0 -54 45zM678 -290l-72 -60l-251 240l-78 -40l-24 80l120 50z" />
    <glyph glyph-name="u0920093C094DHalf" horiz-adv-x="872" 
d="M942 910h-189l-59 -290h-350q-79 0 -141 -69.5t-61 -167.5q0 -101 74.5 -187t184.5 -86q103 0 181 82.5t78 184.5q0 94 -80 173l92 60q91 -93 91 -211q-1 -149 -116 -269t-267 -120q-146 0 -243.5 111.5t-96.5 243.5q0 145 99 250t226 105h250l38 190h-662l19 90h951z
M-57 -9q0 36 20.5 60.5t60.5 24.5q54 0 54 -45q0 -34 -19.5 -59.5t-61.5 -25.5q-54 0 -54 45zM678 -290l-72 -60l-251 240l-78 -40l-24 80l120 50z" />
    <glyph glyph-name="u0921093C094DHalf" horiz-adv-x="950" 
d="M1020 910h-155l-53 -260h-370q-37 0 -37 -43q0 -42 43 -99.5t84 -57.5q32 0 94 20t94 20q56 0 88.5 -37t32.5 -87q0 -56 -39 -136t-129 -145t-199 -65q-164 0 -286 120.5t-174 319.5l90 50q47 -175 150.5 -282.5t240.5 -107.5q100 0 172 79.5t73 151.5q0 39 -40 39
q-33 0 -95 -20q-61 -20 -94 -20q-73 0 -140.5 84t-67.5 157q0 66 49.5 112.5t110.5 46.5h270l32 160h-774l19 90h1029zM31 -38q0 36 20.5 60.5t60.5 24.5q54 0 54 -45q0 -34 -19.5 -59.5t-61.5 -25.5q-54 0 -54 45zM745 -290l-72 -60l-251 240l-78 -40l-24 80l120 50z" />
    <glyph glyph-name="u0922093C094DHalf" horiz-adv-x="870" 
d="M940 910h-179l-61 -300h-390q-65 0 -116.5 -63.5t-51.5 -149.5q0 -99 78 -188.5t189 -98.5q-42 42 -42 112q0 105 71.5 176.5t163.5 71.5q74 0 118.5 -47t45.5 -110q0 -120 -114.5 -206.5t-261.5 -86.5q-148 0 -249 111.5t-101 243.5q0 136 88.5 235.5t202.5 99.5h290
l40 200h-670l19 90h949zM511 120q83 17 117.5 72t35.5 101q-1 32 -22.5 54.5t-59.5 22.5q-45 0 -79.5 -34.5t-34.5 -105.5q0 -67 43 -110zM-18 -41q0 36 20.5 60.5t60.5 24.5q54 0 54 -45q0 -34 -19.5 -59.5t-61.5 -25.5q-54 0 -54 45zM672 -290l-72 -60l-251 240l-78 -40
l-24 80l120 50z" />
    <glyph glyph-name="u0923093C094DHalf" horiz-adv-x="682" 
d="M752 910h-89l-89 -440q-20 -94 -102.5 -157t-182.5 -63q-92 0 -151 51.5t-59 125.5q0 21 5 43l89 440h-182l19 90h761zM474 470l89 440h-290l-89 -440q-3 -12 -3 -25q0 -45 35.5 -75t90.5 -30q58 0 106.5 37t60.5 93zM-32 139q0 36 20.5 60.5t60.5 24.5q54 0 54 -45
q0 -34 -19.5 -59.5t-61.5 -25.5q-54 0 -54 45z" />
    <glyph glyph-name="u0924093C094DHalf" horiz-adv-x="566" 
d="M636 910h-645l19 90h645zM624 620h-310q-59 0 -113 -36.5t-54 -126.5q0 -166 200 -367l-73 -60q-228 233 -228 421q0 121 90.5 190t196.5 69h310zM556 0zM682 620zM703 720zM741 910zM914 0zM-73 71q0 36 20.5 60.5t60.5 24.5q54 0 54 -45q0 -34 -19.5 -59.5t-61.5 -25.5
q-54 0 -54 45z" />
    <glyph glyph-name="u0925093C094DHalf" horiz-adv-x="814" 
d="M828 400q-197 -220 -435 -220q-134 0 -227 92t-116 238h180q114 0 200.5 75t86.5 176q0 61 -42.5 105t-113.5 44q-56 0 -99.5 -38.5t-43.5 -85.5q0 -34 36.5 -55t86.5 -21l-19 -90q-85 0 -146 43t-60 106q0 86 78.5 163.5t187.5 77.5q108 0 172.5 -67t64.5 -161
q0 -151 -130 -256.5t-297 -105.5q55 -150 219 -150q227 0 447 280zM884 910h-193l19 90h193zM679 0zM752 360zM779 490zM864 911zM1030 0zM-19 123q0 36 20.5 60.5t60.5 24.5q54 0 54 -45q0 -34 -19.5 -59.5t-61.5 -25.5q-54 0 -54 45z" />
    <glyph glyph-name="u0926093C094DHalf" horiz-adv-x="826" 
d="M896 910h-133l-53 -260h-390q-68 0 -120 -52t-52 -129q-1 -96 101 -157.5t240 -61.5q13 64 53.5 117t91.5 53q65 0 65 -62q0 -40 -30.5 -85t-91.5 -83l71 -190l-98 -40l-69 200q-178 0 -306.5 82.5t-128.5 210.5q0 120 89 208.5t206 88.5h290l32 160h-672l19 90h905z
M-1 88q0 36 20.5 60.5t60.5 24.5q54 0 54 -45q0 -34 -19.5 -59.5t-61.5 -25.5q-54 0 -54 45zM728 -337l-72 -60l-251 240l-78 -40l-24 80l120 50z" />
    <glyph glyph-name="u0927093C094DHalf" horiz-adv-x="736" 
d="M741 360q-240 -200 -400 -200q-98 0 -164 51t-66 128q0 61 33 120t96 91q-63 32 -97 89t-34 124q0 109 76 183t171 74q68 0 114 -37t46 -93q0 -75 -65 -127.5t-148 -52.5l18 90q50 0 71.5 21.5t21.5 48.5q0 50 -79 50q-50 0 -87.5 -38t-37.5 -107q0 -57 32 -105t88 -70
q88 30 126 30h100l34 -80h-120q-106 0 -186.5 -58.5t-80.5 -133.5q0 -47 46.5 -77.5t109.5 -30.5q158 0 409 240zM806 910h-203l19 90h203zM616 0zM683 330zM712 470zM801 911zM974 0zM-16 72q0 36 20.5 60.5t60.5 24.5q54 0 54 -45q0 -34 -19.5 -59.5t-61.5 -25.5
q-54 0 -54 45z" />
    <glyph glyph-name="u092A093C094DHalf" horiz-adv-x="530" 
d="M610 910h-353l-65 -320q-4 -22 -4 -41q0 -61 39.5 -105t106.5 -44q137 0 242 160l-28 -140q-99 -110 -233 -110q-106 0 -166.5 67t-60.5 160q0 30 6 63l63 310h-166l19 90h619zM448 0zM526 380zM556 530zM633 911zM806 0zM-5 200q0 36 20.5 60.5t60.5 24.5q54 0 54 -45
q0 -34 -19.5 -59.5t-61.5 -25.5q-54 0 -54 45z" />
    <glyph glyph-name="u092C093C094DHalf" horiz-adv-x="550" 
d="M620 910h-629l19 90h629zM547 320q-114 -130 -276 -130q-105 0 -167.5 64.5t-62.5 155.5q0 136 110 248t258 112q56 0 96 -20l-21 -100q-23 20 -95 20t-129 -40l264 -230l50 50zM453 350l-255 220q-28 -28 -41 -66t-13 -71q0 -58 40.5 -100.5t106.5 -42.5q90 0 162 60z
M-21 58q0 36 20.5 60.5t60.5 24.5q54 0 54 -45q0 -34 -19.5 -59.5t-61.5 -25.5q-54 0 -54 45z" />
    <glyph glyph-name="u092D093C094DHalf" horiz-adv-x="700" 
d="M722 440h-330l-19 -90q-8 -40 -58 -40q-30 0 -94 62.5t-64 92.5q0 23 23.5 44t49.5 21h80l59 290q3 12 3 24q0 31 -19 53.5t-54 22.5q-57 0 -81.5 -26t-24.5 -62q0 -62 66 -62l-20 -100q-67 0 -107.5 42t-40.5 101q0 85 69.5 146t159.5 61q70 0 111.5 -46.5t42.5 -109.5
q0 -21 -5 -44l-59 -290h330zM770 910h-213l19 90h213zM134 150q0 36 20.5 60.5t60.5 24.5q54 0 54 -45q0 -34 -19.5 -59.5t-61.5 -25.5q-54 0 -54 45z" />
    <glyph glyph-name="u092E093C094DHalf" horiz-adv-x="600" 
d="M670 910h-333l-71 -330h380l-18 -100h-380l-18 -90q-8 -40 -49 -40q-31 0 -93.5 66.5t-62.5 98.5q0 65 61 65h80l71 330h-246l19 90h679zM512 0zM610 481zM630 581zM697 911zM870 0zM-9 189q0 36 20.5 60.5t60.5 24.5q54 0 54 -45q0 -34 -19.5 -59.5t-61.5 -25.5
q-54 0 -54 45z" />
    <glyph glyph-name="u092F093C094DHalf" horiz-adv-x="620" 
d="M690 910h-313q49 -60 49 -133q0 -100 -78.5 -188t-195.5 -99q14 -85 65.5 -137.5t125.5 -52.5q162 0 309 190l-29 -140q-155 -150 -300 -150q-124 0 -201 103t-86 257q108 0 198 55.5t90 142.5q0 69 -67 152h-266l19 90h699zM538 0zM601 310zM630 450zM723 911zM896 0z
M-18 106q0 36 20.5 60.5t60.5 24.5q54 0 54 -45q0 -34 -19.5 -59.5t-61.5 -25.5q-54 0 -54 45z" />
    <glyph glyph-name="u0932093C094DHalf" horiz-adv-x="812" 
d="M882 910h-891l19 90h891zM862 580q-106 0 -203 -74t-150 -186l-82 40q69 120 111 150q-59 90 -162 90q-92 0 -166.5 -64t-74.5 -163q0 -89 70.5 -168.5t185.5 -124.5l-57 -80q-135 52 -218 149t-83 208q0 141 110.5 242t253.5 101q130 0 225 -120q121 100 261 100z
M-99 32q0 36 20.5 60.5t60.5 24.5q54 0 54 -45q0 -34 -19.5 -59.5t-61.5 -25.5q-54 0 -54 45z" />
    <glyph glyph-name="u0933093C094DHalf" horiz-adv-x="1600" 
d="M200 1400h1200v-1400h-1200v1400zM1300 100v1200h-1000v-1200h1000z" />
    <glyph glyph-name="u0935093C094DHalf" horiz-adv-x="520" 
d="M590 910h-599l19 90h599zM517 320q-120 -100 -240 -100q-105 0 -167 65.5t-62 156.5q0 134 103.5 236t239.5 102q92 0 152 -40l-59 -90q-36 30 -113 30q-89 0 -155 -66t-66 -155q0 -61 39 -105t106 -44q101 0 249 140zM458 0zM523 320zM554 470zM643 911zM816 0zM-29 99
q0 36 20.5 60.5t60.5 24.5q54 0 54 -45q0 -34 -19.5 -59.5t-61.5 -25.5q-54 0 -54 45z" />
    <glyph glyph-name="u0936093C094DHalf" horiz-adv-x="668" 
d="M213 330l260 -250l-77 -80l-380 390l74 70l88 -60q115 0 212.5 75.5t120.5 188.5q-70 -80 -166 -80q-89 0 -143 54t-54 131q0 112 87 196.5t205 84.5q97 0 145 -59t49 -162q-1 -200 -127.5 -349.5t-293.5 -149.5zM250 791q-1 -46 31 -78.5t84 -32.5q64 0 112.5 53
t48.5 116q0 41 -28.5 71t-77.5 30q-68 0 -119 -47.5t-51 -111.5zM-14 35q0 34 19.5 59.5t61.5 25.5q54 0 54 -45q0 -36 -20.5 -60.5t-60.5 -24.5q-54 0 -54 45z" />
    <glyph glyph-name="u0937093C094DHalf" horiz-adv-x="554" 
d="M624 910h-323l293 -380l-30 -150q-146 -90 -239 -90q-107 0 -174 63t-67 153q0 26 6 54l71 350h-170l19 90h633zM528 450l-285 370l-53 -260q-4 -20 -4 -36q0 -59 43.5 -101.5t114.5 -42.5q88 0 184 70zM-14 191q0 36 20.5 60.5t60.5 24.5q54 0 54 -45q0 -34 -19.5 -59.5
t-61.5 -25.5q-54 0 -54 45z" />
    <glyph glyph-name="u0938093C094DHalf" horiz-adv-x="786" 
d="M856 910h-303l-55 -270q-16 -78 -76 -134t-132 -56q-46 0 -65 18q92 -219 269 -398l-74 -70q-267 270 -373 670l100 50q38 -180 131 -180q43 0 77 28.5t43 71.5l55 270h-462l19 90h865zM806 480h-270l-30 100h320zM24 44q0 36 20.5 60.5t60.5 24.5q54 0 54 -45
q0 -34 -19.5 -59.5t-61.5 -25.5q-54 0 -54 45z" />
    <glyph glyph-name="u0939093C094DHalf" horiz-adv-x="794" 
d="M864 910h-123l-48 -240h-410q-37 0 -59 -12t-22 -53q0 -65 78 -95h550l-18 -90h-420q-108 0 -187.5 -59t-78.5 -125q-1 -67 125.5 -125.5t298.5 -90.5l-74 -70q-187 35 -319.5 110t-132.5 165q0 58 44 120t130 105q-98 51 -98 141q0 81 63.5 125t137.5 44h310l30 150
h-650l19 90h873zM7 -112q0 36 20.5 60.5t60.5 24.5q54 0 54 -45q0 -34 -19.5 -59.5t-61.5 -25.5q-54 0 -54 45z" />
    <glyph glyph-name="u0915094D0930094DHalf" horiz-adv-x="942" 
d="M674 490l-100 -490h-100l63 310l-503 -310l-33 80l257 144q-92 14 -146 74.5t-54 139.5q0 127 108.5 224.5t252.5 97.5q74 0 122 -40l-67 -80q-31 30 -73 30q-94 0 -167.5 -64.5t-72.5 -147.5q0 -58 47.5 -98t120.5 -40q125 0 241 150l89 440h-668l19 90h1021l-19 -90
h-253l-49 -240q99 110 233 110q36 0 86 -20l-23 -110q-31 40 -81 40q-79 0 -149 -58t-102 -142z" />
    <glyph glyph-name="u0916094D0930094DHalf" horiz-adv-x="1120" 
d="M1190 910h-637l-55 -270q-16 -78 -76 -134t-132 -56q-46 0 -65 18q92 -219 269 -398l-74 -70q-267 270 -373 670l100 50q37 -180 131 -180q43 0 77 28.5t43 71.5l55 270h-462l19 90h1199zM1075 310l-423 -262l-35 72l179 104q-92 14 -146 74.5t-54 139.5
q0 127 108.5 224.5t252.5 97.5q74 0 122 -40l-67 -80q-31 30 -73 30q-94 0 -167 -64.5t-73 -147.5q0 -58 47.5 -98t120.5 -40q125 0 241 150zM1012 0zM1075 309zM1108 471zM1197 911zM1370 0z" />
    <glyph glyph-name="u0917094D0930094DHalf" horiz-adv-x="546" 
d="M616 910h-243l-99 -490q-13 -60 -63 -60q-39 0 -96.5 87.5t-57.5 131.5q0 51 49 51h70q40 0 51 50l46 230h-282l19 90h625zM494 274l-510 -244l-23 80l553 264z" />
    <glyph glyph-name="u0918094D0930094DHalf" horiz-adv-x="718" 
d="M788 910h-453q-49 -25 -73 -64.5t-23 -78.5q0 -46 42 -76.5t104 -30.5h130l11 -90h-90q-95 0 -169 -51t-74 -125q0 -53 47 -88.5t115 -35.5q160 0 347 180l-30 -148l-632 -352l-44 80l270 144q-82 14 -129 68.5t-47 127.5q0 152 152 230q-50 19 -78 60t-27 91
q-1 85 78 159h-224l19 90h797zM610 0zM795 911zM968 0z" />
    <glyph glyph-name="u0919094D0930094DHalf" horiz-adv-x="1078" 
d="M1148 910h-283l-53 -260h-370q-37 0 -37 -43q0 -42 43 -99.5t84 -57.5q32 0 94 20t94 20q56 0 88.5 -37t32.5 -87q0 -56 -39 -136t-129 -145t-199 -65q-164 0 -286 120.5t-174 319.5l90 50q47 -175 150.5 -282.5t240.5 -107.5q100 0 172 79.5t73 151.5q0 39 -40 39
q-33 0 -95 -20q-61 -20 -94 -20q-73 0 -140.5 84t-67.5 157q0 66 49.5 112.5t110.5 46.5h270l32 160h-774l19 90h1157zM920 545q0 36 20 60.5t60 24.5q54 0 54 -45q0 -34 -19.5 -59.5t-60.5 -25.5q-54 0 -54 45zM950 0zM744 -322h-118l-173 234l-267 -234h-120l347 304h106z
M710 -542l-72 -60l-251 240l-78 -40l-24 80l120 50z" />
    <glyph glyph-name="u091A094D0930094DHalf" horiz-adv-x="708" 
d="M778 910h-787l19 90h787zM666 324l-596 -374l-44 80l268 158q-61 17 -92.5 66.5t-31.5 111.5q0 71 38.5 150.5t121.5 123.5h-290l21 100h590l-21 -100h-140q-119 -42 -168 -114.5t-49 -134.5q0 -46 31 -78.5t83 -32.5q90 0 307 180zM600 0zM785 911zM958 0z" />
    <glyph glyph-name="u091B094D0930094DHalf" horiz-adv-x="1066" 
d="M1136 910h-803q-113 -81 -113 -175q0 -49 44.5 -82t109.5 -33h110l-20 -100h-80q-81 0 -141.5 -73t-60.5 -148q0 -63 60.5 -106t146.5 -43q129 0 270 100q-87 110 -87 226q0 120 79.5 202t181.5 82q81 0 131 -49t51 -117q0 -90 -74.5 -206.5t-242.5 -227t-330 -110.5
q-123 0 -205.5 66t-82.5 163q0 66 38 147t124 134q-123 63 -123 164q0 46 24 101.5t70 84.5h-222l19 90h1145zM910 550q3 12 3 23q-1 37 -29 62t-71 25q-56 0 -98.5 -47t-42.5 -130q0 -94 73 -153q137 86 165 220zM642 -294h-118l-173 234l-267 -234h-120l347 304h106z" />
    <glyph glyph-name="u091C094D0930094DHalf" horiz-adv-x="840" 
d="M910 910h-919l19 90h919zM854 600h-250q39 -77 39 -136q0 -87 -74.5 -160.5t-169.5 -73.5q-132 0 -222.5 117.5t-122.5 302.5l99 40q25 -156 95.5 -258t170.5 -102q48 0 86 36.5t39 105.5q0 104 -99 228h430zM779 230l-521 -250l-24 80l563 260zM732 0zM917 911zM1090 0z
" />
    <glyph glyph-name="u091D094D0930094DHalf" horiz-adv-x="858" 
d="M928 910h-273l-48 -240h-350q-58 0 -58 -43q0 -37 33.5 -87t67.5 -50q30 0 88 15t88 15q72 0 96 -20q48 -40 142 -40q27 0 138 40l-20 -100q-74 -30 -116 -30q-48 0 -124 30q-49 -238 -287 -280q65 -66 149 -100l-88 -90q-120 62 -189 150q-74 0 -131 28.5t-57 74.5
q0 42 36 69.5t82 27.5q94 0 140 -100q100 19 169 73.5t69 131.5q0 45 -37 45q-31 0 -89 -20q-59 -20 -89 -20q-56 0 -114 84.5t-58 144.5t55 100.5t122 40.5h250l30 150h-564l19 90h937zM783 160l-255 -120l-35 70l306 130zM750 0zM783 159zM799 241zM832 399zM852 501z
M935 911zM1108 0z" />
    <glyph glyph-name="u091E094D0930094DHalf" horiz-adv-x="858" 
d="M928 910h-937l19 90h937zM840 440q-88 -30 -146 -30q-44 0 -94 30q-43 -112 -139 -186t-204 -74q-169 0 -261 190l84 70q58 -160 197 -160q89 0 162 73t73 165q0 53 -34.5 92.5t-95.5 39.5q-102 0 -186 -80l-54 80q121 100 261 100q91 0 151 -59t66 -151q20 -30 94 -30
q92 0 148 40zM788 188l-498 -238l-24 80l541 250z" />
    <glyph glyph-name="u091F094D0930094DHalf" horiz-adv-x="850" 
d="M920 910h-165l-61 -300h-370q-71 0 -126.5 -68t-54.5 -170q-1 -104 71 -178t191 -74q177 0 288 140l66 -70q-135 -170 -375 -170q-157 0 -250.5 97.5t-93.5 232.5q0 153 93 256.5t212 103.5h270l40 200h-664l19 90h929zM763 399zM652 -324h-118l-173 234l-267 -234h-120
l347 304h106zM650 -542l-72 -60l-251 240l-78 -40l-24 80l120 50z" />
    <glyph glyph-name="u0920094D0930094DHalf" horiz-adv-x="872" 
d="M942 910h-189l-59 -290h-350q-79 0 -141 -69.5t-61 -167.5q0 -101 74.5 -187t184.5 -86q103 0 181 82.5t78 184.5q0 94 -80 173l92 60q91 -93 91 -211q-1 -149 -116 -269t-267 -120q-146 0 -243.5 111.5t-96.5 243.5q0 145 99 250t226 105h250l38 190h-662l19 90h951z
M649 -324h-118l-173 234l-267 -234h-120l347 304h106zM650 -542l-72 -60l-251 240l-78 -40l-24 80l120 50z" />
    <glyph glyph-name="u0921094D0930094DHalf" horiz-adv-x="950" 
d="M1020 910h-155l-53 -260h-370q-37 0 -37 -43q0 -42 43 -99.5t84 -57.5q32 0 94 20t94 20q56 0 88.5 -37t32.5 -87q0 -56 -39 -136t-129 -145t-199 -65q-164 0 -286 120.5t-174 319.5l90 50q47 -175 150.5 -282.5t240.5 -107.5q100 0 172 79.5t73 151.5q0 39 -40 39
q-33 0 -95 -20q-61 -20 -94 -20q-73 0 -140.5 84t-67.5 157q0 66 49.5 112.5t110.5 46.5h270l32 160h-774l19 90h1029zM652 -324h-118l-173 234l-267 -234h-120l347 304h106zM650 -542l-72 -60l-251 240l-78 -40l-24 80l120 50z" />
    <glyph glyph-name="u0923094D0930094DHalf" horiz-adv-x="756" 
d="M826 910h-183l-85 -420q-22 -103 -102.5 -176.5t-178.5 -73.5q-90 0 -142.5 57t-52.5 138q0 26 6 55l85 420h-182l19 90h835zM458 490l85 420h-270l-85 -420q-4 -17 -4 -33q0 -47 30.5 -82t82.5 -35q57 0 102.5 44.5t58.5 105.5zM686 188l-498 -238l-24 80l541 250z
M682 0zM648 0zM833 911zM1006 0z" />
    <glyph glyph-name="u0924094D0930094DHalf" horiz-adv-x="560" 
d="M630 910h-639l19 90h639zM528 370l-409 -240l-34 80l411 240q-112 140 -194 140q-113 0 -226 -80l-44 80q142 100 291 100q110 0 237 -160zM452 0zM637 911zM810 0z" />
    <glyph glyph-name="u0925094D0930094DHalf" horiz-adv-x="790" 
d="M752 342l-710 -392l-32 90l316 164q-124 18 -191 118t-61 228q25 -10 148 -10q119 0 213 73.5t94 178.5q0 56 -34 97t-94 41q-67 0 -115.5 -39t-48.5 -87q0 -32 30 -53t74 -21l-21 -100q-87 0 -136.5 40t-49.5 107q0 102 86.5 177.5t201.5 75.5q97 0 153 -64t57 -152
q0 -154 -133.5 -264t-306.5 -110q37 -140 221 -140q170 0 369 190zM860 910h-93l19 90h93zM682 0zM867 911zM1040 0z" />
    <glyph glyph-name="u0926094D0930094DHalf" horiz-adv-x="822" 
d="M892 910h-137l-53 -260h-370q-69 0 -125.5 -50.5t-56.5 -129.5q0 -85 79 -152.5t182 -67.5q42 0 62 10q-16 32 -16 60q0 51 41.5 85.5t91.5 34.5q41 0 65.5 -25t24.5 -60q0 -89 -107 -145q16 -98 87 -210l-108 -40q-61 77 -85 220l-383 -260l-56 70l287 180
q-121 35 -194 113t-73 173q0 117 91.5 205.5t213.5 88.5h270l32 160h-664l19 90h901zM730 -309l-72 -60l-251 240l-78 -40l-24 80l120 50z" />
    <glyph glyph-name="u0927094D0930094DHalf" horiz-adv-x="732" 
d="M684 292l-670 -342l-24 80l296 146q-75 16 -121.5 62.5t-46.5 106.5q-1 45 26.5 105.5t91.5 99.5q-120 99 -120 219q0 105 76 183t172 78q75 0 117 -35t43 -94q0 -86 -66.5 -143.5t-150.5 -57.5l20 100q51 0 72.5 22.5t21.5 50.5q0 57 -78 57q-49 0 -87.5 -42t-38.5 -106
q0 -100 111 -172q75 30 156 30h60l40 -100h-110q-104 0 -179 -55t-75 -122q0 -42 45 -67.5t104 -25.5q146 0 339 140zM802 910h-213l19 90h213zM624 0zM684 293zM708 411zM809 911zM982 0z" />
    <glyph glyph-name="u0928094D0930094DHalf" horiz-adv-x="642" 
d="M712 910h-721l19 90h721zM646 550h-290q-60 0 -68 -40l-20 -100q-13 -60 -63 -60q-36 0 -93 97.5t-57 141.5q0 61 81 61h530zM594 296l-580 -296l-33 80l634 318zM534 0zM594 297zM615 399zM646 549zM666 651zM719 911zM892 0z" />
    <glyph glyph-name="u092A094D0930094DHalf" horiz-adv-x="616" 
d="M686 910h-373l-73 -360q-4 -20 -4 -35q0 -55 38.5 -95t101.5 -40q14 -1 27.5 0t34.5 10l170 100l-22 -110l-578 -380l-43 80l344 220q-80 21 -127 77.5t-47 126.5q0 22 5 46l73 360h-222l19 90h695zM508 0zM586 379zM608 489zM693 911zM866 0z" />
    <glyph glyph-name="u092B094D0930094DHalf" horiz-adv-x="978" 
d="M1048 910h-255l-73 -360h262l-20 -100h-262l-92 -450h-100l78 380l-578 -380l-43 80l344 220q-80 21 -127 77.5t-47 126.5q0 22 5 46l73 360h-222l19 90h1057zM608 490l85 420h-380l-73 -360q-4 -20 -4 -35q0 -55 38.5 -95t101.5 -40q48 0 88 24zM730 0z" />
    <glyph glyph-name="u092C094D0930094DHalf" horiz-adv-x="576" 
d="M646 910h-655l19 90h655zM529 300l-511 -300l-33 80l264 152q-84 19 -136 76t-52 129q0 120 108.5 226.5t255.5 106.5q75 0 124 -30l-46 -80q-40 20 -96 20q-89 0 -129 -40l246 -220l38 40zM441 360l-225 220q-54 -55 -53 -131q-1 -54 41.5 -91.5t108.5 -37.5
q72 0 128 40z" />
    <glyph glyph-name="u092D094D0930094DHalf" horiz-adv-x="740" 
d="M720 430h-330l-17 -80q-8 -40 -58 -40q-30 0 -87 70.5t-57 103.5q0 46 59 46h80l59 290q3 12 3 24q0 31 -19 53.5t-54 22.5q-57 0 -81.5 -26t-24.5 -62q0 -62 66 -62l-20 -100q-67 0 -107.5 42t-40.5 101q0 85 69.5 146t159.5 61q70 0 111.5 -46.5t42.5 -109.5
q0 -21 -5 -44l-59 -290h330zM810 910h-253l19 90h253zM683 250l-521 -250l-23 80l562 260z" />
    <glyph glyph-name="u092E094D0930094DHalf" horiz-adv-x="624" 
d="M694 910h-353l-67 -330h360l-20 -100h-350l-14 -70q-12 -60 -53 -60q-33 0 -98.5 70.5t-64.5 103.5q0 56 60 56h80l67 330h-250l19 90h703zM565 238l-501 -248l-34 80l553 261zM516 0zM565 237zM583 330zM614 479zM634 581zM701 911zM874 0z" />
    <glyph glyph-name="u092F094D0930094DHalf" horiz-adv-x="646" 
d="M716 910h-333q45 -72 45 -147q0 -110 -85.5 -191t-208.5 -102v-6q-1 -78 57.5 -126t145.5 -48q169 0 293 160l-31 -150l-533 -310l-46 70l277 150q-123 4 -194 82t-71 185q0 35 8 73q122 0 204.5 51.5t82.5 149.5q0 80 -64 159h-272l19 90h725zM538 0zM599 299zM630 451z
M723 911zM896 0z" />
    <glyph glyph-name="u0932094D0930094DHalf" horiz-adv-x="848" 
d="M918 910h-927l19 90h927zM862 600q-97 0 -184 -81t-133 -199l-94 30q36 98 91 150q-46 100 -160 100q-96 0 -171.5 -74.5t-75.5 -184.5q0 -80 49 -148t135 -103l-59 -90q-108 43 -167.5 130.5t-59.5 190.5q0 155 111.5 267t258.5 112q157 0 227 -110q57 62 253 110z
M780 196l-334 -166l-33 80l390 196z" />
    <glyph glyph-name="u0933094D0930094DHalf" horiz-adv-x="986" 
d="M1056 910h-1065l19 90h1065zM503 310q-49 -87 -119.5 -143.5t-140.5 -56.5q-98 0 -151.5 69.5t-53.5 165.5q0 143 99 264t232 121q74 0 125 -52.5t66 -137.5q109 190 259 190q94 0 145 -68t51 -159q0 -140 -97 -266.5t-225 -126.5q-74 0 -125.5 56.5t-64.5 143.5z
M488 430q-15 88 -52 144t-88 56q-81 0 -144.5 -84t-63.5 -179q0 -62 31 -109.5t92 -47.5q101 0 225 220zM576 420v-11q-1 -83 36 -141t101 -58q79 0 139.5 91t60.5 181q0 58 -29 103t-86 45q-66 0 -128 -62t-94 -148zM1104 0zM904 -234h-118l-173 234l-267 -234h-120
l347 304h106z" />
    <glyph glyph-name="u0935094D0930094DHalf" horiz-adv-x="582" 
d="M652 910h-661l19 90h661zM537 310l-503 -310l-33 80l257 144q-92 14 -146 74.5t-54 139.5q0 127 108.5 224.5t252.5 97.5q74 0 122 -40l-67 -80q-31 30 -73 30q-94 0 -167.5 -64.5t-72.5 -147.5q0 -58 47.5 -98t120.5 -40q125 0 241 150zM474 0zM537 309zM570 471z
M659 911zM832 0z" />
    <glyph glyph-name="u0936094D0930094DHalf" 
d="M800 450l-543 -360l-54 80l437 280l-248 110l-341 -200l-50 76l312 178q-101 65 -101 163q0 93 70.5 163t161.5 70q73 0 119 -45t46 -106q0 -55 -33 -115.5t-106 -113.5l262 -120l92 60zM505 820q3 12 3 23q0 33 -22.5 55t-60.5 22q-47 0 -80 -39t-33 -91q0 -73 87 -100
q90 55 106 130zM886 910h-173l19 90h173z" />
    <glyph glyph-name="u0938094D0930094DHalf" horiz-adv-x="826" 
d="M896 910h-343l-55 -270q-16 -78 -76 -134t-132 -56q-46 0 -65 18q92 -219 269 -398l-74 -70q-267 270 -373 670l100 50q38 -180 131 -180q43 0 77 28.5t43 71.5l55 270h-462l19 90h905zM797 386l-286 -146l-34 80l340 170h-289l-32 90h340z" />
    <glyph glyph-name="u0939094D0939094DHalf" horiz-adv-x="830" 
d="M900 910h-129l-53 -260h-440q-38 0 -38 -48q-1 -24 22.5 -59.5t44.5 -48.5q83 26 161 26q116 0 180.5 -52t64.5 -123q0 -54 -35.5 -126.5t-112.5 -128.5l-66 70q60 37 86 86t26 83q0 32 -26 59l-261 -250l-67 60l236 230q-19 6 -40 6q-139 0 -232 -65t-92 -188
q0 -126 122 -208.5t293 -82.5l-18 -90q-209 0 -353 106t-144 264q-1 194 180 284q-85 84 -85 160q-1 57 41 96.5t94 39.5h380l32 160h-680l19 90h909zM605 -469l-72 -60l-251 240l-78 -40l-24 80l120 50z" />
    <glyph glyph-name="u0958094D0930094DHalf" horiz-adv-x="942" 
d="M674 490l-100 -490h-100l63 310l-503 -310l-33 80l257 144q-92 14 -146 74.5t-54 139.5q0 127 108.5 224.5t252.5 97.5q74 0 122 -40l-67 -80q-31 30 -73 30q-94 0 -167.5 -64.5t-72.5 -147.5q0 -58 47.5 -98t120.5 -40q125 0 241 150l89 440h-668l19 90h1021l-19 -90
h-253l-49 -240q99 110 233 110q36 0 86 -20l-23 -110q-31 40 -81 40q-79 0 -149 -58t-102 -142zM6 -161q0 36 20.5 60.5t60.5 24.5q54 0 54 -45q0 -34 -19.5 -59.5t-61.5 -25.5q-54 0 -54 45z" />
    <glyph glyph-name="u0959094D0930094DHalf" horiz-adv-x="1120" 
d="M1190 910h-637l-55 -270q-16 -78 -76 -134t-132 -56q-46 0 -65 18q92 -219 269 -398l-74 -70q-267 270 -373 670l100 50q37 -180 131 -180q43 0 77 28.5t43 71.5l55 270h-462l19 90h1199zM1075 310l-423 -262l-35 72l179 104q-92 14 -146 74.5t-54 139.5
q0 127 108.5 224.5t252.5 97.5q74 0 122 -40l-67 -80q-31 30 -73 30q-94 0 -167 -64.5t-73 -147.5q0 -58 47.5 -98t120.5 -40q125 0 241 150zM1012 0zM1075 309zM1108 471zM1197 911zM1370 0zM26 43q0 36 20.5 60.5t60.5 24.5q54 0 54 -45q0 -34 -19.5 -59.5t-61.5 -25.5
q-54 0 -54 45z" />
    <glyph glyph-name="u095A094D0930094DHalf" horiz-adv-x="546" 
d="M616 910h-243l-99 -490q-13 -60 -63 -60q-39 0 -96.5 87.5t-57.5 131.5q0 51 49 51h70q40 0 51 50l46 230h-282l19 90h625zM494 274l-510 -244l-23 80l553 264zM-45 280q0 36 20.5 60.5t60.5 24.5q54 0 54 -45q0 -34 -19.5 -59.5t-61.5 -25.5q-54 0 -54 45z" />
    <glyph glyph-name="u0918093C094D0930094DHalf" horiz-adv-x="718" 
d="M788 910h-453q-49 -25 -73 -64.5t-23 -78.5q0 -46 42 -76.5t104 -30.5h130l11 -90h-90q-95 0 -169 -51t-74 -125q0 -53 47 -88.5t115 -35.5q160 0 347 180l-30 -148l-632 -352l-44 80l270 144q-82 14 -129 68.5t-47 127.5q0 152 152 230q-50 19 -78 60t-27 91
q-1 85 78 159h-224l19 90h797zM610 0zM795 911zM968 0zM-84 158q0 34 19.5 59.5t61.5 25.5q54 0 54 -45q0 -36 -20.5 -60.5t-60.5 -24.5q-54 0 -54 45z" />
    <glyph glyph-name="u0919093C094D0930094DHalf" horiz-adv-x="1078" 
d="M1148 910h-283l-53 -260h-370q-37 0 -37 -43q0 -42 43 -99.5t84 -57.5q32 0 94 20t94 20q56 0 88.5 -37t32.5 -87q0 -56 -39 -136t-129 -145t-199 -65q-164 0 -286 120.5t-174 319.5l90 50q47 -175 150.5 -282.5t240.5 -107.5q100 0 172 79.5t73 151.5q0 39 -40 39
q-33 0 -95 -20q-61 -20 -94 -20q-73 0 -140.5 84t-67.5 157q0 66 49.5 112.5t110.5 46.5h270l32 160h-774l19 90h1157zM920 545q0 36 20 60.5t60 24.5q54 0 54 -45q0 -34 -19.5 -59.5t-60.5 -25.5q-54 0 -54 45zM950 0zM-48 46q0 34 19.5 59.5t61.5 25.5q54 0 54 -45
q0 -36 -20.5 -60.5t-60.5 -24.5q-54 0 -54 45zM744 -322h-118l-173 234l-267 -234h-120l347 304h106zM710 -542l-72 -60l-251 240l-78 -40l-24 80l120 50z" />
    <glyph glyph-name="u091F093C094D0930094DHalf" horiz-adv-x="850" 
d="M920 910h-165l-61 -300h-370q-71 0 -126.5 -68t-54.5 -170q-1 -104 71 -178t191 -74q177 0 288 140l66 -70q-135 -170 -375 -170q-157 0 -250.5 97.5t-93.5 232.5q0 153 93 256.5t212 103.5h270l40 200h-664l19 90h929zM763 399zM-35 -51q0 34 19.5 59.5t61.5 25.5
q54 0 54 -45q0 -36 -20.5 -60.5t-60.5 -24.5q-54 0 -54 45zM652 -324h-118l-173 234l-267 -234h-120l347 304h106zM650 -542l-72 -60l-251 240l-78 -40l-24 80l120 50z" />
    <glyph glyph-name="u0920093C094D0930094DHalf" horiz-adv-x="872" 
d="M942 910h-189l-59 -290h-350q-79 0 -141 -69.5t-61 -167.5q0 -101 74.5 -187t184.5 -86q103 0 181 82.5t78 184.5q0 94 -80 173l92 60q91 -93 91 -211q-1 -149 -116 -269t-267 -120q-146 0 -243.5 111.5t-96.5 243.5q0 145 99 250t226 105h250l38 190h-662l19 90h951z
M-57 -9q0 34 19.5 59.5t61.5 25.5q54 0 54 -45q0 -36 -20.5 -60.5t-60.5 -24.5q-54 0 -54 45zM649 -324h-118l-173 234l-267 -234h-120l347 304h106zM650 -542l-72 -60l-251 240l-78 -40l-24 80l120 50z" />
    <glyph glyph-name="u095C094D0930094DHalf" horiz-adv-x="950" 
d="M1020 910h-155l-53 -260h-370q-37 0 -37 -43q0 -42 43 -99.5t84 -57.5q32 0 94 20t94 20q56 0 88.5 -37t32.5 -87q0 -56 -39 -136t-129 -145t-199 -65q-164 0 -286 120.5t-174 319.5l90 50q47 -175 150.5 -282.5t240.5 -107.5q100 0 172 79.5t73 151.5q0 39 -40 39
q-33 0 -95 -20q-61 -20 -94 -20q-73 0 -140.5 84t-67.5 157q0 66 49.5 112.5t110.5 46.5h270l32 160h-774l19 90h1029zM-67 -51q0 34 19.5 59.5t61.5 25.5q54 0 54 -45q0 -36 -20.5 -60.5t-60.5 -24.5q-54 0 -54 45zM652 -324h-118l-173 234l-267 -234h-120l347 304h106z
M650 -542l-72 -60l-251 240l-78 -40l-24 80l120 50z" />
    <glyph glyph-name="u095D094D0930094DHalf" horiz-adv-x="870" 
d="M940 910h-179l-61 -300h-390q-65 0 -116.5 -63.5t-51.5 -149.5q0 -99 78 -188.5t189 -98.5q-42 42 -42 112q0 105 71.5 176.5t163.5 71.5q74 0 118.5 -47t45.5 -110q0 -120 -114.5 -206.5t-261.5 -86.5q-148 0 -249 111.5t-101 243.5q0 136 88.5 235.5t202.5 99.5h290
l40 200h-670l19 90h949zM511 120q83 17 117.5 72t35.5 101q-1 32 -22.5 54.5t-59.5 22.5q-45 0 -79.5 -34.5t-34.5 -105.5q0 -67 43 -110zM-67 -51q0 34 19.5 59.5t61.5 25.5q54 0 54 -45q0 -36 -20.5 -60.5t-60.5 -24.5q-54 0 -54 45zM634 -325h-118l-173 234l-267 -234
h-120l347 304h106zM610 -542l-72 -60l-251 240l-78 -40l-24 80l120 50z" />
    <glyph glyph-name="u0923093C094D0930094DHalf" horiz-adv-x="756" 
d="M826 910h-183l-85 -420q-22 -103 -102.5 -176.5t-178.5 -73.5q-90 0 -142.5 57t-52.5 138q0 26 6 55l85 420h-182l19 90h835zM458 490l85 420h-270l-85 -420q-4 -17 -4 -33q0 -47 30.5 -82t82.5 -35q57 0 102.5 44.5t58.5 105.5zM686 188l-498 -238l-24 80l541 250z
M682 0zM648 0zM833 911zM1006 0zM-18 127q0 36 20.5 60.5t60.5 24.5q54 0 54 -45q0 -34 -19.5 -59.5t-61.5 -25.5q-54 0 -54 45z" />
    <glyph glyph-name="u0924093C094D0930094DHalf" horiz-adv-x="560" 
d="M630 910h-639l19 90h639zM528 370l-409 -240l-34 80l411 240q-112 140 -194 140q-113 0 -226 -80l-44 80q142 100 291 100q110 0 237 -160zM452 0zM637 911zM810 0zM-49 -25q0 36 20.5 60.5t60.5 24.5q54 0 54 -45q0 -34 -19.5 -59.5t-61.5 -25.5q-54 0 -54 45z" />
    <glyph glyph-name="u0925093C094D0930094DHalf" horiz-adv-x="790" 
d="M752 342l-710 -392l-32 90l316 164q-124 18 -191 118t-61 228q25 -10 148 -10q119 0 213 73.5t94 178.5q0 56 -34 97t-94 41q-67 0 -115.5 -39t-48.5 -87q0 -32 30 -53t74 -21l-21 -100q-87 0 -136.5 40t-49.5 107q0 102 86.5 177.5t201.5 75.5q97 0 153 -64t57 -152
q0 -154 -133.5 -264t-306.5 -110q37 -140 221 -140q170 0 369 190zM860 910h-93l19 90h93zM682 0zM867 911zM1040 0zM-50 178q0 34 19.5 59.5t61.5 25.5q54 0 54 -45q0 -36 -20.5 -60.5t-60.5 -24.5q-54 0 -54 45z" />
    <glyph glyph-name="u0926093C094D0930094DHalf" horiz-adv-x="822" 
d="M892 910h-137l-53 -260h-370q-69 0 -125.5 -50.5t-56.5 -129.5q0 -85 79 -152.5t182 -67.5q42 0 62 10q-16 32 -16 60q0 51 41.5 85.5t91.5 34.5q41 0 65.5 -25t24.5 -60q0 -89 -107 -145q16 -98 87 -210l-108 -40q-61 77 -85 220l-383 -260l-56 70l287 180
q-121 35 -194 113t-73 173q0 117 91.5 205.5t213.5 88.5h270l32 160h-664l19 90h901zM730 -309l-72 -60l-251 240l-78 -40l-24 80l120 50zM-66 134q0 36 20.5 60.5t60.5 24.5q54 0 54 -45q0 -34 -19.5 -59.5t-61.5 -25.5q-54 0 -54 45z" />
    <glyph glyph-name="u0927093C094D0930094DHalf" horiz-adv-x="732" 
d="M684 292l-670 -342l-24 80l296 146q-75 16 -121.5 62.5t-46.5 106.5q-1 45 26.5 105.5t91.5 99.5q-120 99 -120 219q0 105 76 183t172 78q75 0 117 -35t43 -94q0 -86 -66.5 -143.5t-150.5 -57.5l20 100q51 0 72.5 22.5t21.5 50.5q0 57 -78 57q-49 0 -87.5 -42t-38.5 -106
q0 -100 111 -172q75 30 156 30h60l40 -100h-110q-104 0 -179 -55t-75 -122q0 -42 45 -67.5t104 -25.5q146 0 339 140zM802 910h-213l19 90h213zM624 0zM684 293zM708 411zM809 911zM982 0zM-68 165q0 34 19.5 59.5t61.5 25.5q54 0 54 -45q0 -36 -20.5 -60.5t-60.5 -24.5
q-54 0 -54 45z" />
    <glyph glyph-name="u0929094D0930094DHalf" horiz-adv-x="642" 
d="M712 910h-721l19 90h721zM646 550h-290q-60 0 -68 -40l-20 -100q-13 -60 -63 -60q-36 0 -93 97.5t-57 141.5q0 61 81 61h530zM594 296l-580 -296l-33 80l634 318zM534 0zM594 297zM615 399zM646 549zM666 651zM719 911zM892 0zM-34 249q0 36 20.5 60.5t60.5 24.5
q54 0 54 -45q0 -34 -19.5 -59.5t-61.5 -25.5q-54 0 -54 45z" />
    <glyph glyph-name="u092A093C094D0930094DHalf" horiz-adv-x="616" 
d="M686 910h-373l-73 -360q-4 -20 -4 -35q0 -55 38.5 -95t101.5 -40q14 -1 27.5 0t34.5 10l170 100l-22 -110l-578 -380l-43 80l344 220q-80 21 -127 77.5t-47 126.5q0 22 5 46l73 360h-222l19 90h695zM508 0zM586 379zM608 489zM693 911zM866 0zM-27 266q0 34 19.5 59.5
t61.5 25.5q54 0 54 -45q0 -36 -20.5 -60.5t-60.5 -24.5q-54 0 -54 45z" />
    <glyph glyph-name="u095E094D0930094DHalf" horiz-adv-x="978" 
d="M1048 910h-255l-73 -360h262l-20 -100h-262l-92 -450h-100l78 380l-578 -380l-43 80l344 220q-80 21 -127 77.5t-47 126.5q0 22 5 46l73 360h-222l19 90h1057zM608 490l85 420h-380l-73 -360q-4 -20 -4 -35q0 -55 38.5 -95t101.5 -40q48 0 88 24zM730 0zM58 -116
q0 36 20.5 60.5t60.5 24.5q54 0 54 -45q0 -34 -19.5 -59.5t-61.5 -25.5q-54 0 -54 45z" />
    <glyph glyph-name="u092C093C094D0930094DHalf" horiz-adv-x="576" 
d="M646 910h-655l19 90h655zM529 300l-511 -300l-33 80l264 152q-84 19 -136 76t-52 129q0 120 108.5 226.5t255.5 106.5q75 0 124 -30l-46 -80q-40 20 -96 20q-89 0 -129 -40l246 -220l38 40zM441 360l-225 220q-54 -55 -53 -131q-1 -54 41.5 -91.5t108.5 -37.5
q72 0 128 40zM-98 195q0 36 20.5 60.5t60.5 24.5q54 0 54 -45q0 -34 -19.5 -59.5t-61.5 -25.5q-54 0 -54 45z" />
    <glyph glyph-name="u092D093C094D0930094DHalf" horiz-adv-x="740" 
d="M720 430h-330l-17 -80q-8 -40 -58 -40q-30 0 -87 70.5t-57 103.5q0 46 59 46h80l59 290q3 12 3 24q0 31 -19 53.5t-54 22.5q-57 0 -81.5 -26t-24.5 -62q0 -62 66 -62l-20 -100q-67 0 -107.5 42t-40.5 101q0 85 69.5 146t159.5 61q70 0 111.5 -46.5t42.5 -109.5
q0 -21 -5 -44l-59 -290h330zM810 910h-253l19 90h253zM683 250l-521 -250l-23 80l562 260zM31 256q0 34 19.5 59.5t61.5 25.5q54 0 54 -45q0 -36 -20.5 -60.5t-60.5 -24.5q-54 0 -54 45z" />
    <glyph glyph-name="u092E093C094D0930094DHalf" horiz-adv-x="624" 
d="M694 910h-353l-67 -330h360l-20 -100h-350l-14 -70q-12 -60 -53 -60q-33 0 -98.5 70.5t-64.5 103.5q0 56 60 56h80l67 330h-250l19 90h703zM565 238l-501 -248l-34 80l553 261zM516 0zM565 237zM583 330zM614 479zM634 581zM701 911zM874 0zM-49 245q0 34 19.5 59.5
t61.5 25.5q54 0 54 -45q0 -36 -20.5 -60.5t-60.5 -24.5q-54 0 -54 45z" />
    <glyph glyph-name="u092F093C094D0930094DHalf" horiz-adv-x="646" 
d="M716 910h-333q45 -72 45 -147q0 -110 -85.5 -191t-208.5 -102v-6q-1 -78 57.5 -126t145.5 -48q169 0 293 160l-31 -150l-533 -310l-46 70l277 150q-123 4 -194 82t-71 185q0 35 8 73q122 0 204.5 51.5t82.5 149.5q0 80 -64 159h-272l19 90h725zM538 0zM599 299zM630 451z
M723 911zM896 0zM-83 165q0 36 20.5 60.5t60.5 24.5q54 0 54 -45q0 -34 -19.5 -59.5t-61.5 -25.5q-54 0 -54 45z" />
    <glyph glyph-name="u0932093C094D0930094DHalf" horiz-adv-x="848" 
d="M918 910h-927l19 90h927zM862 600q-97 0 -184 -81t-133 -199l-94 30q36 98 91 150q-46 100 -160 100q-96 0 -171.5 -74.5t-75.5 -184.5q0 -80 49 -148t135 -103l-59 -90q-108 43 -167.5 130.5t-59.5 190.5q0 155 111.5 267t258.5 112q157 0 227 -110q57 62 253 110z
M780 196l-334 -166l-33 80l390 196zM-71 -47q0 36 20.5 60.5t60.5 24.5q54 0 54 -45q0 -34 -19.5 -59.5t-61.5 -25.5q-54 0 -54 45z" />
    <glyph glyph-name="u0934094D0930094DHalf" horiz-adv-x="986" 
d="M1056 910h-1065l19 90h1065zM503 310q-49 -87 -119.5 -143.5t-140.5 -56.5q-98 0 -151.5 69.5t-53.5 165.5q0 143 99 264t232 121q74 0 125 -52.5t66 -137.5q109 190 259 190q94 0 145 -68t51 -159q0 -140 -97 -266.5t-225 -126.5q-74 0 -125.5 56.5t-64.5 143.5z
M488 430q-15 88 -52 144t-88 56q-81 0 -144.5 -84t-63.5 -179q0 -62 31 -109.5t92 -47.5q101 0 225 220zM576 420v-11q-1 -83 36 -141t101 -58q79 0 139.5 91t60.5 181q0 58 -29 103t-86 45q-66 0 -128 -62t-94 -148zM1104 0zM904 -234h-118l-173 234l-267 -234h-120
l347 304h106zM149 -15q0 36 20.5 60.5t60.5 24.5q54 0 54 -45q0 -34 -19.5 -59.5t-61.5 -25.5q-54 0 -54 45z" />
    <glyph glyph-name="u0935093C094D0930094DHalf" horiz-adv-x="582" 
d="M652 910h-661l19 90h661zM537 310l-503 -310l-33 80l257 144q-92 14 -146 74.5t-54 139.5q0 127 108.5 224.5t252.5 97.5q74 0 122 -40l-67 -80q-31 30 -73 30q-94 0 -167.5 -64.5t-72.5 -147.5q0 -58 47.5 -98t120.5 -40q125 0 241 150zM474 0zM537 309zM570 471z
M659 911zM832 0zM-98 194q0 36 20.5 60.5t60.5 24.5q54 0 54 -45q0 -34 -19.5 -59.5t-61.5 -25.5q-54 0 -54 45z" />
    <glyph glyph-name="u0936093C094D0930Half" 
d="M800 450l-543 -360l-54 80l437 280l-248 110l-341 -200l-50 76l312 178q-101 65 -101 163q0 93 70.5 163t161.5 70q73 0 119 -45t46 -106q0 -55 -33 -115.5t-106 -113.5l262 -120l92 60zM505 820q3 12 3 23q0 33 -22.5 55t-60.5 22q-47 0 -80 -39t-33 -91q0 -73 87 -100
q90 55 106 130zM886 910h-173l19 90h173zM-22 173q0 36 20.5 60.5t60.5 24.5q54 0 54 -45q0 -34 -19.5 -59.5t-61.5 -25.5q-54 0 -54 45z" />
    <glyph glyph-name="u0937093C094D0930094DHalf" horiz-adv-x="554" 
d="M624 910h-343l283 -330l-45 -220q-96 -60 -222 -60q-97 0 -155 60.5t-58 144.5q0 26 6 55l71 350h-170l19 90h633zM541 470l-300 340l-51 -250q-3 -17 -3 -34q-1 -52 35 -89t96 -37q127 0 223 70zM492 224l-510 -244l-24 80l552 254zM-46 219q0 34 19 59.5t61 25.5
q54 0 54 -45q0 -36 -20.5 -60.5t-59.5 -24.5q-54 0 -54 45z" />
    <glyph glyph-name="u0938093C094D0930094DHalf" horiz-adv-x="826" 
d="M896 910h-343l-55 -270q-16 -78 -76 -134t-132 -56q-46 0 -65 18q92 -219 269 -398l-74 -70q-267 270 -373 670l100 50q38 -180 131 -180q43 0 77 28.5t43 71.5l55 270h-462l19 90h905zM797 386l-286 -146l-34 80l340 170h-289l-32 90h340zM24 42q0 36 20.5 60.5
t60.5 24.5q54 0 54 -45q0 -34 -19.5 -59.5t-61.5 -25.5q-54 0 -54 45z" />
    <glyph glyph-name="u0939093C094D0930094DHalf" horiz-adv-x="830" 
d="M900 910h-129l-53 -260h-440q-38 0 -38 -48q-1 -24 22.5 -59.5t44.5 -48.5q83 26 161 26q116 0 180.5 -52t64.5 -123q0 -54 -35.5 -126.5t-112.5 -128.5l-66 70q60 37 86 86t26 83q0 32 -26 59l-261 -250l-67 60l236 230q-19 6 -40 6q-139 0 -232 -65t-92 -188
q0 -126 122 -208.5t293 -82.5l-18 -90q-209 0 -353 106t-144 264q-1 194 180 284q-85 84 -85 160q-1 57 41 96.5t94 39.5h380l32 160h-680l19 90h909zM605 -469l-72 -60l-251 240l-78 -40l-24 80l120 50zM-86 -161q0 36 20.5 60.5t60.5 24.5q54 0 54 -45q0 -34 -19.5 -59.5
t-61.5 -25.5q-54 0 -54 45z" />
    <glyph glyph-name="u09150962" horiz-adv-x="1142" 
d="M1212 910h-495l-37 -182q96 90 209 90q91 0 140.5 -63t49.5 -149q0 -183 -176 -308l-68 60q141 101 142 226q0 54 -28 94t-81 40q-71 0 -133.5 -48.5t-90.5 -121.5l-72 -355q48 29 97 29q73 0 117.5 -50t44.5 -127q0 -105 -61.5 -185.5t-156.5 -103.5q-69 -16 -99.5 -56
t-30.5 -81q0 -33 23.5 -55t62.5 -22q81 0 144 38l10 -66q-82 -52 -170 -52q-68 0 -110 41t-42 99q0 78 57.5 144t140.5 80q79 13 115 75t36 128q-1 49 -27 81t-70 32q-48 0 -99.5 -58t-86.5 -138l-67 22q23 54 56 102q-27 72 -103 72q-55 0 -97.5 -55.5t-42.5 -125.5
q0 -115 140 -183l-43 -66q-84 37 -131.5 103t-46.5 140q-1 97 70 182t167 85q59 0 102 -32l38 188q-108 -90 -228 -90q-101 0 -161.5 60.5t-60.5 147.5q0 128 99.5 225t230.5 97q92 0 154 -30l-49 -90q-38 20 -126 20q-81 0 -144.5 -62t-63.5 -140q0 -52 39.5 -90t101.5 -38
q162 0 239 140l77 382h-626l19 90h1221zM83 -240z" />
    <glyph glyph-name="u09150963" horiz-adv-x="1142" 
d="M1212 910h-495l-37 -182q96 90 209 90q91 0 140.5 -63t49.5 -149q0 -183 -176 -308l-68 60q141 101 142 226q0 54 -28 94t-81 40q-71 0 -133.5 -48.5t-90.5 -121.5l-72 -355q48 29 97 29q78 0 120.5 -52.5t42.5 -123.5q0 -104 -73 -192t-178 -104q-63 -10 -63 -62
q0 -42 64 -42h48l-12 -58h-48q-48 0 -67.5 -23t-19.5 -48q0 -39 65 -39q90 0 154 40l14 -72q-78 -48 -184 -48q-57 0 -94 30.5t-36 75.5q0 86 80 112q-45 16 -45 62q0 53 43.5 96.5t101.5 47.5q67 5 117.5 69.5t51.5 137.5q-1 44 -26 78.5t-72 34.5q-48 0 -99.5 -58
t-86.5 -138l-67 22q23 54 56 102q-27 72 -103 72q-55 0 -97.5 -55.5t-42.5 -125.5q0 -115 140 -183l-43 -66q-84 37 -131.5 103t-46.5 140q-1 97 70 182t167 85q59 0 102 -32l38 188q-108 -90 -228 -90q-101 0 -161.5 60.5t-60.5 147.5q0 128 99.5 225t230.5 97
q92 0 154 -30l-49 -90q-38 20 -126 20q-81 0 -144.5 -62t-63.5 -140q0 -52 39.5 -90t101.5 -38q162 0 239 140l77 382h-626l19 90h1221zM83 -240z" />
    <glyph glyph-name="u092A0962" horiz-adv-x="1020" 
d="M1090 910h-331l-118 -582l4 2q50 22 85 22q72 0 117 -50t45 -127q0 -105 -62 -185.5t-157 -103.5q-72 -17 -101.5 -58.5t-28.5 -78.5q-1 -33 23.5 -55t63.5 -22q81 0 143 38l11 -66q-83 -52 -171 -52q-67 0 -109.5 41t-42.5 99q0 78 57.5 144t140.5 80q79 13 115 75
t36 128q0 49 -26 81t-70 32q-48 0 -100 -58t-86 -138l-68 22q23 54 57 102q-27 72 -103 72q-57 0 -99.5 -56.5t-41.5 -124.5q0 -115 141 -183l-44 -66q-83 37 -130.5 103t-47.5 140q0 97 70.5 182t167.5 85q65 0 108 -38l42 206q-113 -80 -246 -80q-93 0 -151 52.5
t-57 130.5q0 22 5 47l48 240h-188l19 90h1099zM604 640l55 270h-380l-48 -240q-3 -15 -3 -25q-1 -44 35 -74.5t91 -30.5q130 0 250 100zM730 0z" />
    <glyph glyph-name="u092A0963" horiz-adv-x="1020" 
d="M1090 910h-331l-118 -582l4 2q50 22 85 22q77 0 119.5 -52.5t43.5 -123.5q0 -107 -74.5 -193.5t-176.5 -102.5q-63 -10 -63 -62q0 -42 64 -42h48l-12 -58h-48q-49 0 -68.5 -23t-19.5 -48q0 -39 65 -39q90 0 155 40l13 -72q-78 -48 -184 -48q-56 0 -93 30.5t-37 75.5
q0 86 81 112q-46 16 -46 62q0 52 43.5 96t101.5 48q68 5 118 69t51 138q0 45 -25 79t-72 34q-48 0 -100 -58t-86 -138l-68 22q23 54 57 102q-27 72 -103 72q-57 0 -99.5 -56.5t-41.5 -124.5q0 -115 141 -183l-44 -66q-83 37 -130.5 103t-47.5 140q0 97 70.5 182t167.5 85
q65 0 108 -38l42 206q-113 -80 -246 -80q-93 0 -151 52.5t-57 130.5q0 22 5 47l48 240h-188l19 90h1099zM604 640l55 270h-380l-48 -240q-3 -15 -3 -25q-1 -44 35 -74.5t91 -30.5q130 0 250 100zM730 0z" />
    <glyph glyph-name="currency" unicode="&#xa4;" 
d="M217 688l-100 97l83 86l99 -100q76 52 170 52t170 -52l99 100l83 -86l-99 -97q51 -79 51 -168q0 -90 -51 -169l99 -98l-83 -85l-99 101q-76 -53 -170 -53t-170 53l-99 -101l-83 85l100 98q-51 79 -51 169q0 89 51 168zM283 520q0 -78 54.5 -132t130.5 -54q77 0 131.5 54
t54.5 132q0 76 -54 130.5t-132 54.5q-76 0 -130.5 -54.5t-54.5 -130.5z" />
    <glyph glyph-name="uni00B7" unicode="&#xb7;" horiz-adv-x="407" 
d="M132 443v147h147v-147h-147z" />
    <glyph glyph-name="periodcentered" unicode="&#x2219;" horiz-adv-x="549" 
d="M239 353q-58 0 -93.5 36t-35.5 87q0 75 58.5 132.5t134.5 57.5q57 0 92.5 -37t35.5 -87q0 -75 -58.5 -132t-132.5 -57h-1z" />
    <glyph glyph-name="section" unicode="&#xa7;" 
d="M44 -64l119 30q17 -86 71.5 -132t127.5 -46q70 0 115.5 41.5t45.5 94.5q0 22 -9 44t-28 44q-26 32 -209 178q-72 58 -97 86q-38 41 -54 77.5t-16 81.5q0 78 46 137.5t158 114.5q-57 69 -57 145q0 100 73.5 168t205.5 68q124 0 191 -57.5t87 -185.5l-130 -15
q0 73 -41.5 113.5t-114.5 40.5q-65 0 -107 -38t-42 -90q0 -37 28 -81.5t133 -129.5q153 -124 194 -175.5t41 -117.5q0 -68 -49 -132.5t-150 -112.5q35 -39 53 -80t18 -83q0 -93 -77 -163t-209 -70q-125 0 -208.5 65.5t-108.5 179.5zM511 155q78 36 110.5 79.5t32.5 81.5
q0 31 -15 56.5t-103 97.5q-121 100 -170 155q-139 -79 -139 -175q0 -30 15 -57q22 -38 105 -104z" />
    <glyph glyph-name="logicalnot" unicode="&#xac;" horiz-adv-x="856" 
d="M825 304h-122v313h-571v120h693v-433z" />
    <glyph glyph-name="degree" unicode="&#xb0;" horiz-adv-x="586" 
d="M195 869q0 83 58.5 141t140.5 58q83 0 141 -58t58 -141q0 -82 -58.5 -140.5t-140.5 -58.5t-140.5 58t-58.5 141zM274 869q0 -50 35 -85.5t86 -35.5q49 0 84.5 35.5t35.5 85.5t-35.5 85.5t-84.5 35.5q-51 0 -86 -35.5t-35 -85.5z" />
    <glyph glyph-name="paragraph" unicode="&#xb6;" horiz-adv-x="788" 
d="M391 -291v748q-134 7 -211.5 87t-77.5 204q0 138 86 220t252 82h454v-124h-104v-1217h-121v1217h-160v-1217h-118z" />
    <glyph glyph-name="bullet" unicode="&#x2022;" horiz-adv-x="513" 
d="M78 514q0 75 53.5 128t127.5 53q75 0 128.5 -53t53.5 -128t-53.5 -128.5t-128.5 -53.5q-74 0 -127.5 53.5t-53.5 128.5z" />
    <glyph glyph-name="u0922094D0930094DHalf" horiz-adv-x="870" 
d="M940 910h-179l-61 -300h-390q-65 0 -116.5 -63.5t-51.5 -149.5q0 -99 78 -188.5t189 -98.5q-42 42 -42 112q0 105 71.5 176.5t163.5 71.5q74 0 118.5 -47t45.5 -110q0 -120 -114.5 -206.5t-261.5 -86.5q-148 0 -249 111.5t-101 243.5q0 136 88.5 235.5t202.5 99.5h290
l40 200h-670l19 90h949zM511 120q83 17 117.5 72t35.5 101q-1 32 -22.5 54.5t-59.5 22.5q-45 0 -79.5 -34.5t-34.5 -105.5q0 -67 43 -110zM634 -325h-118l-173 234l-267 -234h-120l347 304h106zM610 -542l-72 -60l-251 240l-78 -40l-24 80l120 50z" />
    </font>
</defs>
</svg>
