<?xml version="1.0" encoding="utf-8"?>
<!-- Generator: Adobe Illustrator 16.0.3, SVG Export Plug-In . SVG Version: 6.00 Build 0)  -->
<!DOCTYPE svg PUBLIC "-//W3C//DTD SVG 1.1//EN" "http://www.w3.org/Graphics/SVG/1.1/DTD/svg11.dtd">
<svg version="1.1" id="Layer_1" xmlns="http://www.w3.org/2000/svg" xmlns:xlink="http://www.w3.org/1999/xlink" x="0px" y="0px"
	 width="48px" height="48px" viewBox="0 0 48 48" enable-background="new 0 0 48 48" xml:space="preserve">
<g>
	<g>
		<path fill="#F2DFBB" d="M34,34c0,1.1-0.9,2-2,2h-3c-1.1,0-2-0.9-2-2v-2c0-1.1-0.9-2-2-2h-2c-1.1,0-2,0.9-2,2v2c0,1.1-0.9,2-2,2h-3
			c-1.1,0-2-0.9-2-2v-8c0-1.1,0.771-2.463,1.715-3.029l6.57-3.941c0.943-0.566,2.486-0.566,3.43,0l6.57,3.941
			C33.229,23.537,34,24.9,34,26V34z"/>
	</g>
	<g>
		<path fill="#F2DFBB" d="M36.5,21.5c0-1.1-0.771-2.463-1.715-3.029l-9.07-5.441c-0.943-0.566-2.486-0.566-3.43,0l-9.07,5.441
			C12.271,19.037,11.5,20.4,11.5,21.5l0,0c0,1.1,0.771,1.537,1.715,0.971l9.07-5.441c0.943-0.566,2.486-0.566,3.43,0l9.07,5.441
			C35.729,23.037,36.5,22.6,36.5,21.5L36.5,21.5z"/>
	</g>
</g>
</svg>
