<?xml version="1.0" encoding="utf-8"?>
<!-- Generator: Adobe Illustrator 16.0.3, SVG Export Plug-In . SVG Version: 6.00 Build 0)  -->
<!DOCTYPE svg PUBLIC "-//W3C//DTD SVG 1.1//EN" "http://www.w3.org/Graphics/SVG/1.1/DTD/svg11.dtd">
<svg version="1.1" id="Layer_1" xmlns="http://www.w3.org/2000/svg" xmlns:xlink="http://www.w3.org/1999/xlink" x="0px" y="0px"
	 width="120px" height="45px" viewBox="0 0 120 45" enable-background="new 0 0 120 45" xml:space="preserve">
<g>
	<g>
		<g>
			<path fill="#45304C" d="M4.135,4.811h8.422l5.58,15.586h0.072L23.68,4.811h8.279v25.7H25.84V15.177h-0.072l-5.219,15.334h-4.896
				l-5.326-15.334h-0.072v15.334H4.135V4.811z M4.963,29.72h4.463V10.426h0.107l6.695,19.294h3.744l6.623-19.294h0.072V29.72h4.463
				V5.603h-6.875L18.172,22.88l-6.19-17.277H4.963V29.72z"/>
			<path fill="#45304C" d="M36.786,4.811h8.423l5.58,15.586h0.071l5.472-15.586h8.279v25.7h-6.119V15.177H58.42L53.2,30.511h-4.896
				l-5.327-15.334h-0.072v15.334h-6.119V4.811z M37.614,29.72h4.464V10.426h0.107l6.695,19.294h3.743l6.624-19.294h0.071V29.72
				h4.464V5.603h-6.875L50.824,22.88L44.633,5.603h-7.019V29.72z"/>
			<path fill="#45304C" d="M69.294,4.811h11.771c3.312,0,8.928,0.756,8.928,6.479c0,2.447-1.513,4.463-2.844,5.255
				c1.583,0.647,3.887,2.483,3.887,6.263c0,5.436-4.067,7.703-9.322,7.703H69.294V4.811z M70.122,29.72h11.591
				c4.247,0,8.494-1.656,8.494-6.912c0-4.104-3.023-5.507-4.391-6.119c1.943-1.367,3.348-2.807,3.348-5.291
				c0-5.795-6.479-5.795-8.1-5.795H70.122V29.72z M74.586,9.13h5.543c1.8,0,4.715,0,4.715,3.348c0,3.312-2.915,3.312-4.715,3.312
				h-5.543V9.13z M74.586,18.669h6.047c1.979,0,5.256,0,5.256,3.779c0,3.744-3.276,3.744-5.256,3.744h-6.047V18.669z M75.413,14.997
				h4.716c1.691,0,3.887,0,3.887-2.52c0-2.556-2.195-2.556-3.887-2.556h-4.716V14.997z M75.413,25.399h5.22
				c1.836,0,4.428,0,4.428-2.951c0-2.988-2.592-2.988-4.428-2.988h-5.22V25.399z"/>
			<path fill="#45304C" d="M99.245,21.477c0.072,1.26,0.252,4.716,5.184,4.716c3.132,0,4.392-1.117,4.392-3.096
				c0-1.44-1.26-1.98-2.988-2.484l-5.831-1.656c-1.476-0.432-5.939-1.691-5.939-6.694c0-4.716,3.853-8.027,10.115-8.027
				c5.831,0,9.575,2.808,9.862,8.711h-5.975c-0.145-1.224-0.396-3.815-4.355-3.815c-1.656,0-3.672,0.576-3.672,2.556
				c0,1.151,0.611,1.655,2.016,2.052l6.983,1.908c3.167,0.863,5.903,2.807,5.903,6.875c0,4.571-2.88,8.566-10.727,8.566
				c-6.516,0-10.763-2.808-11.087-9.61H99.245z M93.954,22.269c0.288,4.571,3.527,8.027,10.259,8.027
				c6.191,0,9.898-2.844,9.898-7.775c0-4.859-4.607-5.939-6.695-6.516l-4.139-1.115c-3.204-0.864-4.068-1.512-4.068-3.204
				c0-2.556,2.628-3.348,4.5-3.348c4.319,0,4.859,2.735,5.075,3.815h4.427c-0.432-4.715-4.031-7.127-9.034-7.127
				c-6.839,0-9.287,3.779-9.287,7.235c0,3.96,2.88,5.183,5.327,5.903l5.867,1.691c3.456,1.008,3.564,2.16,3.564,3.24
				c0,2.735-2.376,3.887-5.22,3.887c-5.184,0-5.796-3.563-5.976-4.715H93.954z"/>
		</g>
		<g>
			<path fill="#45304C" d="M4.9,34.323h0.7l1.729,4.385l1.724-4.385h0.7v5H9.277v-4.32H9.264l-1.709,4.32H7.106l-1.716-4.32H5.377
				v4.32H4.9V34.323z"/>
			<path fill="#45304C" d="M13.589,39.323h-0.406v-0.65h-0.014c-0.231,0.482-0.708,0.756-1.247,0.756
				c-0.91,0-1.268-0.532-1.268-1.373V35.71h0.441v2.354c0.021,0.65,0.266,0.994,0.966,0.994c0.757,0,1.087-0.715,1.087-1.449V35.71
				h0.44V39.323z"/>
			<path fill="#45304C" d="M14.428,34.323h0.441v5h-0.441V34.323z"/>
			<path fill="#45304C" d="M16.416,35.71h0.734v0.371h-0.734v2.438c0,0.287,0.041,0.455,0.357,0.477
				c0.125,0,0.252-0.008,0.377-0.021v0.378c-0.133,0-0.259,0.015-0.392,0.015c-0.589,0-0.792-0.197-0.784-0.813v-2.473h-0.631V35.71
				h0.631v-1.086h0.441V35.71z"/>
			<path fill="#45304C" d="M17.794,34.323h0.441v0.707h-0.441V34.323z M17.794,35.71h0.441v3.613h-0.441V35.71z"/>
			<path fill="#45304C" d="M19.082,35.71h0.406v0.686h0.014c0.203-0.49,0.708-0.791,1.289-0.791c1.1,0,1.625,0.89,1.625,1.912
				c0,1.023-0.525,1.912-1.625,1.912c-0.539,0-1.064-0.273-1.254-0.791h-0.014v2.023h-0.441V35.71z M20.791,35.976
				c-0.973,0-1.268,0.722-1.268,1.541c0,0.75,0.329,1.541,1.268,1.541c0.841,0,1.184-0.791,1.184-1.541
				C21.975,36.768,21.632,35.976,20.791,35.976z"/>
			<path fill="#45304C" d="M23.107,34.323h0.441v5h-0.441V34.323z"/>
			<path fill="#45304C" d="M24.353,36.816c0.042-0.848,0.638-1.212,1.464-1.212c0.638,0,1.331,0.196,1.331,1.163v1.919
				c0,0.168,0.084,0.266,0.259,0.266c0.049,0,0.105-0.014,0.141-0.027v0.371c-0.099,0.021-0.168,0.027-0.287,0.027
				c-0.449,0-0.519-0.252-0.519-0.63h-0.015c-0.308,0.47-0.623,0.735-1.316,0.735c-0.665,0-1.211-0.329-1.211-1.058
				c0-1.016,0.986-1.05,1.939-1.163c0.364-0.041,0.567-0.09,0.567-0.49c0-0.595-0.427-0.742-0.945-0.742
				c-0.546,0-0.952,0.252-0.967,0.841H24.353z M26.706,37.349h-0.015c-0.055,0.105-0.252,0.141-0.371,0.161
				c-0.749,0.134-1.68,0.126-1.68,0.833c0,0.441,0.392,0.715,0.805,0.715c0.672,0,1.268-0.428,1.261-1.135V37.349z"/>
			<path fill="#45304C" d="M28.729,35.71h0.735v0.371h-0.735v2.438c0,0.287,0.042,0.455,0.357,0.477
				c0.126,0,0.252-0.008,0.378-0.021v0.378c-0.133,0-0.259,0.015-0.392,0.015c-0.589,0-0.792-0.197-0.785-0.813v-2.473h-0.631V35.71
				h0.631v-1.086h0.441V35.71z"/>
			<path fill="#45304C" d="M31.494,36.081h-0.715v3.242h-0.441v-3.242h-0.616V35.71h0.616v-0.33
				c-0.007-0.623,0.168-1.057,0.875-1.057c0.127,0,0.232,0.007,0.372,0.027v0.379c-0.119-0.021-0.218-0.035-0.322-0.035
				c-0.49,0-0.477,0.309-0.483,0.7v0.315h0.715V36.081z"/>
			<path fill="#45304C" d="M35.148,37.517c0,1.037-0.602,1.912-1.709,1.912c-1.106,0-1.709-0.875-1.709-1.912
				s0.603-1.912,1.709-1.912C34.547,35.604,35.148,36.479,35.148,37.517z M32.172,37.517c0,0.771,0.42,1.541,1.268,1.541
				s1.268-0.771,1.268-1.541c0-0.77-0.42-1.541-1.268-1.541S32.172,36.747,32.172,37.517z"/>
			<path fill="#45304C" d="M35.805,35.71h0.406v0.848h0.014c0.225-0.582,0.715-0.925,1.366-0.896v0.441
				c-0.798-0.043-1.345,0.546-1.345,1.295v1.926h-0.441V35.71z"/>
			<path fill="#45304C" d="M38.01,35.71h0.406v0.609h0.021c0.231-0.435,0.609-0.715,1.185-0.715c0.476,0,0.902,0.231,1.036,0.707
				c0.217-0.476,0.673-0.707,1.148-0.707c0.792,0,1.198,0.414,1.198,1.268v2.451h-0.442v-2.43c0-0.596-0.224-0.918-0.854-0.918
				c-0.763,0-0.98,0.631-0.98,1.303v2.045h-0.441v-2.451c0.008-0.49-0.195-0.896-0.756-0.896c-0.764,0-1.071,0.574-1.078,1.331
				v2.017H38.01V35.71z"/>
			<path fill="#45304C" d="M45.857,34.323h0.699l1.73,4.385l1.723-4.385h0.701v5h-0.477v-4.32h-0.014l-1.709,4.32h-0.449
				l-1.715-4.32h-0.015v4.32h-0.476V34.323z"/>
			<path fill="#45304C" d="M54.853,37.517c0,1.037-0.602,1.912-1.708,1.912c-1.107,0-1.709-0.875-1.709-1.912
				s0.602-1.912,1.709-1.912C54.251,35.604,54.853,36.479,54.853,37.517z M51.877,37.517c0,0.771,0.42,1.541,1.268,1.541
				s1.268-0.771,1.268-1.541c0-0.77-0.42-1.541-1.268-1.541S51.877,36.747,51.877,37.517z"/>
			<path fill="#45304C" d="M55.51,34.323h0.441v2.072h0.014c0.189-0.518,0.715-0.791,1.254-0.791c1.1,0,1.625,0.89,1.625,1.912
				c0,1.023-0.525,1.912-1.625,1.912c-0.582,0-1.086-0.301-1.289-0.791h-0.014v0.686H55.51V34.323z M57.219,35.976
				c-0.939,0-1.268,0.792-1.268,1.541c0,0.75,0.328,1.541,1.268,1.541c0.84,0,1.184-0.791,1.184-1.541
				C58.402,36.768,58.059,35.976,57.219,35.976z"/>
			<path fill="#45304C" d="M59.535,34.323h0.441v0.707h-0.441V34.323z M59.535,35.71h0.441v3.613h-0.441V35.71z"/>
			<path fill="#45304C" d="M60.83,34.323h0.441v5H60.83V34.323z"/>
			<path fill="#45304C" d="M62.377,37.636c0.007,0.645,0.343,1.422,1.19,1.422c0.644,0,0.994-0.379,1.134-0.924h0.441
				c-0.188,0.818-0.665,1.295-1.575,1.295c-1.149,0-1.632-0.883-1.632-1.912c0-0.952,0.482-1.912,1.632-1.912
				c1.163,0,1.625,1.016,1.59,2.031H62.377z M64.716,37.265c-0.021-0.666-0.435-1.289-1.148-1.289c-0.722,0-1.12,0.631-1.19,1.289
				H64.716z"/>
			<path fill="#45304C" d="M67.781,34.323h2.115c0.84,0,1.604,0.294,1.604,1.226c0,0.524-0.351,1.009-0.869,1.12v0.014
				c0.645,0.085,1.059,0.568,1.059,1.219c0,0.477-0.169,1.422-1.793,1.422h-2.115V34.323z M68.257,36.515h1.64
				c0.763,0,1.127-0.377,1.127-0.847c0-0.624-0.385-0.938-1.127-0.938h-1.64V36.515z M68.257,38.917h1.64
				c0.706,0.008,1.316-0.23,1.316-1.029c0-0.637-0.484-0.967-1.316-0.967h-1.64V38.917z"/>
			<path fill="#45304C" d="M72.324,36.816c0.041-0.848,0.637-1.212,1.463-1.212c0.638,0,1.331,0.196,1.331,1.163v1.919
				c0,0.168,0.084,0.266,0.259,0.266c0.049,0,0.105-0.014,0.141-0.027v0.371c-0.099,0.021-0.168,0.027-0.287,0.027
				c-0.449,0-0.519-0.252-0.519-0.63h-0.015c-0.308,0.47-0.623,0.735-1.316,0.735c-0.665,0-1.211-0.329-1.211-1.058
				c0-1.016,0.986-1.05,1.939-1.163c0.364-0.041,0.567-0.09,0.567-0.49c0-0.595-0.427-0.742-0.945-0.742
				c-0.546,0-0.952,0.252-0.967,0.841H72.324z M74.677,37.349h-0.015c-0.055,0.105-0.252,0.141-0.371,0.161
				c-0.749,0.134-1.68,0.126-1.68,0.833c0,0.441,0.392,0.715,0.805,0.715c0.672,0,1.268-0.428,1.261-1.135V37.349z"/>
			<path fill="#45304C" d="M75.991,35.71h0.441v0.623h0.015c0.16-0.434,0.644-0.729,1.154-0.729c1.016,0,1.324,0.533,1.324,1.395
				v2.324h-0.441v-2.255c0-0.623-0.203-1.093-0.917-1.093c-0.7,0-1.12,0.533-1.135,1.24v2.107h-0.441V35.71z"/>
			<path fill="#45304C" d="M79.758,34.323h0.44v3.138l2.003-1.751h0.588l-1.54,1.338l1.646,2.275h-0.553l-1.43-1.968l-0.714,0.596
				v1.372h-0.44V34.323z"/>
			<path fill="#45304C" d="M83.264,34.323h0.441v0.707h-0.441V34.323z M83.264,35.71h0.441v3.613h-0.441V35.71z"/>
			<path fill="#45304C" d="M84.545,35.71h0.441v0.623h0.015c0.161-0.434,0.644-0.729,1.155-0.729c1.016,0,1.324,0.533,1.324,1.395
				v2.324h-0.441v-2.255c0-0.623-0.203-1.093-0.918-1.093c-0.7,0-1.12,0.533-1.135,1.24v2.107h-0.441V35.71z"/>
			<path fill="#45304C" d="M91.365,39.03c-0.008,1.078-0.42,1.736-1.604,1.736c-0.723,0-1.437-0.322-1.5-1.093h0.441
				c0.099,0.532,0.568,0.722,1.059,0.722c0.813,0,1.162-0.483,1.162-1.365v-0.49H90.91c-0.203,0.44-0.631,0.742-1.148,0.742
				c-1.156,0-1.633-0.827-1.633-1.856c0-0.995,0.589-1.821,1.633-1.821c0.525,0,0.973,0.33,1.148,0.729h0.014V35.71h0.441V39.03z
				 M90.924,37.475c0-0.707-0.329-1.499-1.162-1.499c-0.841,0-1.191,0.75-1.191,1.499c0,0.729,0.379,1.437,1.191,1.437
				C90.524,38.911,90.924,38.21,90.924,37.475z"/>
			<path fill="#45304C" d="M94.457,37.678c-0.021,1.03,0.722,1.345,1.633,1.345c0.525,0,1.323-0.287,1.323-1.016
				c0-0.566-0.567-0.791-1.03-0.903l-1.113-0.272c-0.588-0.148-1.127-0.428-1.127-1.205c0-0.49,0.314-1.408,1.723-1.408
				c0.987,0,1.855,0.533,1.85,1.555h-0.477c-0.028-0.764-0.658-1.148-1.366-1.148c-0.651,0-1.253,0.252-1.253,0.994
				c0,0.47,0.35,0.666,0.756,0.764l1.219,0.301c0.707,0.189,1.295,0.498,1.295,1.317c0,0.343-0.14,1.429-1.912,1.429
				c-1.184,0-2.051-0.532-1.996-1.751H94.457z"/>
			<path fill="#45304C" d="M98.153,35.71h0.47l1.189,3.082l1.114-3.082h0.44l-1.568,4.167c-0.252,0.609-0.398,0.784-0.952,0.784
				c-0.175-0.007-0.267-0.007-0.337-0.035v-0.371c0.105,0.021,0.203,0.035,0.302,0.035c0.392,0,0.483-0.23,0.63-0.566l0.154-0.414
				L98.153,35.71z"/>
			<path fill="#45304C" d="M103.965,36.768c-0.021-0.546-0.441-0.792-0.946-0.792c-0.392,0-0.854,0.154-0.854,0.623
				c0,0.393,0.448,0.533,0.75,0.609l0.588,0.134c0.504,0.077,1.029,0.371,1.029,1.001c0,0.785-0.777,1.086-1.449,1.086
				c-0.841,0-1.415-0.393-1.484-1.274h0.44c0.035,0.595,0.477,0.903,1.064,0.903c0.413,0,0.987-0.182,0.987-0.687
				c0-0.42-0.392-0.56-0.791-0.658l-0.567-0.126c-0.574-0.154-1.009-0.35-1.009-0.967c0-0.735,0.722-1.016,1.359-1.016
				c0.721,0,1.295,0.379,1.323,1.163H103.965z"/>
			<path fill="#45304C" d="M105.867,35.71h0.735v0.371h-0.735v2.438c0,0.287,0.043,0.455,0.357,0.477
				c0.127,0,0.252-0.008,0.378-0.021v0.378c-0.132,0-0.259,0.015-0.392,0.015c-0.588,0-0.791-0.197-0.785-0.813v-2.473h-0.63V35.71
				h0.63v-1.086h0.441V35.71z"/>
			<path fill="#45304C" d="M107.498,37.636c0.008,0.645,0.344,1.422,1.191,1.422c0.644,0,0.994-0.379,1.134-0.924h0.441
				c-0.188,0.818-0.665,1.295-1.575,1.295c-1.149,0-1.633-0.883-1.633-1.912c0-0.952,0.483-1.912,1.633-1.912
				c1.162,0,1.625,1.016,1.59,2.031H107.498z M109.838,37.265c-0.021-0.666-0.435-1.289-1.148-1.289
				c-0.723,0-1.121,0.631-1.191,1.289H109.838z"/>
			<path fill="#45304C" d="M110.872,35.71h0.406v0.609h0.021c0.231-0.435,0.609-0.715,1.184-0.715c0.477,0,0.904,0.231,1.037,0.707
				c0.217-0.476,0.672-0.707,1.148-0.707c0.791,0,1.197,0.414,1.197,1.268v2.451h-0.441v-2.43c0-0.596-0.224-0.918-0.854-0.918
				c-0.764,0-0.98,0.631-0.98,1.303v2.045h-0.441v-2.451c0.007-0.49-0.196-0.896-0.757-0.896c-0.763,0-1.071,0.574-1.079,1.331
				v2.017h-0.44V35.71z"/>
		</g>
	</g>
</g>
</svg>
